G04 Layer_Physical_Order=4*
G04 Layer_Color=16711680*
%FSLAX25Y25*%
%MOIN*%
G70*
G01*
G75*
%ADD19R,0.03937X0.03937*%
%ADD27C,0.00600*%
%ADD32C,0.01000*%
%ADD33C,0.01600*%
%ADD34C,0.04000*%
%ADD35C,0.02400*%
G36*
X361646Y362082D02*
Y361866D01*
X361646Y361866D01*
X361536Y361730D01*
X361439Y361585D01*
X361354Y361432D01*
X361284Y361273D01*
X361227Y361107D01*
X361185Y360938D01*
X361158Y360765D01*
X361147Y360591D01*
X361150Y360416D01*
X361169Y360243D01*
X361202Y360071D01*
X361251Y359904D01*
X361314Y359741D01*
X361391Y359584D01*
X361481Y359434D01*
X361576Y359303D01*
X361576Y359303D01*
X361607Y359261D01*
X361634Y359216D01*
X361656Y359169D01*
X361675Y359120D01*
X361689Y359069D01*
X361699Y359018D01*
X361704Y358966D01*
X361705Y358913D01*
X361701Y358861D01*
X361692Y358810D01*
X361680Y358759D01*
X361662Y358709D01*
X361641Y358662D01*
X361615Y358616D01*
X361586Y358573D01*
X361553Y358532D01*
X361516Y358495D01*
X361476Y358461D01*
X361434Y358430D01*
X361389Y358403D01*
X361342Y358381D01*
X361293Y358362D01*
X361242Y358348D01*
X361191Y358338D01*
X361139Y358333D01*
X361104Y358332D01*
X359330D01*
Y357131D01*
X355670D01*
Y358332D01*
X349002D01*
Y360993D01*
X349229Y361049D01*
X349229Y361049D01*
X349396Y361099D01*
X349559Y361163D01*
X349715Y361241D01*
X349864Y361332D01*
X350005Y361436D01*
X350135Y361552D01*
X350256Y361678D01*
X350364Y361815D01*
X350461Y361961D01*
X350544Y362114D01*
X350614Y362274D01*
X350669Y362440D01*
X350710Y362610D01*
X350736Y362782D01*
X350747Y362957D01*
X350747Y362998D01*
Y363298D01*
X360430D01*
X361646Y362082D01*
D02*
G37*
G36*
X389289Y354692D02*
X385670D01*
Y358332D01*
X384002D01*
Y360093D01*
X383276Y360818D01*
X383276Y360818D01*
X383241Y360857D01*
X383209Y360898D01*
X383181Y360943D01*
X383157Y360989D01*
X383137Y361037D01*
X383121Y361087D01*
X383110Y361139D01*
X383103Y361190D01*
X383101Y361243D01*
X383103Y361295D01*
X383110Y361347D01*
X383122Y361398D01*
X383137Y361448D01*
X383157Y361496D01*
X383182Y361543D01*
X383210Y361587D01*
X383242Y361628D01*
X383277Y361667D01*
X383316Y361702D01*
X383357Y361734D01*
X383402Y361762D01*
X383448Y361786D01*
X383473Y361797D01*
X383473Y361797D01*
X383631Y361871D01*
X383783Y361958D01*
X383926Y362057D01*
X384060Y362169D01*
X384184Y362292D01*
X384297Y362426D01*
X384397Y362569D01*
X384485Y362720D01*
X384559Y362878D01*
X384620Y363042D01*
X384665Y363210D01*
X384696Y363382D01*
X384701Y363422D01*
X384713Y363527D01*
X385735Y364548D01*
X389289D01*
Y354692D01*
D02*
G37*
G36*
X329330Y407140D02*
X332626D01*
Y402923D01*
X336940Y398608D01*
Y397772D01*
X336940Y397772D01*
X336830Y397636D01*
X336733Y397491D01*
X336649Y397338D01*
X336578Y397178D01*
X336521Y397013D01*
X336479Y396844D01*
X336453Y396671D01*
X336441Y396497D01*
X336444Y396322D01*
X336462Y396148D01*
X336496Y395977D01*
X336545Y395809D01*
X336608Y395646D01*
X336684Y395490D01*
X336775Y395340D01*
X336877Y395199D01*
X336992Y395067D01*
X337118Y394946D01*
X337254Y394836D01*
X337399Y394739D01*
X337552Y394655D01*
X337712Y394584D01*
X337877Y394527D01*
X338046Y394485D01*
X338219Y394459D01*
X338393Y394447D01*
X338568Y394450D01*
X338741Y394468D01*
X338913Y394502D01*
X338920Y394504D01*
X338920Y394503D01*
X338946Y394509D01*
X338972Y394511D01*
X338998Y394512D01*
X339024Y394510D01*
X339050Y394506D01*
X339075Y394500D01*
X339100Y394491D01*
X339124Y394481D01*
X339147Y394468D01*
X339169Y394454D01*
X339189Y394437D01*
X339208Y394419D01*
X339225Y394399D01*
X339241Y394378D01*
X339254Y394356D01*
X339266Y394332D01*
X339275Y394308D01*
X339282Y394286D01*
X339282Y394286D01*
X339332Y394119D01*
X339397Y393957D01*
X339476Y393801D01*
X339568Y393652D01*
X339672Y393512D01*
X339789Y393382D01*
X339916Y393263D01*
X340053Y393155D01*
X340199Y393059D01*
X340353Y392976D01*
X340514Y392907D01*
X340680Y392853D01*
X340850Y392813D01*
X341023Y392788D01*
X341197Y392778D01*
X341372Y392784D01*
X341545Y392804D01*
X341716Y392840D01*
X341883Y392890D01*
X342045Y392955D01*
X342201Y393034D01*
X342350Y393126D01*
X342490Y393231D01*
X342620Y393347D01*
X342740Y393474D01*
X342847Y393611D01*
X342943Y393758D01*
X343026Y393911D01*
X343095Y394072D01*
X343137Y394195D01*
X343137Y394195D01*
X343155Y394244D01*
X343176Y394292D01*
X343202Y394338D01*
X343232Y394381D01*
X343265Y394421D01*
X343302Y394459D01*
X343341Y394493D01*
X343384Y394523D01*
X343429Y394549D01*
X343476Y394572D01*
X343525Y394590D01*
X343576Y394604D01*
X343627Y394614D01*
X343679Y394619D01*
X343731Y394620D01*
X343784Y394616D01*
X343835Y394607D01*
X343886Y394594D01*
X343935Y394577D01*
X343983Y394555D01*
X344028Y394529D01*
X344072Y394499D01*
X344112Y394466D01*
X344135Y394444D01*
X351103Y387476D01*
X364601D01*
X370798Y381278D01*
Y376623D01*
X370798Y376623D01*
X370688Y376487D01*
X370591Y376342D01*
X370506Y376189D01*
X370436Y376030D01*
X370379Y375864D01*
X370337Y375695D01*
X370310Y375522D01*
X370299Y375348D01*
X370302Y375173D01*
X370321Y375000D01*
X370354Y374828D01*
X370403Y374661D01*
X370466Y374498D01*
X370543Y374341D01*
X370633Y374191D01*
X370736Y374050D01*
X370851Y373919D01*
X370977Y373798D01*
X371103Y373695D01*
X371103Y373695D01*
X371143Y373662D01*
X371181Y373625D01*
X371215Y373586D01*
X371246Y373543D01*
X371272Y373498D01*
X371295Y373451D01*
X371314Y373402D01*
X371328Y373352D01*
X371338Y373300D01*
X371343Y373248D01*
X371344Y373196D01*
X371340Y373144D01*
X371332Y373092D01*
X371319Y373041D01*
X371301Y372992D01*
X371280Y372944D01*
X371254Y372898D01*
X371225Y372855D01*
X371192Y372815D01*
X371168Y372789D01*
X369608Y371230D01*
X349691D01*
X348196Y372724D01*
Y376617D01*
X345598Y379215D01*
X345601Y379343D01*
X345601Y379343D01*
X345596Y379518D01*
X345577Y379691D01*
X345542Y379862D01*
X345493Y380030D01*
X345429Y380192D01*
X345351Y380349D01*
X345260Y380498D01*
X345156Y380638D01*
X345040Y380769D01*
X344914Y380890D01*
X344777Y380998D01*
X344632Y381095D01*
X344479Y381178D01*
X344318Y381248D01*
X344153Y381304D01*
X343983Y381345D01*
X343810Y381371D01*
X343636Y381382D01*
X343461Y381377D01*
X343288Y381358D01*
X343117Y381323D01*
X342949Y381274D01*
X342787Y381210D01*
X342630Y381132D01*
X342481Y381041D01*
X342341Y380937D01*
X342210Y380821D01*
X342089Y380695D01*
X341981Y380558D01*
X341884Y380413D01*
X341800Y380259D01*
X341731Y380099D01*
X341675Y379934D01*
X341634Y379764D01*
X341608Y379591D01*
X341597Y379417D01*
X341602Y379242D01*
X341621Y379069D01*
X341656Y378898D01*
X341678Y378818D01*
X341728Y378647D01*
X340943Y377863D01*
X340732Y378046D01*
X340732Y378046D01*
X340595Y378155D01*
X340450Y378251D01*
X340296Y378334D01*
X340136Y378404D01*
X339970Y378460D01*
X339801Y378500D01*
X339628Y378526D01*
X339454Y378537D01*
X339279Y378532D01*
X339106Y378512D01*
X338934Y378477D01*
X338767Y378428D01*
X338604Y378364D01*
X338448Y378286D01*
X338299Y378194D01*
X338159Y378091D01*
X338028Y377975D01*
X337908Y377848D01*
X337799Y377712D01*
X337703Y377566D01*
X337619Y377412D01*
X337550Y377252D01*
X337494Y377086D01*
X337454Y376917D01*
X337428Y376744D01*
X337417Y376570D01*
X337422Y376395D01*
X337442Y376221D01*
X337477Y376050D01*
X337526Y375883D01*
X337590Y375720D01*
X337668Y375564D01*
X337759Y375415D01*
X337863Y375275D01*
X337979Y375144D01*
X338106Y375024D01*
X338243Y374915D01*
X338388Y374819D01*
X338542Y374735D01*
X338702Y374666D01*
X338867Y374610D01*
X338974Y374583D01*
X339058Y374564D01*
X339331Y374291D01*
X338961Y373920D01*
X337977D01*
X335400Y371344D01*
Y367694D01*
X338616Y364478D01*
X339187D01*
X339200Y364192D01*
X339200D01*
X339215Y364018D01*
X339246Y363846D01*
X339291Y363677D01*
X339339Y363542D01*
X339339Y363542D01*
X339197Y363440D01*
X339065Y363326D01*
X338943Y363201D01*
X338833Y363065D01*
X338735Y362921D01*
X338649Y362769D01*
X338578Y362609D01*
X338520Y362444D01*
X338478Y362275D01*
X338450Y362103D01*
X338449Y362096D01*
X338437Y361991D01*
X337876Y361430D01*
X337615Y361691D01*
X337593Y361755D01*
X337593Y361755D01*
X337528Y361917D01*
X337449Y362073D01*
X337357Y362222D01*
X337253Y362361D01*
X337136Y362492D01*
X337009Y362611D01*
X336872Y362719D01*
X336726Y362815D01*
X336572Y362898D01*
X336411Y362966D01*
X336245Y363021D01*
X336075Y363061D01*
X335903Y363086D01*
X335728Y363096D01*
X335554Y363090D01*
X335380Y363070D01*
X335209Y363034D01*
X335042Y362984D01*
X334880Y362919D01*
X334724Y362840D01*
X334576Y362748D01*
X334436Y362644D01*
X334305Y362527D01*
X334186Y362400D01*
X334078Y362263D01*
X333982Y362117D01*
X333899Y361963D01*
X333830Y361802D01*
X333776Y361636D01*
X333736Y361467D01*
X333711Y361294D01*
X333701Y361119D01*
X333707Y360945D01*
X333727Y360771D01*
X333763Y360600D01*
X333813Y360433D01*
X333878Y360271D01*
X333957Y360115D01*
X334049Y359966D01*
X334153Y359827D01*
X334270Y359696D01*
X334397Y359577D01*
X334534Y359469D01*
X334680Y359373D01*
X334834Y359290D01*
X334995Y359222D01*
X335160Y359167D01*
X335331Y359127D01*
X335503Y359102D01*
X335678Y359092D01*
X335699Y359092D01*
X335725Y359091D01*
X335751Y359087D01*
X335777Y359082D01*
X335802Y359074D01*
X335826Y359064D01*
X335849Y359051D01*
X335871Y359037D01*
X335892Y359021D01*
X335911Y359003D01*
X335929Y358984D01*
X335944Y358963D01*
X335958Y358941D01*
X335970Y358918D01*
X335980Y358894D01*
X335988Y358869D01*
X335994Y358843D01*
X335997Y358817D01*
X335998Y358792D01*
Y358332D01*
X329330D01*
Y354692D01*
X317115D01*
Y382747D01*
X287400D01*
Y410778D01*
X329330D01*
Y407140D01*
D02*
G37*
G36*
X389289Y400890D02*
X385650D01*
Y389220D01*
X385429D01*
X382840Y386632D01*
Y376387D01*
X382838Y376335D01*
X382831Y376283D01*
X382820Y376232D01*
X382804Y376182D01*
X382784Y376133D01*
X382760Y376087D01*
X382732Y376043D01*
X382700Y376001D01*
X382665Y375962D01*
X382626Y375927D01*
X382585Y375895D01*
X382541Y375867D01*
X382494Y375843D01*
X382446Y375822D01*
X382396Y375807D01*
X382345Y375795D01*
X382293Y375788D01*
X382241Y375786D01*
X382195Y375788D01*
X382195Y375788D01*
X382020Y375794D01*
X381846Y375784D01*
X381673Y375759D01*
X381503Y375719D01*
X381337Y375665D01*
X381177Y375596D01*
X381023Y375513D01*
X380877Y375418D01*
X380739Y375310D01*
X380612Y375190D01*
X380496Y375060D01*
X380391Y374920D01*
X380299Y374772D01*
X380220Y374616D01*
X380155Y374454D01*
X380112Y374314D01*
X380112Y374314D01*
X380104Y374289D01*
X380094Y374265D01*
X380082Y374242D01*
X380068Y374220D01*
X380052Y374199D01*
X380034Y374180D01*
X380015Y374162D01*
X379994Y374146D01*
X379972Y374132D01*
X379948Y374120D01*
X379924Y374111D01*
X379899Y374103D01*
X379874Y374097D01*
X379848Y374094D01*
X379821Y374093D01*
X379813D01*
X379813Y374093D01*
X379712Y374094D01*
Y374094D01*
X379660Y374096D01*
X379608Y374101D01*
X379556Y374112D01*
X379506Y374127D01*
X379457Y374146D01*
X379411Y374169D01*
X379366Y374197D01*
X379324Y374228D01*
X379285Y374263D01*
X379249Y374301D01*
X379216Y374342D01*
X379187Y374385D01*
X379163Y374431D01*
X379142Y374479D01*
X379125Y374529D01*
X379113Y374580D01*
X379105Y374632D01*
X379102Y374684D01*
X379102Y374694D01*
Y398580D01*
X379104Y398632D01*
X379111Y398684D01*
X379122Y398735D01*
X379138Y398785D01*
X379158Y398834D01*
X379182Y398880D01*
X379210Y398924D01*
X379242Y398966D01*
X379278Y399004D01*
X379316Y399040D01*
X379358Y399072D01*
X379402Y399100D01*
X379448Y399124D01*
X379497Y399144D01*
X379547Y399160D01*
X379598Y399171D01*
X379650Y399178D01*
X379653Y399178D01*
X379653Y399178D01*
X379826Y399199D01*
X379997Y399236D01*
X380164Y399288D01*
X380326Y399353D01*
X380481Y399433D01*
X380629Y399526D01*
X380768Y399631D01*
X380898Y399749D01*
X381017Y399877D01*
X381124Y400014D01*
X381219Y400161D01*
X381300Y400316D01*
X381368Y400477D01*
X381421Y400643D01*
X381460Y400813D01*
X381484Y400986D01*
X381493Y401160D01*
X381486Y401335D01*
X381465Y401508D01*
X381428Y401679D01*
X381377Y401846D01*
X381311Y402008D01*
X381231Y402163D01*
X381138Y402311D01*
X381127Y402327D01*
X381127Y402327D01*
X381221Y402474D01*
X381302Y402629D01*
X381370Y402790D01*
X381423Y402956D01*
X381461Y403126D01*
X381485Y403300D01*
X381493Y403474D01*
X381486Y403649D01*
X381464Y403822D01*
X381427Y403993D01*
X381375Y404159D01*
X381308Y404321D01*
X381228Y404476D01*
X381135Y404624D01*
X381029Y404763D01*
X380911Y404892D01*
X380783Y405010D01*
X380645Y405117D01*
X380498Y405211D01*
X380343Y405293D01*
X380182Y405360D01*
X380016Y405413D01*
X379845Y405451D01*
X379672Y405475D01*
X379498Y405483D01*
X379323Y405476D01*
X379150Y405454D01*
X378979Y405417D01*
X378813Y405365D01*
X378651Y405298D01*
X378496Y405218D01*
X378348Y405125D01*
X378209Y405019D01*
X378080Y404902D01*
X377962Y404773D01*
X377855Y404635D01*
X377761Y404488D01*
X377679Y404333D01*
X377612Y404172D01*
X377559Y404006D01*
X377521Y403835D01*
X377497Y403662D01*
X377489Y403488D01*
X377496Y403313D01*
X377518Y403140D01*
X377555Y402970D01*
X377607Y402803D01*
X377674Y402641D01*
X377754Y402486D01*
X377847Y402338D01*
X377855Y402327D01*
X377855Y402327D01*
X377761Y402180D01*
X377742Y402148D01*
X377722Y402111D01*
X377480Y401869D01*
X376690Y402659D01*
Y405474D01*
X376049Y406115D01*
X376049Y406115D01*
X376014Y406154D01*
X375982Y406195D01*
X375954Y406239D01*
X375929Y406286D01*
X375909Y406334D01*
X375894Y406384D01*
X375882Y406435D01*
X375875Y406487D01*
X375873Y406539D01*
X375875Y406592D01*
X375882Y406643D01*
X375893Y406695D01*
X375909Y406744D01*
X375929Y406793D01*
X375953Y406839D01*
X375981Y406884D01*
X376013Y406925D01*
X376048Y406964D01*
X376087Y406999D01*
X376128Y407031D01*
X376172Y407059D01*
X376219Y407084D01*
X376267Y407104D01*
X376317Y407119D01*
X376368Y407131D01*
X376420Y407138D01*
X376472Y407140D01*
X380670D01*
Y408340D01*
X384470D01*
Y410778D01*
X389289D01*
Y400890D01*
D02*
G37*
G36*
X367728Y404052D02*
Y403148D01*
X371551Y399325D01*
X371551Y399325D01*
X371587Y399287D01*
X371619Y399245D01*
X371647Y399201D01*
X371671Y399155D01*
X371691Y399106D01*
X371707Y399056D01*
X371718Y399005D01*
X371725Y398953D01*
X371727Y398901D01*
X371725Y398849D01*
X371718Y398797D01*
X371707Y398746D01*
X371691Y398696D01*
X371671Y398647D01*
X371647Y398601D01*
X371619Y398557D01*
X371587Y398515D01*
X371551Y398477D01*
X371513Y398441D01*
X371471Y398410D01*
X371427Y398381D01*
X371381Y398357D01*
X371332Y398337D01*
X371282Y398321D01*
X371231Y398310D01*
X371179Y398303D01*
X371127Y398301D01*
X371110D01*
X371110Y398301D01*
X370935Y398299D01*
X370762Y398281D01*
X370590Y398248D01*
X370422Y398200D01*
X370259Y398137D01*
X370102Y398061D01*
X369952Y397971D01*
X369811Y397869D01*
X369678Y397755D01*
X369557Y397629D01*
X369447Y397494D01*
X369349Y397349D01*
X369264Y397197D01*
X369193Y397037D01*
X369135Y396872D01*
X369093Y396703D01*
X369065Y396530D01*
X369053Y396356D01*
X369056Y396181D01*
X369074Y396008D01*
X369107Y395836D01*
X369154Y395668D01*
X369217Y395505D01*
X369293Y395348D01*
X369383Y395198D01*
X369485Y395057D01*
X369599Y394924D01*
X369725Y394803D01*
X369860Y394693D01*
X370005Y394595D01*
X370158Y394510D01*
X370317Y394439D01*
X370482Y394381D01*
X370651Y394339D01*
X370824Y394311D01*
X370998Y394299D01*
X371173Y394302D01*
X371346Y394320D01*
X371518Y394353D01*
X371686Y394400D01*
X371849Y394463D01*
X372006Y394539D01*
X372156Y394629D01*
X372297Y394731D01*
X372429Y394845D01*
X372551Y394971D01*
X372661Y395106D01*
X372759Y395251D01*
X372844Y395404D01*
X372915Y395563D01*
X372972Y395728D01*
X373015Y395897D01*
X373043Y396070D01*
X373055Y396244D01*
X373053Y396419D01*
X373035Y396592D01*
X373002Y396764D01*
X372954Y396932D01*
X372891Y397095D01*
X372836Y397213D01*
X372736Y397407D01*
X373103Y397774D01*
X373698Y397178D01*
Y385771D01*
X373696Y385719D01*
X373689Y385667D01*
X373678Y385616D01*
X373662Y385566D01*
X373642Y385517D01*
X373618Y385471D01*
X373589Y385427D01*
X373558Y385385D01*
X373522Y385347D01*
X373484Y385311D01*
X373442Y385279D01*
X373398Y385251D01*
X373352Y385227D01*
X373303Y385207D01*
X373253Y385191D01*
X373202Y385180D01*
X373150Y385173D01*
X373098Y385171D01*
X373046Y385173D01*
X372994Y385180D01*
X372943Y385191D01*
X372893Y385207D01*
X372844Y385227D01*
X372798Y385251D01*
X372754Y385279D01*
X372712Y385311D01*
X372674Y385347D01*
X366343Y391678D01*
X364543D01*
X364491Y391680D01*
X364439Y391687D01*
X364388Y391698D01*
X364338Y391714D01*
X364289Y391734D01*
X364243Y391758D01*
X364199Y391787D01*
X364157Y391818D01*
X364119Y391854D01*
X364083Y391892D01*
X364052Y391934D01*
X364023Y391978D01*
X363999Y392024D01*
X363979Y392073D01*
X363963Y392123D01*
X363952Y392174D01*
X363945Y392226D01*
X363943Y392278D01*
X363945Y392330D01*
X363952Y392382D01*
X363963Y392433D01*
X363979Y392483D01*
X363999Y392532D01*
X364011Y392556D01*
X364011Y392556D01*
X364085Y392714D01*
X364144Y392878D01*
X364190Y393047D01*
X364220Y393219D01*
X364235Y393393D01*
X364235Y393568D01*
X364220Y393742D01*
X364189Y393914D01*
X364144Y394082D01*
X364084Y394247D01*
X364011Y394405D01*
X363923Y394556D01*
X363823Y394699D01*
X363736Y394804D01*
Y402217D01*
X364204Y402685D01*
Y403079D01*
X364270Y403161D01*
X364373Y403302D01*
X364463Y403452D01*
X364539Y403609D01*
X364602Y403772D01*
X364650Y403940D01*
X364683Y404111D01*
X364696Y404220D01*
X364696Y404220D01*
X364703Y404272D01*
X364714Y404323D01*
X364731Y404373D01*
X364751Y404421D01*
X364775Y404467D01*
X364804Y404511D01*
X364836Y404553D01*
X364871Y404591D01*
X364910Y404626D01*
X364952Y404658D01*
X364996Y404685D01*
X365043Y404709D01*
X365091Y404729D01*
X365141Y404744D01*
X365193Y404755D01*
X365245Y404762D01*
X365294Y404764D01*
X367016D01*
X367728Y404052D01*
D02*
G37*
D19*
X388820Y397719D02*
D03*
Y387719D02*
D03*
Y382719D02*
D03*
Y377719D02*
D03*
Y372719D02*
D03*
Y367719D02*
D03*
Y392719D02*
D03*
X362500Y410310D02*
D03*
X367500D02*
D03*
X342500D02*
D03*
X347500D02*
D03*
X377500D02*
D03*
X352500D02*
D03*
X337500D02*
D03*
X332500D02*
D03*
X382500D02*
D03*
X357500D02*
D03*
X372500D02*
D03*
X342500Y355161D02*
D03*
X347500D02*
D03*
X337500D02*
D03*
X377500D02*
D03*
X352500D02*
D03*
X357500D02*
D03*
X332500D02*
D03*
X382500D02*
D03*
X372500D02*
D03*
X367500D02*
D03*
X362500D02*
D03*
D27*
X341200Y364280D02*
X341557D01*
X342500Y363337D01*
Y355161D02*
Y363337D01*
Y353192D02*
Y355161D01*
X362500Y407541D02*
Y410310D01*
Y407541D02*
X363775Y406266D01*
X367638D01*
X369230Y404674D01*
Y403770D02*
Y404674D01*
Y403770D02*
X375200Y397800D01*
Y373000D02*
Y397800D01*
X370600Y368400D02*
X375200Y373000D01*
X348699Y368400D02*
X370600D01*
X346799Y370300D02*
X348699Y368400D01*
X345614Y370300D02*
X346799D01*
X344515Y371399D02*
X345614Y370300D01*
X342915Y371399D02*
X344515D01*
X362500Y410310D02*
Y412278D01*
X339802Y369519D02*
X340902D01*
X341320Y369101D01*
X344890D01*
X344891Y369100D01*
X346301D01*
X348201Y367200D01*
X371098D01*
X376400Y372502D01*
Y398502D01*
X370547Y404355D02*
X376400Y398502D01*
X370547Y404355D02*
Y405440D01*
X368478Y407509D02*
X370547Y405440D01*
X368478Y407509D02*
Y409300D01*
X367500Y410278D02*
X368478Y409300D01*
X367500Y410278D02*
Y410310D01*
X351725Y388977D02*
X365223D01*
X372300Y381900D01*
Y375299D02*
Y381900D01*
X342500Y410310D02*
Y412278D01*
X347500Y410310D02*
Y412278D01*
Y395552D02*
Y410310D01*
Y395552D02*
X352875Y390177D01*
X365721D01*
X374000Y381898D01*
Y373498D02*
Y381898D01*
X370230Y369728D02*
X374000Y373498D01*
X349069Y369728D02*
X370230D01*
X347297Y371500D02*
X349069Y369728D01*
X347295Y371500D02*
X347297D01*
X346695Y372100D02*
X347295Y371500D01*
X346695Y372100D02*
Y375995D01*
X345230Y377460D02*
X346695Y375995D01*
X342664Y377460D02*
X345230D01*
X341277Y376073D02*
X342664Y377460D01*
X341277Y374113D02*
Y376073D01*
X339583Y372419D02*
X341277Y374113D01*
X338599Y372419D02*
X339583D01*
X336902Y370722D02*
X338599Y372419D01*
X336902Y368316D02*
Y370722D01*
Y368316D02*
X339238Y365980D01*
X343175D01*
X343895Y366700D01*
X345305D01*
X347205Y364800D01*
X361052D01*
X363148Y362704D01*
Y360542D02*
Y362704D01*
X345345Y362336D02*
X347500Y360181D01*
Y355161D02*
Y360181D01*
Y353192D02*
Y355161D01*
X337500Y358931D02*
X340438Y361869D01*
X337500Y355161D02*
Y358931D01*
Y353192D02*
Y355161D01*
X374056Y363089D02*
X377500Y359645D01*
Y355161D02*
Y359645D01*
Y353192D02*
Y355161D01*
X352500Y353192D02*
Y355161D01*
X377500Y410310D02*
Y412278D01*
X362235Y393480D02*
Y402839D01*
X362703Y403307D01*
Y404407D01*
X359612Y395212D02*
X360424Y396024D01*
Y405590D01*
X358902Y407112D02*
X360424Y405590D01*
X352929Y407112D02*
X358902D01*
X352500Y407541D02*
X352929Y407112D01*
X352500Y407541D02*
Y410310D01*
Y412278D01*
X337500Y402584D02*
X341222Y398862D01*
X337500Y402584D02*
Y410310D01*
Y412278D01*
X334127Y403545D02*
X338442Y399230D01*
X357500Y410310D02*
Y412278D01*
X382500Y410310D02*
Y412278D01*
X388820Y397719D02*
X390789D01*
X388820Y387719D02*
X390789D01*
X378976Y369196D02*
X381687D01*
X384342Y371851D01*
Y386010D01*
X386051Y387719D01*
X388820D01*
X342674Y374528D02*
X343452Y375306D01*
X342674Y373812D02*
Y374528D01*
X340081Y371219D02*
X342674Y373812D01*
X339097Y371219D02*
X340081D01*
X338102Y370224D02*
X339097Y371219D01*
X338102Y368814D02*
Y370224D01*
Y368814D02*
X339352Y367564D01*
X343061D01*
X343398Y367901D01*
X344392D01*
X344393Y367900D01*
X345803D01*
X347703Y366000D01*
X371596D01*
X377600Y372004D01*
Y399626D01*
X375189Y402037D02*
X377600Y399626D01*
X375189Y402037D02*
Y404852D01*
X372500Y407541D02*
X375189Y404852D01*
X372500Y407541D02*
Y410310D01*
X388820Y382719D02*
X390789D01*
X382712Y363649D02*
X385693Y366630D01*
Y381712D01*
X386700Y382719D01*
X388820D01*
X382500Y353192D02*
Y355161D01*
Y359471D01*
X376542Y365429D02*
X382500Y359471D01*
X370790Y362650D02*
X372500Y360940D01*
Y355161D02*
Y360940D01*
Y353192D02*
Y355161D01*
X367445Y361063D02*
Y362163D01*
Y361063D02*
X367500Y361008D01*
Y355161D02*
Y361008D01*
Y353192D02*
Y355161D01*
X388820Y392719D02*
X390789D01*
X334127Y403545D02*
Y410651D01*
X332500Y412278D02*
X334127Y410651D01*
X338442Y396448D02*
Y399230D01*
X342500Y398202D02*
Y410310D01*
Y398202D02*
X351725Y388977D01*
X341222Y394780D02*
Y398862D01*
X359612Y392988D02*
Y395212D01*
D32*
X382500Y408039D02*
Y410310D01*
X384771D01*
D33*
X341200Y364280D02*
D03*
X342915Y371399D02*
D03*
X339802Y369519D02*
D03*
X372300Y375299D02*
D03*
X363148Y360542D02*
D03*
X345345Y362336D02*
D03*
X340438Y361869D02*
D03*
X374056Y363089D02*
D03*
X362703Y404407D02*
D03*
X362235Y393480D02*
D03*
X322975Y362392D02*
D03*
X332156Y366579D02*
D03*
X326726Y369995D02*
D03*
X329902Y376416D02*
D03*
X322975Y376392D02*
D03*
X330615Y400192D02*
D03*
X290465Y383582D02*
D03*
X328115Y357692D02*
D03*
X326115D02*
D03*
X324115D02*
D03*
X322115D02*
D03*
X320115D02*
D03*
X318115Y358392D02*
D03*
X322615Y400192D02*
D03*
X288398Y403792D02*
D03*
Y405792D02*
D03*
Y407792D02*
D03*
Y395792D02*
D03*
Y397792D02*
D03*
Y399792D02*
D03*
Y401792D02*
D03*
Y393792D02*
D03*
Y391792D02*
D03*
Y389792D02*
D03*
Y387792D02*
D03*
Y385792D02*
D03*
Y383582D02*
D03*
X301935D02*
D03*
X299815Y383642D02*
D03*
X328015Y407692D02*
D03*
X324015D02*
D03*
X322015D02*
D03*
X292743Y403652D02*
D03*
Y397852D02*
D03*
X301357Y394789D02*
D03*
X296157D02*
D03*
X298757D02*
D03*
X301357Y406489D02*
D03*
X298757D02*
D03*
X296157D02*
D03*
X312095Y409792D02*
D03*
X316095D02*
D03*
X310098D02*
D03*
X308098D02*
D03*
X306098D02*
D03*
X304098D02*
D03*
X302098D02*
D03*
X300098D02*
D03*
X298098D02*
D03*
X296098D02*
D03*
X294098D02*
D03*
X292098D02*
D03*
X290098D02*
D03*
X314035D02*
D03*
X386156Y403723D02*
D03*
Y405723D02*
D03*
Y407723D02*
D03*
Y363723D02*
D03*
Y361723D02*
D03*
Y359723D02*
D03*
X318115Y360392D02*
D03*
Y362392D02*
D03*
Y364392D02*
D03*
Y366392D02*
D03*
Y368392D02*
D03*
Y370392D02*
D03*
Y372392D02*
D03*
Y374392D02*
D03*
Y376392D02*
D03*
Y378392D02*
D03*
Y380392D02*
D03*
Y382392D02*
D03*
Y400192D02*
D03*
Y402192D02*
D03*
Y404192D02*
D03*
X368955Y401640D02*
D03*
X364900Y401661D02*
D03*
X382297Y384874D02*
D03*
X382514Y381870D02*
D03*
X334579Y378798D02*
D03*
X360119Y360941D02*
D03*
X372820Y404487D02*
D03*
X382495Y396003D02*
D03*
X382512Y392038D02*
D03*
Y388175D02*
D03*
X382025Y377995D02*
D03*
X332852Y373060D02*
D03*
X343599Y379380D02*
D03*
X379491Y401173D02*
D03*
Y403481D02*
D03*
X371054Y396300D02*
D03*
X339419Y376535D02*
D03*
X335703Y361094D02*
D03*
X378976Y369196D02*
D03*
X343452Y375306D02*
D03*
X382712Y363649D02*
D03*
X382045Y373792D02*
D03*
X379745Y372092D02*
D03*
X381117Y366732D02*
D03*
X376542Y365429D02*
D03*
X370790Y362650D02*
D03*
X367445Y362163D02*
D03*
X348745Y362992D02*
D03*
X344600Y365000D02*
D03*
X335620Y386505D02*
D03*
X338442Y396448D02*
D03*
X341222Y394780D02*
D03*
X359612Y392988D02*
D03*
X336615Y394192D02*
D03*
X320015Y407692D02*
D03*
X318115Y406192D02*
D03*
X326015Y407692D02*
D03*
X328615Y394192D02*
D03*
X324615D02*
D03*
X326615D02*
D03*
X330615D02*
D03*
X320615D02*
D03*
X318115Y396192D02*
D03*
Y398192D02*
D03*
Y394192D02*
D03*
X322615D02*
D03*
X334615D02*
D03*
X332615D02*
D03*
X318115Y384392D02*
D03*
X305415Y386231D02*
D03*
X304005Y383582D02*
D03*
X324615Y382892D02*
D03*
X331004Y386811D02*
D03*
X326615Y382892D02*
D03*
X328615D02*
D03*
X330615D02*
D03*
X332615D02*
D03*
X320615D02*
D03*
X306255Y383542D02*
D03*
X308505Y383662D02*
D03*
X310655Y383622D02*
D03*
X322615Y382892D02*
D03*
X315245Y383562D02*
D03*
X312865Y383582D02*
D03*
X318115Y386392D02*
D03*
X322638Y387205D02*
D03*
D34*
X342500Y353192D02*
D03*
X362500Y412278D02*
D03*
X367500D02*
D03*
X342500D02*
D03*
X347500D02*
D03*
Y353192D02*
D03*
X337500D02*
D03*
X377500D02*
D03*
X352500D02*
D03*
X377500Y412278D02*
D03*
X352500D02*
D03*
X337500D02*
D03*
X332500D02*
D03*
X382500D02*
D03*
X357500D02*
D03*
Y353192D02*
D03*
X332500D02*
D03*
X390789Y397719D02*
D03*
Y387719D02*
D03*
X372500Y412278D02*
D03*
X390789Y382719D02*
D03*
Y377719D02*
D03*
Y372719D02*
D03*
Y367719D02*
D03*
X382500Y353192D02*
D03*
X372500D02*
D03*
X367500D02*
D03*
X362500D02*
D03*
X390789Y392719D02*
D03*
D35*
X362045Y373392D02*
D03*
Y378492D02*
D03*
Y383619D02*
D03*
X356931Y373392D02*
D03*
Y378492D02*
D03*
Y383619D02*
D03*
X351750Y373392D02*
D03*
Y378492D02*
D03*
Y383619D02*
D03*
M02*
