G04 Layer_Color=8388736*
%FSLAX25Y25*%
%MOIN*%
G70*
G01*
G75*
%ADD37R,0.02798X0.02798*%
%ADD38R,0.02600X0.02800*%
%ADD39R,0.02800X0.02600*%
%ADD40R,0.03400X0.03100*%
%ADD41C,0.02200*%
%ADD42R,0.07287X0.04137*%
%ADD43R,0.04137X0.03743*%
%ADD44R,0.03350X0.06106*%
%ADD45R,0.04137X0.04137*%
%ADD46R,0.08861X0.04334*%
%ADD47R,0.01381X0.02759*%
%ADD48R,0.02759X0.01381*%
%ADD49R,0.16735X0.16735*%
%ADD50R,0.01184X0.01184*%
%ADD51R,0.01184X0.01480*%
%ADD52C,0.01800*%
%ADD53C,0.04200*%
%ADD54C,0.02600*%
D37*
X310501Y390186D02*
D03*
X306957D02*
D03*
X310505Y393734D02*
D03*
Y390190D02*
D03*
D38*
X353900Y361400D02*
D03*
X357900D02*
D03*
X376510Y388171D02*
D03*
X380510D02*
D03*
X376489Y395967D02*
D03*
X380489D02*
D03*
X334856Y373060D02*
D03*
X338856D02*
D03*
X376323Y381870D02*
D03*
X380323D02*
D03*
X376509Y392079D02*
D03*
X380509D02*
D03*
X336673Y378798D02*
D03*
X340673D02*
D03*
X376365Y377961D02*
D03*
X380365D02*
D03*
X334627Y382676D02*
D03*
X338627D02*
D03*
X295179Y390149D02*
D03*
X299179D02*
D03*
X334776Y390256D02*
D03*
X330776D02*
D03*
D39*
X364963Y399790D02*
D03*
Y395790D02*
D03*
X338189Y386386D02*
D03*
Y390386D02*
D03*
X327264Y386287D02*
D03*
Y390287D02*
D03*
X368955Y399769D02*
D03*
Y395769D02*
D03*
X342028Y384024D02*
D03*
Y388024D02*
D03*
X291361Y386273D02*
D03*
Y390273D02*
D03*
X303061Y386231D02*
D03*
Y390231D02*
D03*
D40*
X372300Y388200D02*
D03*
Y392200D02*
D03*
D41*
X372726Y384402D02*
D03*
D42*
X293743Y357185D02*
D03*
Y376477D02*
D03*
D43*
X356541Y398388D02*
D03*
Y403506D02*
D03*
X349849Y398388D02*
D03*
Y403506D02*
D03*
D44*
X338679Y402268D02*
D03*
X344585D02*
D03*
D45*
X292743Y400744D02*
D03*
X304555D02*
D03*
D46*
X298649Y406551D02*
D03*
Y394937D02*
D03*
D47*
X348042Y367378D02*
D03*
X357884D02*
D03*
X353947D02*
D03*
X363790D02*
D03*
X355916D02*
D03*
X365758Y389622D02*
D03*
X361821D02*
D03*
X359853D02*
D03*
X357884D02*
D03*
X355916D02*
D03*
X351979D02*
D03*
X353947D02*
D03*
X350010D02*
D03*
X348042D02*
D03*
X363790D02*
D03*
X365758Y367378D02*
D03*
X361821D02*
D03*
X359853D02*
D03*
X351979D02*
D03*
X350010D02*
D03*
D48*
X345778Y371610D02*
D03*
Y373579D02*
D03*
X368022Y377516D02*
D03*
X345778Y369642D02*
D03*
X368022Y379484D02*
D03*
Y381453D02*
D03*
Y383421D02*
D03*
Y385390D02*
D03*
Y387358D02*
D03*
X345778Y383421D02*
D03*
Y387358D02*
D03*
Y385390D02*
D03*
Y379484D02*
D03*
Y381453D02*
D03*
Y377516D02*
D03*
Y375547D02*
D03*
X368022D02*
D03*
Y373579D02*
D03*
Y371610D02*
D03*
Y369642D02*
D03*
D49*
X356900Y378500D02*
D03*
D50*
X385044Y357571D02*
D03*
D51*
X324606Y390207D02*
D03*
X320669Y389075D02*
D03*
Y391339D02*
D03*
X322638D02*
D03*
Y389075D02*
D03*
D52*
X341200Y364280D02*
D03*
X342915Y371399D02*
D03*
X339802Y369519D02*
D03*
X372300Y375299D02*
D03*
X363148Y360542D02*
D03*
X345345Y362336D02*
D03*
X340438Y361869D02*
D03*
X374056Y363089D02*
D03*
X362703Y404407D02*
D03*
X362235Y393480D02*
D03*
X322975Y362392D02*
D03*
X332156Y366579D02*
D03*
X326726Y369995D02*
D03*
X329902Y376416D02*
D03*
X322975Y376392D02*
D03*
X330615Y400192D02*
D03*
X290465Y383582D02*
D03*
X328115Y357692D02*
D03*
X326115D02*
D03*
X324115D02*
D03*
X322115D02*
D03*
X320115D02*
D03*
X318115Y358392D02*
D03*
X322615Y400192D02*
D03*
X288398Y403792D02*
D03*
Y405792D02*
D03*
Y407792D02*
D03*
Y395792D02*
D03*
Y397792D02*
D03*
Y399792D02*
D03*
Y401792D02*
D03*
Y393792D02*
D03*
Y391792D02*
D03*
Y389792D02*
D03*
Y387792D02*
D03*
Y385792D02*
D03*
Y383582D02*
D03*
X301935D02*
D03*
X299815Y383642D02*
D03*
X328015Y407692D02*
D03*
X324015D02*
D03*
X322015D02*
D03*
X292743Y403652D02*
D03*
Y397852D02*
D03*
X301357Y394789D02*
D03*
X296157D02*
D03*
X298757D02*
D03*
X301357Y406489D02*
D03*
X298757D02*
D03*
X296157D02*
D03*
X312095Y409792D02*
D03*
X316095D02*
D03*
X310098D02*
D03*
X308098D02*
D03*
X306098D02*
D03*
X304098D02*
D03*
X302098D02*
D03*
X300098D02*
D03*
X298098D02*
D03*
X296098D02*
D03*
X294098D02*
D03*
X292098D02*
D03*
X290098D02*
D03*
X314035D02*
D03*
X386156Y403723D02*
D03*
Y405723D02*
D03*
Y407723D02*
D03*
Y363723D02*
D03*
Y361723D02*
D03*
Y359723D02*
D03*
X318115Y360392D02*
D03*
Y362392D02*
D03*
Y364392D02*
D03*
Y366392D02*
D03*
Y368392D02*
D03*
Y370392D02*
D03*
Y372392D02*
D03*
Y374392D02*
D03*
Y376392D02*
D03*
Y378392D02*
D03*
Y380392D02*
D03*
Y382392D02*
D03*
Y400192D02*
D03*
Y402192D02*
D03*
Y404192D02*
D03*
X368955Y401640D02*
D03*
X364900Y401661D02*
D03*
X382297Y384874D02*
D03*
X382514Y381870D02*
D03*
X334579Y378798D02*
D03*
X360119Y360941D02*
D03*
X372820Y404487D02*
D03*
X382495Y396003D02*
D03*
X382512Y392038D02*
D03*
Y388175D02*
D03*
X382025Y377995D02*
D03*
X332852Y373060D02*
D03*
X343599Y379380D02*
D03*
X379491Y401173D02*
D03*
Y403481D02*
D03*
X371054Y396300D02*
D03*
X339419Y376535D02*
D03*
X335703Y361094D02*
D03*
X378976Y369196D02*
D03*
X343452Y375306D02*
D03*
X382712Y363649D02*
D03*
X382045Y373792D02*
D03*
X379745Y372092D02*
D03*
X381117Y366732D02*
D03*
X376542Y365429D02*
D03*
X370790Y362650D02*
D03*
X367445Y362163D02*
D03*
X348745Y362992D02*
D03*
X344600Y365000D02*
D03*
X335620Y386505D02*
D03*
X338442Y396448D02*
D03*
X341222Y394780D02*
D03*
X359612Y392988D02*
D03*
X336615Y394192D02*
D03*
X320015Y407692D02*
D03*
X318115Y406192D02*
D03*
X326015Y407692D02*
D03*
X328615Y394192D02*
D03*
X324615D02*
D03*
X326615D02*
D03*
X330615D02*
D03*
X320615D02*
D03*
X318115Y396192D02*
D03*
Y398192D02*
D03*
Y394192D02*
D03*
X322615D02*
D03*
X334615D02*
D03*
X332615D02*
D03*
X318115Y384392D02*
D03*
X305415Y386231D02*
D03*
X304005Y383582D02*
D03*
X324615Y382892D02*
D03*
X331004Y386811D02*
D03*
X326615Y382892D02*
D03*
X328615D02*
D03*
X330615D02*
D03*
X332615D02*
D03*
X320615D02*
D03*
X306255Y383542D02*
D03*
X308505Y383662D02*
D03*
X310655Y383622D02*
D03*
X322615Y382892D02*
D03*
X315245Y383562D02*
D03*
X312865Y383582D02*
D03*
X318115Y386392D02*
D03*
X322638Y387205D02*
D03*
D53*
X342500Y353192D02*
D03*
X362500Y412278D02*
D03*
X367500D02*
D03*
X342500D02*
D03*
X347500D02*
D03*
Y353192D02*
D03*
X337500D02*
D03*
X377500D02*
D03*
X352500D02*
D03*
X377500Y412278D02*
D03*
X352500D02*
D03*
X337500D02*
D03*
X332500D02*
D03*
X382500D02*
D03*
X357500D02*
D03*
Y353192D02*
D03*
X332500D02*
D03*
X390789Y397719D02*
D03*
Y387719D02*
D03*
X372500Y412278D02*
D03*
X390789Y382719D02*
D03*
Y377719D02*
D03*
Y372719D02*
D03*
Y367719D02*
D03*
X382500Y353192D02*
D03*
X372500D02*
D03*
X367500D02*
D03*
X362500D02*
D03*
X390789Y392719D02*
D03*
D54*
X362045Y373392D02*
D03*
Y378492D02*
D03*
Y383619D02*
D03*
X356931Y373392D02*
D03*
Y378492D02*
D03*
Y383619D02*
D03*
X351750Y373392D02*
D03*
Y378492D02*
D03*
Y383619D02*
D03*
M02*
