G04 Layer_Physical_Order=2*
G04 Layer_Color=36540*
%FSLAX25Y25*%
%MOIN*%
G70*
G01*
G75*
%ADD27C,0.00600*%
%ADD28C,0.01200*%
%ADD33C,0.01600*%
%ADD34C,0.04000*%
%ADD35C,0.02400*%
G36*
X359813Y410537D02*
X359975Y410310D01*
X360156Y410097D01*
X360355Y409901D01*
X360570Y409723D01*
X360800Y409564D01*
X361043Y409427D01*
X361297Y409311D01*
X361560Y409217D01*
X361831Y409147D01*
X362106Y409100D01*
X362385Y409078D01*
X362664Y409080D01*
X362942Y409107D01*
X363217Y409157D01*
X363486Y409232D01*
X363748Y409329D01*
X364000Y409449D01*
X364241Y409591D01*
X364468Y409753D01*
X364681Y409934D01*
X364722Y409973D01*
X364722Y409973D01*
X364748Y409996D01*
X364776Y410017D01*
X364806Y410035D01*
X364837Y410050D01*
X364870Y410063D01*
X364903Y410073D01*
X364937Y410080D01*
X364972Y410084D01*
X365007Y410085D01*
X365042Y410083D01*
X365076Y410078D01*
X365110Y410070D01*
X365143Y410058D01*
X365175Y410044D01*
X365206Y410028D01*
X365235Y410009D01*
X365263Y409987D01*
X365278Y409973D01*
X365278Y409973D01*
X365487Y409788D01*
X365712Y409622D01*
X365950Y409476D01*
X366200Y409352D01*
X366460Y409249D01*
X366728Y409170D01*
X367002Y409115D01*
X367279Y409084D01*
X367559Y409076D01*
X367838Y409094D01*
X368114Y409135D01*
X368385Y409201D01*
X368650Y409290D01*
X368906Y409401D01*
X369152Y409535D01*
X369384Y409689D01*
X369603Y409863D01*
X369722Y409973D01*
X369722Y409973D01*
X369748Y409996D01*
X369776Y410017D01*
X369806Y410035D01*
X369837Y410050D01*
X369870Y410063D01*
X369903Y410073D01*
X369937Y410080D01*
X369972Y410084D01*
X370007Y410085D01*
X370042Y410083D01*
X370076Y410078D01*
X370110Y410070D01*
X370143Y410058D01*
X370175Y410044D01*
X370206Y410028D01*
X370235Y410009D01*
X370263Y409987D01*
X370278Y409973D01*
X370278Y409973D01*
X370487Y409788D01*
X370712Y409622D01*
X370950Y409476D01*
X371200Y409352D01*
X371460Y409249D01*
X371728Y409170D01*
X372002Y409115D01*
X372279Y409084D01*
X372559Y409076D01*
X372837Y409094D01*
X373114Y409135D01*
X373385Y409201D01*
X373650Y409290D01*
X373906Y409401D01*
X374152Y409535D01*
X374384Y409689D01*
X374603Y409863D01*
X374722Y409973D01*
X374722Y409973D01*
X374748Y409996D01*
X374776Y410017D01*
X374806Y410035D01*
X374837Y410050D01*
X374870Y410063D01*
X374903Y410073D01*
X374938Y410080D01*
X374972Y410084D01*
X375007Y410085D01*
X375042Y410083D01*
X375076Y410078D01*
X375110Y410070D01*
X375143Y410058D01*
X375175Y410044D01*
X375206Y410028D01*
X375235Y410009D01*
X375262Y409987D01*
X375278Y409973D01*
X375278Y409973D01*
X375487Y409788D01*
X375712Y409622D01*
X375950Y409476D01*
X376200Y409352D01*
X376460Y409249D01*
X376728Y409170D01*
X377002Y409115D01*
X377279Y409084D01*
X377559Y409076D01*
X377837Y409094D01*
X378114Y409135D01*
X378385Y409201D01*
X378650Y409290D01*
X378906Y409401D01*
X379152Y409535D01*
X379384Y409689D01*
X379603Y409863D01*
X379805Y410056D01*
X379990Y410265D01*
X380156Y410490D01*
X380302Y410728D01*
X380329Y410778D01*
X389289D01*
Y400548D01*
X389289Y400548D01*
X389048Y400406D01*
X388821Y400245D01*
X388608Y400063D01*
X388412Y399864D01*
X388234Y399649D01*
X388075Y399419D01*
X387938Y399176D01*
X387822Y398922D01*
X387728Y398659D01*
X387658Y398388D01*
X387611Y398113D01*
X387589Y397834D01*
X387591Y397555D01*
X387618Y397277D01*
X387668Y397002D01*
X387743Y396733D01*
X387840Y396471D01*
X387960Y396219D01*
X388102Y395978D01*
X388264Y395751D01*
X388445Y395538D01*
X388484Y395497D01*
X388484Y395497D01*
X388507Y395471D01*
X388528Y395443D01*
X388546Y395413D01*
X388562Y395382D01*
X388574Y395349D01*
X388584Y395316D01*
X388591Y395282D01*
X388595Y395247D01*
X388596Y395212D01*
X388594Y395177D01*
X388589Y395143D01*
X388580Y395109D01*
X388569Y395076D01*
X388556Y395044D01*
X388539Y395013D01*
X388520Y394984D01*
X388498Y394956D01*
X388484Y394941D01*
X388484Y394941D01*
X388299Y394732D01*
X388133Y394507D01*
X387987Y394269D01*
X387863Y394019D01*
X387760Y393759D01*
X387681Y393491D01*
X387626Y393217D01*
X387595Y392940D01*
X387587Y392660D01*
X387605Y392382D01*
X387646Y392105D01*
X387712Y391834D01*
X387801Y391569D01*
X387912Y391313D01*
X388046Y391067D01*
X388200Y390835D01*
X388374Y390616D01*
X388484Y390497D01*
X388484Y390497D01*
X388507Y390471D01*
X388528Y390443D01*
X388546Y390413D01*
X388562Y390382D01*
X388574Y390349D01*
X388584Y390316D01*
X388591Y390282D01*
X388595Y390247D01*
X388596Y390212D01*
X388594Y390177D01*
X388589Y390143D01*
X388580Y390109D01*
X388569Y390076D01*
X388556Y390044D01*
X388539Y390013D01*
X388520Y389984D01*
X388498Y389956D01*
X388484Y389941D01*
X388484Y389941D01*
X388299Y389732D01*
X388133Y389507D01*
X387987Y389269D01*
X387863Y389019D01*
X387760Y388759D01*
X387681Y388491D01*
X387626Y388217D01*
X387595Y387940D01*
X387587Y387660D01*
X387605Y387382D01*
X387646Y387105D01*
X387712Y386834D01*
X387801Y386569D01*
X387912Y386313D01*
X388046Y386067D01*
X388200Y385835D01*
X388374Y385616D01*
X388484Y385497D01*
X388484Y385497D01*
X388507Y385471D01*
X388528Y385443D01*
X388546Y385413D01*
X388562Y385382D01*
X388574Y385349D01*
X388584Y385316D01*
X388591Y385281D01*
X388595Y385247D01*
X388596Y385212D01*
X388594Y385177D01*
X388589Y385143D01*
X388580Y385109D01*
X388569Y385076D01*
X388556Y385044D01*
X388539Y385013D01*
X388520Y384984D01*
X388498Y384957D01*
X388484Y384941D01*
X388484Y384941D01*
X388299Y384732D01*
X388133Y384507D01*
X387987Y384269D01*
X387863Y384019D01*
X387760Y383759D01*
X387681Y383491D01*
X387626Y383217D01*
X387595Y382940D01*
X387587Y382660D01*
X387605Y382382D01*
X387646Y382105D01*
X387712Y381834D01*
X387801Y381569D01*
X387912Y381313D01*
X388046Y381067D01*
X388200Y380835D01*
X388374Y380616D01*
X388484Y380497D01*
X388484Y380497D01*
X388507Y380471D01*
X388528Y380443D01*
X388546Y380413D01*
X388562Y380382D01*
X388574Y380349D01*
X388584Y380316D01*
X388591Y380281D01*
X388595Y380247D01*
X388596Y380212D01*
X388594Y380177D01*
X388589Y380143D01*
X388580Y380109D01*
X388569Y380076D01*
X388556Y380044D01*
X388539Y380013D01*
X388520Y379984D01*
X388498Y379957D01*
X388484Y379941D01*
X388484Y379941D01*
X388299Y379732D01*
X388133Y379507D01*
X387987Y379269D01*
X387863Y379019D01*
X387760Y378759D01*
X387681Y378491D01*
X387626Y378217D01*
X387595Y377940D01*
X387587Y377660D01*
X387605Y377381D01*
X387646Y377105D01*
X387712Y376834D01*
X387801Y376569D01*
X387912Y376313D01*
X388046Y376067D01*
X388200Y375835D01*
X388374Y375616D01*
X388484Y375497D01*
X388484Y375497D01*
X388507Y375471D01*
X388528Y375443D01*
X388546Y375413D01*
X388562Y375382D01*
X388574Y375349D01*
X388584Y375316D01*
X388591Y375282D01*
X388595Y375247D01*
X388596Y375212D01*
X388594Y375177D01*
X388589Y375143D01*
X388580Y375109D01*
X388569Y375076D01*
X388556Y375044D01*
X388539Y375013D01*
X388520Y374984D01*
X388498Y374956D01*
X388484Y374941D01*
X388484Y374941D01*
X388299Y374732D01*
X388133Y374507D01*
X387987Y374269D01*
X387863Y374019D01*
X387760Y373759D01*
X387681Y373491D01*
X387626Y373217D01*
X387595Y372940D01*
X387587Y372660D01*
X387605Y372381D01*
X387646Y372105D01*
X387712Y371834D01*
X387801Y371569D01*
X387912Y371313D01*
X388046Y371067D01*
X388200Y370835D01*
X388374Y370616D01*
X388484Y370497D01*
X388484Y370497D01*
X388507Y370471D01*
X388528Y370443D01*
X388546Y370413D01*
X388562Y370382D01*
X388574Y370349D01*
X388584Y370316D01*
X388591Y370282D01*
X388595Y370247D01*
X388596Y370212D01*
X388594Y370177D01*
X388589Y370143D01*
X388580Y370109D01*
X388569Y370076D01*
X388556Y370044D01*
X388539Y370013D01*
X388520Y369984D01*
X388498Y369956D01*
X388484Y369941D01*
X388484Y369941D01*
X388299Y369732D01*
X388133Y369507D01*
X387987Y369269D01*
X387863Y369019D01*
X387760Y368759D01*
X387681Y368491D01*
X387626Y368217D01*
X387595Y367940D01*
X387587Y367660D01*
X387605Y367382D01*
X387646Y367105D01*
X387712Y366834D01*
X387801Y366569D01*
X387912Y366313D01*
X388046Y366067D01*
X388200Y365835D01*
X388374Y365616D01*
X388567Y365414D01*
X388776Y365229D01*
X389001Y365063D01*
X389239Y364917D01*
X389289Y364890D01*
Y354692D01*
X385329D01*
X385329Y354692D01*
X385187Y354933D01*
X385026Y355160D01*
X384844Y355373D01*
X384645Y355569D01*
X384430Y355747D01*
X384200Y355906D01*
X383957Y356043D01*
X383703Y356159D01*
X383440Y356253D01*
X383169Y356323D01*
X382894Y356370D01*
X382615Y356392D01*
X382336Y356390D01*
X382058Y356363D01*
X381783Y356313D01*
X381514Y356238D01*
X381252Y356141D01*
X381000Y356021D01*
X380759Y355879D01*
X380532Y355717D01*
X380319Y355536D01*
X380278Y355497D01*
X380278Y355497D01*
X380252Y355474D01*
X380224Y355453D01*
X380194Y355435D01*
X380163Y355419D01*
X380130Y355407D01*
X380097Y355397D01*
X380063Y355390D01*
X380028Y355386D01*
X379993Y355385D01*
X379958Y355387D01*
X379924Y355392D01*
X379890Y355400D01*
X379857Y355412D01*
X379825Y355426D01*
X379794Y355442D01*
X379765Y355461D01*
X379737Y355483D01*
X379722Y355497D01*
X379722Y355497D01*
X379513Y355682D01*
X379288Y355848D01*
X379050Y355994D01*
X378800Y356118D01*
X378540Y356221D01*
X378272Y356300D01*
X377998Y356355D01*
X377721Y356386D01*
X377441Y356394D01*
X377163Y356376D01*
X376886Y356335D01*
X376615Y356269D01*
X376350Y356180D01*
X376094Y356069D01*
X375848Y355935D01*
X375616Y355781D01*
X375397Y355607D01*
X375278Y355497D01*
X375278Y355497D01*
X375252Y355474D01*
X375224Y355453D01*
X375194Y355435D01*
X375163Y355419D01*
X375130Y355407D01*
X375097Y355397D01*
X375062Y355390D01*
X375028Y355386D01*
X374993Y355385D01*
X374958Y355387D01*
X374924Y355392D01*
X374890Y355400D01*
X374857Y355412D01*
X374825Y355426D01*
X374794Y355442D01*
X374765Y355461D01*
X374738Y355483D01*
X374722Y355497D01*
X374722Y355497D01*
X374513Y355682D01*
X374288Y355848D01*
X374050Y355994D01*
X373800Y356118D01*
X373540Y356221D01*
X373272Y356300D01*
X372998Y356355D01*
X372721Y356386D01*
X372441Y356394D01*
X372163Y356376D01*
X371886Y356335D01*
X371615Y356269D01*
X371350Y356180D01*
X371094Y356069D01*
X370848Y355935D01*
X370616Y355781D01*
X370397Y355607D01*
X370278Y355497D01*
X370278Y355497D01*
X370252Y355474D01*
X370224Y355453D01*
X370194Y355435D01*
X370163Y355419D01*
X370130Y355407D01*
X370097Y355397D01*
X370062Y355390D01*
X370028Y355386D01*
X369993Y355385D01*
X369958Y355387D01*
X369924Y355392D01*
X369890Y355400D01*
X369857Y355412D01*
X369825Y355426D01*
X369794Y355442D01*
X369765Y355461D01*
X369738Y355483D01*
X369722Y355497D01*
X369722Y355497D01*
X369513Y355682D01*
X369288Y355848D01*
X369050Y355994D01*
X368800Y356118D01*
X368540Y356221D01*
X368272Y356300D01*
X367998Y356355D01*
X367721Y356386D01*
X367441Y356394D01*
X367162Y356376D01*
X366886Y356335D01*
X366615Y356269D01*
X366350Y356180D01*
X366094Y356069D01*
X365848Y355935D01*
X365616Y355781D01*
X365397Y355607D01*
X365278Y355497D01*
X365278Y355497D01*
X365252Y355474D01*
X365224Y355453D01*
X365194Y355435D01*
X365163Y355419D01*
X365130Y355407D01*
X365097Y355397D01*
X365062Y355390D01*
X365028Y355386D01*
X364993Y355385D01*
X364958Y355387D01*
X364924Y355392D01*
X364890Y355400D01*
X364857Y355412D01*
X364825Y355426D01*
X364794Y355442D01*
X364765Y355461D01*
X364738Y355483D01*
X364722Y355497D01*
X364722Y355497D01*
X364513Y355682D01*
X364288Y355848D01*
X364050Y355994D01*
X363800Y356118D01*
X363540Y356221D01*
X363272Y356300D01*
X362998Y356355D01*
X362721Y356386D01*
X362441Y356394D01*
X362162Y356376D01*
X361886Y356335D01*
X361615Y356269D01*
X361350Y356180D01*
X361094Y356069D01*
X360848Y355935D01*
X360616Y355781D01*
X360397Y355607D01*
X360195Y355414D01*
X360010Y355205D01*
X359844Y354980D01*
X359698Y354742D01*
X359671Y354692D01*
X355329D01*
X355329Y354692D01*
X355187Y354933D01*
X355026Y355160D01*
X354844Y355373D01*
X354645Y355569D01*
X354430Y355747D01*
X354200Y355906D01*
X353957Y356043D01*
X353703Y356159D01*
X353440Y356253D01*
X353169Y356323D01*
X352894Y356370D01*
X352615Y356392D01*
X352336Y356390D01*
X352058Y356363D01*
X351783Y356313D01*
X351514Y356238D01*
X351252Y356141D01*
X351000Y356021D01*
X350759Y355879D01*
X350532Y355717D01*
X350319Y355536D01*
X350278Y355497D01*
X350278Y355497D01*
X350252Y355474D01*
X350224Y355453D01*
X350194Y355435D01*
X350163Y355419D01*
X350130Y355407D01*
X350097Y355397D01*
X350062Y355390D01*
X350028Y355386D01*
X349993Y355385D01*
X349958Y355387D01*
X349924Y355392D01*
X349890Y355400D01*
X349857Y355412D01*
X349825Y355426D01*
X349794Y355442D01*
X349765Y355461D01*
X349738Y355483D01*
X349722Y355497D01*
X349722Y355497D01*
X349513Y355682D01*
X349288Y355848D01*
X349050Y355994D01*
X348800Y356118D01*
X348540Y356221D01*
X348272Y356300D01*
X347998Y356355D01*
X347721Y356386D01*
X347441Y356394D01*
X347163Y356376D01*
X346886Y356335D01*
X346615Y356269D01*
X346350Y356180D01*
X346094Y356069D01*
X345848Y355935D01*
X345616Y355781D01*
X345397Y355607D01*
X345278Y355497D01*
X345278Y355497D01*
X345252Y355474D01*
X345224Y355453D01*
X345194Y355435D01*
X345163Y355419D01*
X345130Y355407D01*
X345097Y355397D01*
X345062Y355390D01*
X345028Y355386D01*
X344993Y355385D01*
X344958Y355387D01*
X344924Y355392D01*
X344890Y355400D01*
X344857Y355412D01*
X344825Y355426D01*
X344794Y355442D01*
X344765Y355461D01*
X344738Y355483D01*
X344722Y355497D01*
X344722Y355497D01*
X344513Y355682D01*
X344288Y355848D01*
X344050Y355994D01*
X343800Y356118D01*
X343540Y356221D01*
X343272Y356300D01*
X342998Y356355D01*
X342721Y356386D01*
X342441Y356394D01*
X342162Y356376D01*
X341886Y356335D01*
X341615Y356269D01*
X341350Y356180D01*
X341094Y356069D01*
X340848Y355935D01*
X340616Y355781D01*
X340397Y355607D01*
X340278Y355497D01*
X340278Y355497D01*
X340252Y355474D01*
X340224Y355453D01*
X340194Y355435D01*
X340163Y355419D01*
X340130Y355407D01*
X340097Y355397D01*
X340062Y355390D01*
X340028Y355386D01*
X339993Y355385D01*
X339958Y355387D01*
X339924Y355392D01*
X339890Y355400D01*
X339857Y355412D01*
X339825Y355426D01*
X339794Y355442D01*
X339765Y355461D01*
X339738Y355483D01*
X339722Y355497D01*
X339722Y355497D01*
X339513Y355682D01*
X339288Y355848D01*
X339050Y355994D01*
X338800Y356118D01*
X338540Y356221D01*
X338272Y356300D01*
X337998Y356355D01*
X337721Y356386D01*
X337441Y356394D01*
X337162Y356376D01*
X336886Y356335D01*
X336615Y356269D01*
X336350Y356180D01*
X336094Y356069D01*
X335848Y355935D01*
X335616Y355781D01*
X335397Y355607D01*
X335278Y355497D01*
X335278Y355497D01*
X335252Y355474D01*
X335224Y355453D01*
X335194Y355435D01*
X335163Y355419D01*
X335130Y355407D01*
X335097Y355397D01*
X335063Y355390D01*
X335028Y355386D01*
X334993Y355385D01*
X334958Y355387D01*
X334924Y355392D01*
X334890Y355400D01*
X334857Y355412D01*
X334825Y355426D01*
X334794Y355442D01*
X334765Y355461D01*
X334737Y355483D01*
X334722Y355497D01*
X334722Y355497D01*
X334513Y355682D01*
X334288Y355848D01*
X334050Y355994D01*
X333800Y356118D01*
X333540Y356221D01*
X333272Y356300D01*
X332998Y356355D01*
X332721Y356386D01*
X332441Y356394D01*
X332162Y356376D01*
X331886Y356335D01*
X331615Y356269D01*
X331350Y356180D01*
X331094Y356069D01*
X330848Y355935D01*
X330616Y355781D01*
X330397Y355607D01*
X330195Y355414D01*
X330010Y355205D01*
X329844Y354980D01*
X329698Y354742D01*
X329671Y354692D01*
X317115D01*
Y382747D01*
X287400D01*
Y410778D01*
X329671D01*
X329671Y410778D01*
X329813Y410537D01*
X329975Y410310D01*
X330156Y410097D01*
X330355Y409901D01*
X330570Y409723D01*
X330800Y409564D01*
X331043Y409427D01*
X331297Y409311D01*
X331560Y409217D01*
X331831Y409147D01*
X332106Y409100D01*
X332384Y409078D01*
X332664Y409080D01*
X332942Y409107D01*
X333217Y409157D01*
X333486Y409232D01*
X333748Y409329D01*
X334000Y409449D01*
X334241Y409591D01*
X334468Y409753D01*
X334681Y409934D01*
X334722Y409973D01*
X334722Y409973D01*
X334748Y409996D01*
X334776Y410017D01*
X334806Y410035D01*
X334837Y410050D01*
X334870Y410063D01*
X334903Y410073D01*
X334938Y410080D01*
X334972Y410084D01*
X335007Y410085D01*
X335042Y410083D01*
X335076Y410078D01*
X335110Y410070D01*
X335143Y410058D01*
X335175Y410044D01*
X335206Y410028D01*
X335235Y410009D01*
X335262Y409987D01*
X335278Y409973D01*
X335278Y409973D01*
X335487Y409788D01*
X335712Y409622D01*
X335950Y409476D01*
X336200Y409352D01*
X336460Y409249D01*
X336728Y409170D01*
X337002Y409115D01*
X337279Y409084D01*
X337559Y409076D01*
X337838Y409094D01*
X338114Y409135D01*
X338385Y409201D01*
X338650Y409290D01*
X338906Y409401D01*
X339152Y409535D01*
X339384Y409689D01*
X339603Y409863D01*
X339722Y409973D01*
X339722Y409973D01*
X339748Y409996D01*
X339776Y410017D01*
X339806Y410035D01*
X339837Y410050D01*
X339870Y410063D01*
X339903Y410073D01*
X339937Y410080D01*
X339972Y410084D01*
X340007Y410085D01*
X340042Y410083D01*
X340076Y410078D01*
X340110Y410070D01*
X340143Y410058D01*
X340175Y410044D01*
X340206Y410028D01*
X340235Y410009D01*
X340263Y409987D01*
X340278Y409973D01*
X340278Y409973D01*
X340487Y409788D01*
X340712Y409622D01*
X340950Y409476D01*
X341200Y409352D01*
X341460Y409249D01*
X341728Y409170D01*
X342002Y409115D01*
X342279Y409084D01*
X342559Y409076D01*
X342838Y409094D01*
X343114Y409135D01*
X343385Y409201D01*
X343650Y409290D01*
X343906Y409401D01*
X344152Y409535D01*
X344384Y409689D01*
X344603Y409863D01*
X344722Y409973D01*
X344722Y409973D01*
X344748Y409996D01*
X344776Y410017D01*
X344806Y410035D01*
X344837Y410050D01*
X344870Y410063D01*
X344903Y410073D01*
X344937Y410080D01*
X344972Y410084D01*
X345007Y410085D01*
X345042Y410083D01*
X345076Y410078D01*
X345110Y410070D01*
X345143Y410058D01*
X345175Y410044D01*
X345206Y410028D01*
X345235Y410009D01*
X345263Y409987D01*
X345278Y409973D01*
X345278Y409973D01*
X345487Y409788D01*
X345712Y409622D01*
X345950Y409476D01*
X346200Y409352D01*
X346460Y409249D01*
X346728Y409170D01*
X347002Y409115D01*
X347279Y409084D01*
X347559Y409076D01*
X347837Y409094D01*
X348114Y409135D01*
X348385Y409201D01*
X348650Y409290D01*
X348906Y409401D01*
X349152Y409535D01*
X349384Y409689D01*
X349603Y409863D01*
X349722Y409973D01*
X349722Y409973D01*
X349748Y409996D01*
X349776Y410017D01*
X349806Y410035D01*
X349837Y410050D01*
X349870Y410063D01*
X349903Y410073D01*
X349938Y410080D01*
X349972Y410084D01*
X350007Y410085D01*
X350042Y410083D01*
X350076Y410078D01*
X350110Y410070D01*
X350143Y410058D01*
X350175Y410044D01*
X350206Y410028D01*
X350235Y410009D01*
X350262Y409987D01*
X350278Y409973D01*
X350278Y409973D01*
X350487Y409788D01*
X350712Y409622D01*
X350950Y409476D01*
X351200Y409352D01*
X351460Y409249D01*
X351728Y409170D01*
X352002Y409115D01*
X352279Y409084D01*
X352559Y409076D01*
X352837Y409094D01*
X353114Y409135D01*
X353385Y409201D01*
X353650Y409290D01*
X353906Y409401D01*
X354152Y409535D01*
X354384Y409689D01*
X354603Y409863D01*
X354805Y410056D01*
X354990Y410265D01*
X355156Y410490D01*
X355302Y410728D01*
X355329Y410778D01*
X359671D01*
X359671Y410778D01*
X359813Y410537D01*
D02*
G37*
%LPC*%
G36*
X342915Y373234D02*
X342213Y373095D01*
X341617Y372697D01*
X341219Y372101D01*
X341080Y371399D01*
X341219Y370697D01*
X341617Y370101D01*
X342213Y369703D01*
X342915Y369564D01*
X343617Y369703D01*
X344213Y370101D01*
X344611Y370697D01*
X344750Y371399D01*
X344611Y372101D01*
X344213Y372697D01*
X343617Y373095D01*
X342915Y373234D01*
D02*
G37*
G36*
X339802Y371354D02*
X339100Y371215D01*
X338504Y370817D01*
X338106Y370221D01*
X337967Y369519D01*
X338106Y368817D01*
X338504Y368221D01*
X339100Y367823D01*
X339802Y367684D01*
X340504Y367823D01*
X341100Y368221D01*
X341498Y368817D01*
X341637Y369519D01*
X341498Y370221D01*
X341100Y370817D01*
X340504Y371215D01*
X339802Y371354D01*
D02*
G37*
G36*
X343452Y377141D02*
X342750Y377002D01*
X342154Y376604D01*
X341756Y376008D01*
X341617Y375306D01*
X341756Y374604D01*
X342154Y374008D01*
X342750Y373610D01*
X343452Y373471D01*
X344154Y373610D01*
X344750Y374008D01*
X345148Y374604D01*
X345287Y375306D01*
X345148Y376008D01*
X344750Y376604D01*
X344154Y377002D01*
X343452Y377141D01*
D02*
G37*
G36*
X372300Y377340D02*
X371519Y377185D01*
X370857Y376742D01*
X370414Y376080D01*
X370259Y375299D01*
X370414Y374518D01*
X370857Y373856D01*
X371519Y373413D01*
X372300Y373258D01*
X373081Y373413D01*
X373743Y373856D01*
X374186Y374518D01*
X374341Y375299D01*
X374186Y376080D01*
X373743Y376742D01*
X373081Y377185D01*
X372300Y377340D01*
D02*
G37*
G36*
X335703Y363135D02*
X334922Y362980D01*
X334260Y362537D01*
X333817Y361875D01*
X333662Y361094D01*
X333817Y360313D01*
X334260Y359651D01*
X334922Y359208D01*
X335703Y359053D01*
X336484Y359208D01*
X337146Y359651D01*
X337589Y360313D01*
X337744Y361094D01*
X337589Y361875D01*
X337146Y362537D01*
X336484Y362980D01*
X335703Y363135D01*
D02*
G37*
G36*
X363148Y362583D02*
X362367Y362428D01*
X361705Y361985D01*
X361262Y361323D01*
X361107Y360542D01*
X361262Y359761D01*
X361705Y359099D01*
X362367Y358656D01*
X363148Y358501D01*
X363929Y358656D01*
X364591Y359099D01*
X365034Y359761D01*
X365189Y360542D01*
X365034Y361323D01*
X364591Y361985D01*
X363929Y362428D01*
X363148Y362583D01*
D02*
G37*
G36*
X344600Y366835D02*
X343898Y366696D01*
X343302Y366298D01*
X342904Y365702D01*
X342792Y365137D01*
X342498Y365578D01*
X341902Y365976D01*
X341200Y366115D01*
X340498Y365976D01*
X339902Y365578D01*
X339504Y364982D01*
X339365Y364280D01*
X339504Y363578D01*
X339582Y363462D01*
X339140Y363167D01*
X338742Y362571D01*
X338603Y361869D01*
X338742Y361167D01*
X339140Y360571D01*
X339736Y360173D01*
X340438Y360034D01*
X341140Y360173D01*
X341736Y360571D01*
X342134Y361167D01*
X342273Y361869D01*
X342134Y362571D01*
X342056Y362687D01*
X342498Y362982D01*
X342896Y363578D01*
X343008Y364143D01*
X343302Y363702D01*
X343849Y363337D01*
X343649Y363038D01*
X343510Y362336D01*
X343649Y361634D01*
X344047Y361038D01*
X344643Y360640D01*
X345345Y360501D01*
X346047Y360640D01*
X346643Y361038D01*
X347041Y361634D01*
X347143Y362149D01*
X347447Y361694D01*
X348043Y361296D01*
X348745Y361157D01*
X349447Y361296D01*
X350043Y361694D01*
X350441Y362290D01*
X350580Y362992D01*
X350441Y363694D01*
X350043Y364290D01*
X349447Y364688D01*
X348745Y364827D01*
X348043Y364688D01*
X347447Y364290D01*
X347049Y363694D01*
X346947Y363179D01*
X346643Y363634D01*
X346096Y363999D01*
X346296Y364298D01*
X346435Y365000D01*
X346296Y365702D01*
X345898Y366298D01*
X345302Y366696D01*
X344600Y366835D01*
D02*
G37*
G36*
X376542Y367264D02*
X375840Y367125D01*
X375244Y366727D01*
X374846Y366131D01*
X374707Y365429D01*
X374846Y364727D01*
X374848Y364725D01*
X374758Y364785D01*
X374056Y364924D01*
X373354Y364785D01*
X372758Y364387D01*
X372360Y363791D01*
X372322Y363597D01*
X372088Y363948D01*
X371492Y364346D01*
X370790Y364485D01*
X370088Y364346D01*
X369492Y363948D01*
X369094Y363352D01*
X369030Y363030D01*
X368743Y363461D01*
X368147Y363859D01*
X367445Y363998D01*
X366743Y363859D01*
X366147Y363461D01*
X365749Y362865D01*
X365610Y362163D01*
X365749Y361461D01*
X366147Y360865D01*
X366743Y360467D01*
X367445Y360328D01*
X368147Y360467D01*
X368743Y360865D01*
X369141Y361461D01*
X369205Y361783D01*
X369492Y361352D01*
X370088Y360954D01*
X370790Y360815D01*
X371492Y360954D01*
X372088Y361352D01*
X372486Y361948D01*
X372524Y362142D01*
X372758Y361791D01*
X373354Y361393D01*
X374056Y361254D01*
X374758Y361393D01*
X375354Y361791D01*
X375752Y362387D01*
X375891Y363089D01*
X375752Y363791D01*
X375750Y363793D01*
X375840Y363733D01*
X376542Y363594D01*
X377244Y363733D01*
X377840Y364131D01*
X378238Y364727D01*
X378377Y365429D01*
X378238Y366131D01*
X377840Y366727D01*
X377244Y367125D01*
X376542Y367264D01*
D02*
G37*
G36*
X362235Y395315D02*
X361533Y395176D01*
X360937Y394778D01*
X360701Y394425D01*
X360314Y394684D01*
X359612Y394823D01*
X358910Y394684D01*
X358314Y394286D01*
X357916Y393690D01*
X357777Y392988D01*
X357916Y392286D01*
X358314Y391690D01*
X358910Y391292D01*
X359612Y391153D01*
X360314Y391292D01*
X360910Y391690D01*
X361145Y392043D01*
X361533Y391784D01*
X362235Y391645D01*
X362937Y391784D01*
X363533Y392182D01*
X363931Y392778D01*
X364070Y393480D01*
X363931Y394182D01*
X363533Y394778D01*
X362937Y395176D01*
X362235Y395315D01*
D02*
G37*
G36*
X371054Y398341D02*
X370273Y398186D01*
X369611Y397743D01*
X369168Y397081D01*
X369013Y396300D01*
X369168Y395519D01*
X369611Y394857D01*
X370273Y394414D01*
X371054Y394259D01*
X371835Y394414D01*
X372497Y394857D01*
X372940Y395519D01*
X373095Y396300D01*
X372940Y397081D01*
X372497Y397743D01*
X371835Y398186D01*
X371054Y398341D01*
D02*
G37*
G36*
X362703Y406448D02*
X361922Y406293D01*
X361260Y405850D01*
X360817Y405188D01*
X360662Y404407D01*
X360817Y403626D01*
X361260Y402964D01*
X361922Y402521D01*
X362703Y402366D01*
X363484Y402521D01*
X364146Y402964D01*
X364589Y403626D01*
X364744Y404407D01*
X364589Y405188D01*
X364146Y405850D01*
X363484Y406293D01*
X362703Y406448D01*
D02*
G37*
G36*
X379491Y405316D02*
X378789Y405177D01*
X378193Y404779D01*
X377795Y404183D01*
X377656Y403481D01*
X377795Y402779D01*
X378097Y402327D01*
X377795Y401875D01*
X377656Y401173D01*
X377795Y400471D01*
X378193Y399875D01*
X378789Y399477D01*
X379491Y399338D01*
X380193Y399477D01*
X380789Y399875D01*
X381187Y400471D01*
X381326Y401173D01*
X381187Y401875D01*
X380885Y402327D01*
X381187Y402779D01*
X381326Y403481D01*
X381187Y404183D01*
X380789Y404779D01*
X380193Y405177D01*
X379491Y405316D01*
D02*
G37*
G36*
X339419Y378370D02*
X338717Y378231D01*
X338121Y377833D01*
X337723Y377237D01*
X337584Y376535D01*
X337723Y375833D01*
X338121Y375237D01*
X338717Y374839D01*
X339419Y374700D01*
X340121Y374839D01*
X340717Y375237D01*
X341115Y375833D01*
X341254Y376535D01*
X341115Y377237D01*
X340717Y377833D01*
X340121Y378231D01*
X339419Y378370D01*
D02*
G37*
G36*
X382045Y375627D02*
X381343Y375488D01*
X380747Y375090D01*
X380349Y374494D01*
X380218Y373833D01*
X379745Y373927D01*
X379043Y373788D01*
X378447Y373390D01*
X378049Y372794D01*
X377910Y372092D01*
X378049Y371390D01*
X378369Y370911D01*
X378274Y370892D01*
X377678Y370494D01*
X377280Y369898D01*
X377141Y369196D01*
X377280Y368494D01*
X377678Y367898D01*
X378274Y367500D01*
X378976Y367361D01*
X379433Y367452D01*
X379421Y367434D01*
X379282Y366732D01*
X379421Y366030D01*
X379819Y365434D01*
X380415Y365036D01*
X381117Y364897D01*
X381434Y364960D01*
X381414Y364947D01*
X381016Y364351D01*
X380877Y363649D01*
X381016Y362947D01*
X381414Y362351D01*
X382010Y361953D01*
X382712Y361814D01*
X383414Y361953D01*
X384010Y362351D01*
X384408Y362947D01*
X384547Y363649D01*
X384408Y364351D01*
X384010Y364947D01*
X383414Y365345D01*
X382712Y365484D01*
X382395Y365421D01*
X382415Y365434D01*
X382813Y366030D01*
X382952Y366732D01*
X382813Y367434D01*
X382415Y368030D01*
X381819Y368428D01*
X381117Y368567D01*
X380660Y368476D01*
X380672Y368494D01*
X380811Y369196D01*
X380672Y369898D01*
X380351Y370377D01*
X380447Y370396D01*
X381043Y370794D01*
X381441Y371390D01*
X381572Y372051D01*
X382045Y371957D01*
X382747Y372096D01*
X383343Y372494D01*
X383741Y373090D01*
X383880Y373792D01*
X383741Y374494D01*
X383343Y375090D01*
X382747Y375488D01*
X382045Y375627D01*
D02*
G37*
G36*
X338442Y398283D02*
X337740Y398144D01*
X337144Y397746D01*
X336746Y397150D01*
X336607Y396448D01*
X336746Y395746D01*
X337144Y395150D01*
X337740Y394752D01*
X338442Y394613D01*
X339144Y394752D01*
X339418Y394935D01*
X339387Y394780D01*
X339526Y394078D01*
X339924Y393482D01*
X340520Y393084D01*
X341222Y392945D01*
X341924Y393084D01*
X342520Y393482D01*
X342918Y394078D01*
X343057Y394780D01*
X342918Y395482D01*
X342520Y396078D01*
X341924Y396476D01*
X341222Y396615D01*
X340520Y396476D01*
X340246Y396293D01*
X340277Y396448D01*
X340138Y397150D01*
X339740Y397746D01*
X339144Y398144D01*
X338442Y398283D01*
D02*
G37*
G36*
X343599Y381215D02*
X342897Y381076D01*
X342301Y380678D01*
X341903Y380082D01*
X341764Y379380D01*
X341903Y378678D01*
X342301Y378082D01*
X342897Y377684D01*
X343599Y377545D01*
X344301Y377684D01*
X344897Y378082D01*
X345295Y378678D01*
X345434Y379380D01*
X345295Y380082D01*
X344897Y380678D01*
X344301Y381076D01*
X343599Y381215D01*
D02*
G37*
%LPD*%
D27*
X356926Y356034D02*
X357500Y355460D01*
X356733Y356034D02*
X356926D01*
X357500Y353192D02*
Y355460D01*
D28*
Y405443D02*
Y412278D01*
D33*
X322975Y362392D02*
D03*
X332156Y366579D02*
D03*
X326726Y369995D02*
D03*
X329902Y376416D02*
D03*
X322975Y376392D02*
D03*
X330615Y400192D02*
D03*
X290465Y383582D02*
D03*
X328115Y357692D02*
D03*
X326115D02*
D03*
X324115D02*
D03*
X322115D02*
D03*
X320115D02*
D03*
X318115Y358392D02*
D03*
X322615Y400192D02*
D03*
X288398Y403792D02*
D03*
Y405792D02*
D03*
Y407792D02*
D03*
Y395792D02*
D03*
Y397792D02*
D03*
Y399792D02*
D03*
Y401792D02*
D03*
Y393792D02*
D03*
Y391792D02*
D03*
Y389792D02*
D03*
Y387792D02*
D03*
Y385792D02*
D03*
Y383582D02*
D03*
X301935D02*
D03*
X299815Y383642D02*
D03*
X328015Y407692D02*
D03*
X324015D02*
D03*
X322015D02*
D03*
X292743Y403652D02*
D03*
Y397852D02*
D03*
X301357Y394789D02*
D03*
X296157D02*
D03*
X298757D02*
D03*
X301357Y406489D02*
D03*
X298757D02*
D03*
X296157D02*
D03*
X312095Y409792D02*
D03*
X316095D02*
D03*
X310098D02*
D03*
X308098D02*
D03*
X306098D02*
D03*
X304098D02*
D03*
X302098D02*
D03*
X300098D02*
D03*
X298098D02*
D03*
X296098D02*
D03*
X294098D02*
D03*
X292098D02*
D03*
X290098D02*
D03*
X314035D02*
D03*
X386156Y403723D02*
D03*
Y405723D02*
D03*
Y407723D02*
D03*
Y363723D02*
D03*
Y361723D02*
D03*
Y359723D02*
D03*
X318115Y360392D02*
D03*
Y362392D02*
D03*
Y364392D02*
D03*
Y366392D02*
D03*
Y368392D02*
D03*
Y370392D02*
D03*
Y372392D02*
D03*
Y374392D02*
D03*
Y376392D02*
D03*
Y378392D02*
D03*
Y380392D02*
D03*
Y382392D02*
D03*
Y400192D02*
D03*
Y402192D02*
D03*
Y404192D02*
D03*
X368955Y401640D02*
D03*
X364900Y401661D02*
D03*
X382297Y384874D02*
D03*
X382514Y381870D02*
D03*
X334579Y378798D02*
D03*
X360119Y360941D02*
D03*
X372820Y404487D02*
D03*
X382495Y396003D02*
D03*
X382512Y392038D02*
D03*
Y388175D02*
D03*
X382025Y377995D02*
D03*
X332852Y373060D02*
D03*
X335620Y386505D02*
D03*
X336615Y394192D02*
D03*
X320015Y407692D02*
D03*
X318115Y406192D02*
D03*
X326015Y407692D02*
D03*
X328615Y394192D02*
D03*
X324615D02*
D03*
X326615D02*
D03*
X330615D02*
D03*
X320615D02*
D03*
X318115Y396192D02*
D03*
Y398192D02*
D03*
Y394192D02*
D03*
X322615D02*
D03*
X334615D02*
D03*
X332615D02*
D03*
X318115Y384392D02*
D03*
X305415Y386231D02*
D03*
X304005Y383582D02*
D03*
X324615Y382892D02*
D03*
X331004Y386811D02*
D03*
X326615Y382892D02*
D03*
X328615D02*
D03*
X330615D02*
D03*
X332615D02*
D03*
X320615D02*
D03*
X306255Y383542D02*
D03*
X308505Y383662D02*
D03*
X310655Y383622D02*
D03*
X322615Y382892D02*
D03*
X315245Y383562D02*
D03*
X312865Y383582D02*
D03*
X318115Y386392D02*
D03*
X322638Y387205D02*
D03*
D34*
X382500Y412278D02*
D03*
X357500D02*
D03*
Y353192D02*
D03*
D35*
X362045Y373392D02*
D03*
Y378492D02*
D03*
Y383619D02*
D03*
X356931Y373392D02*
D03*
Y378492D02*
D03*
Y383619D02*
D03*
X351750Y373392D02*
D03*
Y378492D02*
D03*
Y383619D02*
D03*
M02*
