G04 Layer_Color=8421504*
%FSLAX25Y25*%
%MOIN*%
G70*
G01*
G75*
%ADD11R,0.02598X0.02598*%
%ADD12R,0.02400X0.02600*%
%ADD13R,0.02600X0.02400*%
%ADD14R,0.03200X0.02900*%
%ADD15C,0.02000*%
%ADD16R,0.07087X0.03937*%
%ADD17R,0.03937X0.03543*%
%ADD18R,0.03150X0.05906*%
%ADD19R,0.03937X0.03937*%
%ADD20R,0.08661X0.04134*%
%ADD21R,0.01181X0.02559*%
%ADD22R,0.02559X0.01181*%
%ADD23R,0.16535X0.16535*%
%ADD24R,0.00984X0.00984*%
%ADD25R,0.00984X0.01280*%
D11*
X310501Y390186D02*
D03*
X306957D02*
D03*
X310505Y393734D02*
D03*
Y390190D02*
D03*
D12*
X353900Y361400D02*
D03*
X357900D02*
D03*
X376510Y388171D02*
D03*
X380510D02*
D03*
X376489Y395967D02*
D03*
X380489D02*
D03*
X334856Y373060D02*
D03*
X338856D02*
D03*
X376323Y381870D02*
D03*
X380323D02*
D03*
X376509Y392079D02*
D03*
X380509D02*
D03*
X336673Y378798D02*
D03*
X340673D02*
D03*
X376365Y377961D02*
D03*
X380365D02*
D03*
X334627Y382676D02*
D03*
X338627D02*
D03*
X295179Y390149D02*
D03*
X299179D02*
D03*
X334776Y390256D02*
D03*
X330776D02*
D03*
D13*
X364963Y399790D02*
D03*
Y395790D02*
D03*
X338189Y386386D02*
D03*
Y390386D02*
D03*
X327264Y386287D02*
D03*
Y390287D02*
D03*
X368955Y399769D02*
D03*
Y395769D02*
D03*
X342028Y384024D02*
D03*
Y388024D02*
D03*
X291361Y386273D02*
D03*
Y390273D02*
D03*
X303061Y386231D02*
D03*
Y390231D02*
D03*
D14*
X372300Y388200D02*
D03*
Y392200D02*
D03*
D15*
X372726Y384402D02*
D03*
D16*
X293743Y357185D02*
D03*
Y376477D02*
D03*
D17*
X356541Y398388D02*
D03*
Y403506D02*
D03*
X349849Y398388D02*
D03*
Y403506D02*
D03*
D18*
X338679Y402268D02*
D03*
X344585D02*
D03*
D19*
X292743Y400744D02*
D03*
X304555D02*
D03*
D20*
X298649Y406551D02*
D03*
Y394937D02*
D03*
D21*
X348042Y367378D02*
D03*
X357884D02*
D03*
X353947D02*
D03*
X363790D02*
D03*
X355916D02*
D03*
X365758Y389622D02*
D03*
X361821D02*
D03*
X359853D02*
D03*
X357884D02*
D03*
X355916D02*
D03*
X351979D02*
D03*
X353947D02*
D03*
X350010D02*
D03*
X348042D02*
D03*
X363790D02*
D03*
X365758Y367378D02*
D03*
X361821D02*
D03*
X359853D02*
D03*
X351979D02*
D03*
X350010D02*
D03*
D22*
X345778Y371610D02*
D03*
Y373579D02*
D03*
X368022Y377516D02*
D03*
X345778Y369642D02*
D03*
X368022Y379484D02*
D03*
Y381453D02*
D03*
Y383421D02*
D03*
Y385390D02*
D03*
Y387358D02*
D03*
X345778Y383421D02*
D03*
Y387358D02*
D03*
Y385390D02*
D03*
Y379484D02*
D03*
Y381453D02*
D03*
Y377516D02*
D03*
Y375547D02*
D03*
X368022D02*
D03*
Y373579D02*
D03*
Y371610D02*
D03*
Y369642D02*
D03*
D23*
X356900Y378500D02*
D03*
D24*
X385044Y357571D02*
D03*
D25*
X324606Y390207D02*
D03*
X320669Y389075D02*
D03*
Y391339D02*
D03*
X322638D02*
D03*
Y389075D02*
D03*
M02*
