G04 Layer_Color=16711935*
%FSLAX25Y25*%
%MOIN*%
G70*
G01*
G75*
%ADD56C,0.00100*%
%ADD57C,0.01890*%
%ADD58C,0.00750*%
%ADD59C,0.00560*%
D56*
X302445Y412278D02*
X390789D01*
Y353192D02*
Y412278D01*
X285898Y353192D02*
X390789D01*
X285898D02*
Y412278D01*
X302445D01*
X1941899Y1653799D02*
Y1683799D01*
X1501899Y1513799D02*
Y1633799D01*
Y1603799D02*
X2151899D01*
X1501899Y1573799D02*
X2151899D01*
X1541899Y1513799D02*
Y1603799D01*
X2051899Y1513799D02*
Y1603799D01*
X1961899Y1513799D02*
Y1603799D01*
X1141899Y73799D02*
Y333799D01*
X2151899D01*
X1651899Y73799D02*
Y333799D01*
X1141899Y303799D02*
X1651899D01*
X1401899Y293799D02*
Y333799D01*
Y193799D02*
Y293799D01*
X1581899Y193799D02*
Y333799D01*
X1141899Y183799D02*
X1651899D01*
Y173799D02*
Y183799D01*
X1401899D02*
Y193799D01*
X1581899Y183799D02*
Y193799D01*
X1401899Y273799D02*
X1581899D01*
X1401899Y243799D02*
X1581899D01*
X1401899Y213799D02*
X1581899D01*
Y273799D02*
X1651899D01*
X1581899Y243799D02*
X1651899D01*
X1581899Y213799D02*
X1651899D01*
X1401899Y73799D02*
Y183799D01*
Y153799D02*
X1651899D01*
X1401899Y123799D02*
X1651899D01*
X1401899Y98799D02*
X1651899D01*
X1581899Y123799D02*
Y183799D01*
X1576899Y123799D02*
X1581899D01*
X1651899Y253799D02*
X2151899D01*
X1651899Y153799D02*
X2151899D01*
X1651899Y103799D02*
X2151899D01*
X1971899Y73799D02*
Y103799D01*
X1741899Y73799D02*
Y103799D01*
X1701899D02*
Y153799D01*
X1801899Y103799D02*
Y153799D01*
X1899Y3799D02*
X2201899D01*
Y1703799D01*
X1899D02*
X2201899D01*
X1899Y13799D02*
Y1703799D01*
Y3799D02*
Y13799D01*
X271899Y1633799D02*
X2141899D01*
X81899D02*
X271899D01*
X111899Y73799D02*
X1631899D01*
X51899D02*
Y1633799D01*
Y73799D02*
X111899D01*
X51899Y1633799D02*
X101899D01*
X2151899Y73799D02*
Y1633799D01*
X1631899Y73799D02*
X2151899D01*
X2141899Y1633799D02*
X2151899D01*
X1641899Y23799D02*
Y73799D01*
Y1643799D02*
Y1683799D01*
X1081899Y23799D02*
Y73799D01*
X541899Y23799D02*
Y73799D01*
Y1633799D02*
Y1683799D01*
X1081899Y1633799D02*
Y1683799D01*
X1641899Y1633799D02*
Y1643799D01*
X1931899Y23799D02*
Y53799D01*
X21899Y433799D02*
X51899D01*
X21899Y863799D02*
X51899D01*
X21899Y1293799D02*
X51899D01*
X2151899D02*
X2181899D01*
X2151899Y863799D02*
X2181899D01*
X2151899Y433799D02*
X2181899D01*
X1941899Y1653799D02*
Y1683799D01*
X1501899Y1513799D02*
Y1633799D01*
Y1603799D02*
X2151899D01*
X1501899Y1573799D02*
X2151899D01*
X1541899Y1513799D02*
Y1603799D01*
X2051899Y1513799D02*
Y1603799D01*
X1961899Y1513799D02*
Y1603799D01*
X1141899Y73799D02*
Y333799D01*
X2151899D01*
X1651899Y73799D02*
Y333799D01*
X1141899Y303799D02*
X1651899D01*
X1401899Y293799D02*
Y333799D01*
Y193799D02*
Y293799D01*
X1581899Y193799D02*
Y333799D01*
X1141899Y183799D02*
X1651899D01*
Y173799D02*
Y183799D01*
X1401899D02*
Y193799D01*
X1581899Y183799D02*
Y193799D01*
X1401899Y273799D02*
X1581899D01*
X1401899Y243799D02*
X1581899D01*
X1401899Y213799D02*
X1581899D01*
Y273799D02*
X1651899D01*
X1581899Y243799D02*
X1651899D01*
X1581899Y213799D02*
X1651899D01*
X1401899Y73799D02*
Y183799D01*
Y153799D02*
X1651899D01*
X1401899Y123799D02*
X1651899D01*
X1401899Y98799D02*
X1651899D01*
X1581899Y123799D02*
Y183799D01*
X1576899Y123799D02*
X1581899D01*
X1651899Y253799D02*
X2151899D01*
X1651899Y153799D02*
X2151899D01*
X1651899Y103799D02*
X2151899D01*
X1971899Y73799D02*
Y103799D01*
X1741899Y73799D02*
Y103799D01*
X1701899D02*
Y153799D01*
X1801899Y103799D02*
Y153799D01*
X1899Y3799D02*
X2201899D01*
Y1703799D01*
X1899D02*
X2201899D01*
X1899Y13799D02*
Y1703799D01*
Y3799D02*
Y13799D01*
X271899Y1633799D02*
X2141899D01*
X81899D02*
X271899D01*
X111899Y73799D02*
X1631899D01*
X51899D02*
Y1633799D01*
Y73799D02*
X111899D01*
X51899Y1633799D02*
X101899D01*
X2151899Y73799D02*
Y1633799D01*
X1631899Y73799D02*
X2151899D01*
X2141899Y1633799D02*
X2151899D01*
X1641899Y23799D02*
Y73799D01*
Y1643799D02*
Y1683799D01*
X1081899Y23799D02*
Y73799D01*
X541899Y23799D02*
Y73799D01*
Y1633799D02*
Y1683799D01*
X1081899Y1633799D02*
Y1683799D01*
X1641899Y1633799D02*
Y1643799D01*
X1931899Y23799D02*
Y53799D01*
X21899Y433799D02*
X51899D01*
X21899Y863799D02*
X51899D01*
X21899Y1293799D02*
X51899D01*
X2151899D02*
X2181899D01*
X2151899Y863799D02*
X2181899D01*
X2151899Y433799D02*
X2181899D01*
D57*
X1393089Y42843D02*
Y44033D01*
X1394279Y46413D01*
X1395470Y47603D01*
X1397850Y48794D01*
X1402611D01*
X1404991Y47603D01*
X1406182Y46413D01*
X1407372Y44033D01*
Y41652D01*
X1406182Y39272D01*
X1403801Y35701D01*
X1391899Y23799D01*
X1408562D01*
X804279Y48794D02*
X817372D01*
X810231Y39272D01*
X813801D01*
X816182Y38082D01*
X817372Y36891D01*
X818562Y33321D01*
Y30940D01*
X817372Y27370D01*
X814991Y24989D01*
X811421Y23799D01*
X807850D01*
X804279Y24989D01*
X803089Y26179D01*
X801899Y28560D01*
X273801Y48794D02*
X261899Y32131D01*
X279752D01*
X273801Y48794D02*
Y23799D01*
X1363089Y1672842D02*
Y1674033D01*
X1364279Y1676413D01*
X1365470Y1677603D01*
X1367850Y1678794D01*
X1372611D01*
X1374991Y1677603D01*
X1376182Y1676413D01*
X1377372Y1674033D01*
Y1671652D01*
X1376182Y1669272D01*
X1373801Y1665701D01*
X1361899Y1653799D01*
X1378562D01*
X804279Y1678794D02*
X817372D01*
X810231Y1669272D01*
X813801D01*
X816182Y1668082D01*
X817372Y1666891D01*
X818562Y1663321D01*
Y1660940D01*
X817372Y1657370D01*
X814991Y1654989D01*
X811421Y1653799D01*
X807850D01*
X804279Y1654989D01*
X803089Y1656179D01*
X801899Y1658560D01*
X273801Y1678794D02*
X261899Y1662131D01*
X279752D01*
X273801Y1678794D02*
Y1653799D01*
X2190943Y243799D02*
X2181421Y268794D01*
X2171899Y243799D01*
X2175470Y252131D02*
X2187372D01*
X2171899Y638794D02*
Y613799D01*
Y638794D02*
X2182611D01*
X2186182Y637603D01*
X2187372Y636413D01*
X2188562Y634033D01*
Y631652D01*
X2187372Y629272D01*
X2186182Y628082D01*
X2182611Y626891D01*
X2171899D02*
X2182611D01*
X2186182Y625701D01*
X2187372Y624511D01*
X2188562Y622131D01*
Y618560D01*
X2187372Y616179D01*
X2186182Y614989D01*
X2182611Y613799D01*
X2171899D01*
X2179752Y1042842D02*
X2178562Y1045223D01*
X2176182Y1047603D01*
X2173801Y1048794D01*
X2169040D01*
X2166660Y1047603D01*
X2164279Y1045223D01*
X2163089Y1042842D01*
X2161899Y1039272D01*
Y1033321D01*
X2163089Y1029750D01*
X2164279Y1027370D01*
X2166660Y1024989D01*
X2169040Y1023799D01*
X2173801D01*
X2176182Y1024989D01*
X2178562Y1027370D01*
X2179752Y1029750D01*
X21899Y1498794D02*
Y1473799D01*
Y1498794D02*
X30231D01*
X33801Y1497603D01*
X36182Y1495223D01*
X37372Y1492842D01*
X38562Y1489272D01*
Y1483321D01*
X37372Y1479750D01*
X36182Y1477370D01*
X33801Y1474989D01*
X30231Y1473799D01*
X21899D01*
X2171899Y1498794D02*
Y1473799D01*
Y1498794D02*
X2180231D01*
X2183801Y1497603D01*
X2186182Y1495223D01*
X2187372Y1492842D01*
X2188562Y1489272D01*
Y1483321D01*
X2187372Y1479750D01*
X2186182Y1477370D01*
X2183801Y1474989D01*
X2180231Y1473799D01*
X2171899D01*
X39752Y1012842D02*
X38562Y1015223D01*
X36182Y1017603D01*
X33801Y1018794D01*
X29040D01*
X26660Y1017603D01*
X24279Y1015223D01*
X23089Y1012842D01*
X21899Y1009272D01*
Y1003321D01*
X23089Y999750D01*
X24279Y997370D01*
X26660Y994989D01*
X29040Y993799D01*
X33801D01*
X36182Y994989D01*
X38562Y997370D01*
X39752Y999750D01*
X21899Y618794D02*
Y593799D01*
Y618794D02*
X32611D01*
X36182Y617603D01*
X37372Y616413D01*
X38562Y614033D01*
Y611652D01*
X37372Y609272D01*
X36182Y608082D01*
X32611Y606891D01*
X21899D02*
X32611D01*
X36182Y605701D01*
X37372Y604511D01*
X38562Y602131D01*
Y598560D01*
X37372Y596179D01*
X36182Y594989D01*
X32611Y593799D01*
X21899D01*
X40942Y233799D02*
X31421Y258794D01*
X21899Y233799D01*
X25470Y242130D02*
X37372D01*
X1393089Y42843D02*
Y44033D01*
X1394279Y46413D01*
X1395470Y47603D01*
X1397850Y48794D01*
X1402611D01*
X1404991Y47603D01*
X1406182Y46413D01*
X1407372Y44033D01*
Y41652D01*
X1406182Y39272D01*
X1403801Y35701D01*
X1391899Y23799D01*
X1408562D01*
X804279Y48794D02*
X817372D01*
X810231Y39272D01*
X813801D01*
X816182Y38082D01*
X817372Y36891D01*
X818562Y33321D01*
Y30940D01*
X817372Y27370D01*
X814991Y24989D01*
X811421Y23799D01*
X807850D01*
X804279Y24989D01*
X803089Y26179D01*
X801899Y28560D01*
X273801Y48794D02*
X261899Y32131D01*
X279752D01*
X273801Y48794D02*
Y23799D01*
X1363089Y1672842D02*
Y1674033D01*
X1364279Y1676413D01*
X1365470Y1677603D01*
X1367850Y1678794D01*
X1372611D01*
X1374991Y1677603D01*
X1376182Y1676413D01*
X1377372Y1674033D01*
Y1671652D01*
X1376182Y1669272D01*
X1373801Y1665701D01*
X1361899Y1653799D01*
X1378562D01*
X804279Y1678794D02*
X817372D01*
X810231Y1669272D01*
X813801D01*
X816182Y1668082D01*
X817372Y1666891D01*
X818562Y1663321D01*
Y1660940D01*
X817372Y1657370D01*
X814991Y1654989D01*
X811421Y1653799D01*
X807850D01*
X804279Y1654989D01*
X803089Y1656179D01*
X801899Y1658560D01*
X273801Y1678794D02*
X261899Y1662131D01*
X279752D01*
X273801Y1678794D02*
Y1653799D01*
X2190943Y243799D02*
X2181421Y268794D01*
X2171899Y243799D01*
X2175470Y252131D02*
X2187372D01*
X2171899Y638794D02*
Y613799D01*
Y638794D02*
X2182611D01*
X2186182Y637603D01*
X2187372Y636413D01*
X2188562Y634033D01*
Y631652D01*
X2187372Y629272D01*
X2186182Y628082D01*
X2182611Y626891D01*
X2171899D02*
X2182611D01*
X2186182Y625701D01*
X2187372Y624511D01*
X2188562Y622131D01*
Y618560D01*
X2187372Y616179D01*
X2186182Y614989D01*
X2182611Y613799D01*
X2171899D01*
X2179752Y1042842D02*
X2178562Y1045223D01*
X2176182Y1047603D01*
X2173801Y1048794D01*
X2169040D01*
X2166660Y1047603D01*
X2164279Y1045223D01*
X2163089Y1042842D01*
X2161899Y1039272D01*
Y1033321D01*
X2163089Y1029750D01*
X2164279Y1027370D01*
X2166660Y1024989D01*
X2169040Y1023799D01*
X2173801D01*
X2176182Y1024989D01*
X2178562Y1027370D01*
X2179752Y1029750D01*
X21899Y1498794D02*
Y1473799D01*
Y1498794D02*
X30231D01*
X33801Y1497603D01*
X36182Y1495223D01*
X37372Y1492842D01*
X38562Y1489272D01*
Y1483321D01*
X37372Y1479750D01*
X36182Y1477370D01*
X33801Y1474989D01*
X30231Y1473799D01*
X21899D01*
X2171899Y1498794D02*
Y1473799D01*
Y1498794D02*
X2180231D01*
X2183801Y1497603D01*
X2186182Y1495223D01*
X2187372Y1492842D01*
X2188562Y1489272D01*
Y1483321D01*
X2187372Y1479750D01*
X2186182Y1477370D01*
X2183801Y1474989D01*
X2180231Y1473799D01*
X2171899D01*
X39752Y1012842D02*
X38562Y1015223D01*
X36182Y1017603D01*
X33801Y1018794D01*
X29040D01*
X26660Y1017603D01*
X24279Y1015223D01*
X23089Y1012842D01*
X21899Y1009272D01*
Y1003321D01*
X23089Y999750D01*
X24279Y997370D01*
X26660Y994989D01*
X29040Y993799D01*
X33801D01*
X36182Y994989D01*
X38562Y997370D01*
X39752Y999750D01*
X21899Y618794D02*
Y593799D01*
Y618794D02*
X32611D01*
X36182Y617603D01*
X37372Y616413D01*
X38562Y614033D01*
Y611652D01*
X37372Y609272D01*
X36182Y608082D01*
X32611Y606891D01*
X21899D02*
X32611D01*
X36182Y605701D01*
X37372Y604511D01*
X38562Y602131D01*
Y598560D01*
X37372Y596179D01*
X36182Y594989D01*
X32611Y593799D01*
X21899D01*
X40942Y233799D02*
X31421Y258794D01*
X21899Y233799D01*
X25470Y242130D02*
X37372D01*
D58*
X1511899Y1593797D02*
Y1583799D01*
Y1593797D02*
X1516184D01*
X1517612Y1593321D01*
X1518088Y1592845D01*
X1518564Y1591893D01*
Y1590940D01*
X1518088Y1589988D01*
X1517612Y1589512D01*
X1516184Y1589036D01*
X1511899D01*
X1515232D02*
X1518564Y1583799D01*
X1526991Y1593797D02*
X1520802D01*
Y1583799D01*
X1526991D01*
X1520802Y1589036D02*
X1524611D01*
X1528657Y1593797D02*
X1532466Y1583799D01*
X1536275Y1593797D02*
X1532466Y1583799D01*
X1691899Y1593797D02*
Y1583799D01*
Y1593797D02*
X1695232D01*
X1696660Y1593321D01*
X1697612Y1592369D01*
X1698088Y1591416D01*
X1698564Y1589988D01*
Y1587608D01*
X1698088Y1586179D01*
X1697612Y1585227D01*
X1696660Y1584275D01*
X1695232Y1583799D01*
X1691899D01*
X1706991Y1593797D02*
X1700802D01*
Y1583799D01*
X1706991D01*
X1700802Y1589036D02*
X1704611D01*
X1715323Y1592369D02*
X1714370Y1593321D01*
X1712942Y1593797D01*
X1711038D01*
X1709609Y1593321D01*
X1708657Y1592369D01*
Y1591416D01*
X1709133Y1590464D01*
X1709609Y1589988D01*
X1710562Y1589512D01*
X1713418Y1588560D01*
X1714370Y1588084D01*
X1714846Y1587608D01*
X1715323Y1586656D01*
Y1585227D01*
X1714370Y1584275D01*
X1712942Y1583799D01*
X1711038D01*
X1709609Y1584275D01*
X1708657Y1585227D01*
X1724701Y1591416D02*
X1724225Y1592369D01*
X1723273Y1593321D01*
X1722321Y1593797D01*
X1720417D01*
X1719464Y1593321D01*
X1718512Y1592369D01*
X1718036Y1591416D01*
X1717560Y1589988D01*
Y1587608D01*
X1718036Y1586179D01*
X1718512Y1585227D01*
X1719464Y1584275D01*
X1720417Y1583799D01*
X1722321D01*
X1723273Y1584275D01*
X1724225Y1585227D01*
X1724701Y1586179D01*
X1727510Y1593797D02*
Y1583799D01*
Y1593797D02*
X1731795D01*
X1733224Y1593321D01*
X1733700Y1592845D01*
X1734176Y1591893D01*
Y1590940D01*
X1733700Y1589988D01*
X1733224Y1589512D01*
X1731795Y1589036D01*
X1727510D01*
X1730843D02*
X1734176Y1583799D01*
X1736413Y1593797D02*
Y1583799D01*
X1738508Y1588560D02*
X1742793D01*
X1744221Y1589036D01*
X1744697Y1589512D01*
X1745173Y1590464D01*
Y1591893D01*
X1744697Y1592845D01*
X1744221Y1593321D01*
X1742793Y1593797D01*
X1738508D01*
Y1583799D01*
X1750743Y1593797D02*
Y1583799D01*
X1747411Y1593797D02*
X1754076D01*
X1755266D02*
Y1583799D01*
X1760218Y1593797D02*
X1759266Y1593321D01*
X1758313Y1592369D01*
X1757837Y1591416D01*
X1757361Y1589988D01*
Y1587608D01*
X1757837Y1586179D01*
X1758313Y1585227D01*
X1759266Y1584275D01*
X1760218Y1583799D01*
X1762122D01*
X1763074Y1584275D01*
X1764026Y1585227D01*
X1764503Y1586179D01*
X1764979Y1587608D01*
Y1589988D01*
X1764503Y1591416D01*
X1764026Y1592369D01*
X1763074Y1593321D01*
X1762122Y1593797D01*
X1760218D01*
X1767311D02*
Y1583799D01*
Y1593797D02*
X1773977Y1583799D01*
Y1593797D02*
Y1583799D01*
X1981899Y1593797D02*
Y1583799D01*
Y1593797D02*
X1985232D01*
X1986660Y1593321D01*
X1987612Y1592369D01*
X1988088Y1591416D01*
X1988564Y1589988D01*
Y1587608D01*
X1988088Y1586179D01*
X1987612Y1585227D01*
X1986660Y1584275D01*
X1985232Y1583799D01*
X1981899D01*
X1998419D02*
X1994611Y1593797D01*
X1990802Y1583799D01*
X1992230Y1587132D02*
X1996991D01*
X2004085Y1593797D02*
Y1583799D01*
X2000752Y1593797D02*
X2007417D01*
X2014797D02*
X2008608D01*
Y1583799D01*
X2014797D01*
X2008608Y1589036D02*
X2012416D01*
X2069516Y1583799D02*
X2065708Y1593797D01*
X2061899Y1583799D01*
X2063327Y1587132D02*
X2068088D01*
X2071849Y1588560D02*
X2076134D01*
X2077562Y1589036D01*
X2078038Y1589512D01*
X2078514Y1590464D01*
Y1591893D01*
X2078038Y1592845D01*
X2077562Y1593321D01*
X2076134Y1593797D01*
X2071849D01*
Y1583799D01*
X2080752Y1588560D02*
X2085037D01*
X2086465Y1589036D01*
X2086941Y1589512D01*
X2087417Y1590464D01*
Y1591893D01*
X2086941Y1592845D01*
X2086465Y1593321D01*
X2085037Y1593797D01*
X2080752D01*
Y1583799D01*
X2089655Y1593797D02*
Y1583799D01*
Y1593797D02*
X2093940D01*
X2095368Y1593321D01*
X2095844Y1592845D01*
X2096320Y1591893D01*
Y1590940D01*
X2095844Y1589988D01*
X2095368Y1589512D01*
X2093940Y1589036D01*
X2089655D01*
X2092988D02*
X2096320Y1583799D01*
X2101414Y1593797D02*
X2100462Y1593321D01*
X2099510Y1592369D01*
X2099034Y1591416D01*
X2098558Y1589988D01*
Y1587608D01*
X2099034Y1586179D01*
X2099510Y1585227D01*
X2100462Y1584275D01*
X2101414Y1583799D01*
X2103319D01*
X2104271Y1584275D01*
X2105223Y1585227D01*
X2105699Y1586179D01*
X2106175Y1587608D01*
Y1589988D01*
X2105699Y1591416D01*
X2105223Y1592369D01*
X2104271Y1593321D01*
X2103319Y1593797D01*
X2101414D01*
X2108508D02*
X2112317Y1583799D01*
X2116125Y1593797D02*
X2112317Y1583799D01*
X2123600Y1593797D02*
X2117411D01*
Y1583799D01*
X2123600D01*
X2117411Y1589036D02*
X2121220D01*
X2125266Y1593797D02*
Y1583799D01*
Y1593797D02*
X2128599D01*
X2130027Y1593321D01*
X2130979Y1592369D01*
X2131455Y1591416D01*
X2131932Y1589988D01*
Y1587608D01*
X2131455Y1586179D01*
X2130979Y1585227D01*
X2130027Y1584275D01*
X2128599Y1583799D01*
X2125266D01*
X1751899Y1623797D02*
Y1613799D01*
Y1623797D02*
X1756184D01*
X1757612Y1623321D01*
X1758088Y1622845D01*
X1758564Y1621893D01*
Y1620940D01*
X1758088Y1619988D01*
X1757612Y1619512D01*
X1756184Y1619036D01*
X1751899D01*
X1755232D02*
X1758564Y1613799D01*
X1766991Y1623797D02*
X1760802D01*
Y1613799D01*
X1766991D01*
X1760802Y1619036D02*
X1764611D01*
X1768657Y1623797D02*
X1772466Y1613799D01*
X1776275Y1623797D02*
X1772466Y1613799D01*
X1777560Y1623797D02*
Y1613799D01*
X1786320Y1622369D02*
X1785368Y1623321D01*
X1783940Y1623797D01*
X1782035D01*
X1780607Y1623321D01*
X1779655Y1622369D01*
Y1621416D01*
X1780131Y1620464D01*
X1780607Y1619988D01*
X1781559Y1619512D01*
X1784416Y1618560D01*
X1785368Y1618084D01*
X1785844Y1617608D01*
X1786320Y1616656D01*
Y1615227D01*
X1785368Y1614275D01*
X1783940Y1613799D01*
X1782035D01*
X1780607Y1614275D01*
X1779655Y1615227D01*
X1788558Y1623797D02*
Y1613799D01*
X1793509Y1623797D02*
X1792557Y1623321D01*
X1791605Y1622369D01*
X1791129Y1621416D01*
X1790653Y1619988D01*
Y1617608D01*
X1791129Y1616179D01*
X1791605Y1615227D01*
X1792557Y1614275D01*
X1793509Y1613799D01*
X1795414D01*
X1796366Y1614275D01*
X1797318Y1615227D01*
X1797794Y1616179D01*
X1798270Y1617608D01*
Y1619988D01*
X1797794Y1621416D01*
X1797318Y1622369D01*
X1796366Y1623321D01*
X1795414Y1623797D01*
X1793509D01*
X1800603D02*
Y1613799D01*
Y1623797D02*
X1807268Y1613799D01*
Y1623797D02*
Y1613799D01*
X1816695Y1622369D02*
X1815742Y1623321D01*
X1814314Y1623797D01*
X1812410D01*
X1810982Y1623321D01*
X1810029Y1622369D01*
Y1621416D01*
X1810505Y1620464D01*
X1810982Y1619988D01*
X1811934Y1619512D01*
X1814790Y1618560D01*
X1815742Y1618084D01*
X1816219Y1617608D01*
X1816695Y1616656D01*
Y1615227D01*
X1815742Y1614275D01*
X1814314Y1613799D01*
X1812410D01*
X1810982Y1614275D01*
X1810029Y1615227D01*
X1771899Y293797D02*
Y283799D01*
Y293797D02*
X1775708Y283799D01*
X1779516Y293797D02*
X1775708Y283799D01*
X1779516Y293797D02*
Y283799D01*
X1782373Y293797D02*
Y283799D01*
Y293797D02*
X1786182Y283799D01*
X1789990Y293797D02*
X1786182Y283799D01*
X1789990Y293797D02*
Y283799D01*
X1792847Y293797D02*
Y283799D01*
Y293797D02*
X1797132D01*
X1798560Y293321D01*
X1799036Y292845D01*
X1799512Y291893D01*
Y290940D01*
X1799036Y289988D01*
X1798560Y289512D01*
X1797132Y289036D01*
X1792847D02*
X1797132D01*
X1798560Y288560D01*
X1799036Y288084D01*
X1799512Y287132D01*
Y285703D01*
X1799036Y284751D01*
X1798560Y284275D01*
X1797132Y283799D01*
X1792847D01*
X1809605Y293797D02*
Y283799D01*
Y293797D02*
X1816270Y283799D01*
Y293797D02*
Y283799D01*
X1819032Y287608D02*
X1824745D01*
Y288560D01*
X1824269Y289512D01*
X1823793Y289988D01*
X1822840Y290464D01*
X1821412D01*
X1820460Y289988D01*
X1819508Y289036D01*
X1819032Y287608D01*
Y286655D01*
X1819508Y285227D01*
X1820460Y284275D01*
X1821412Y283799D01*
X1822840D01*
X1823793Y284275D01*
X1824745Y285227D01*
X1828316Y293797D02*
Y285703D01*
X1828792Y284275D01*
X1829744Y283799D01*
X1830696D01*
X1826887Y290464D02*
X1830220D01*
X1832124D02*
X1834028Y283799D01*
X1835933Y290464D02*
X1834028Y283799D01*
X1835933Y290464D02*
X1837837Y283799D01*
X1839742Y290464D02*
X1837837Y283799D01*
X1844455Y290464D02*
X1843503Y289988D01*
X1842550Y289036D01*
X1842074Y287608D01*
Y286655D01*
X1842550Y285227D01*
X1843503Y284275D01*
X1844455Y283799D01*
X1845883D01*
X1846835Y284275D01*
X1847787Y285227D01*
X1848264Y286655D01*
Y287608D01*
X1847787Y289036D01*
X1846835Y289988D01*
X1845883Y290464D01*
X1844455D01*
X1850454D02*
Y283799D01*
Y287608D02*
X1850930Y289036D01*
X1851882Y289988D01*
X1852834Y290464D01*
X1854262D01*
X1855167Y293797D02*
Y283799D01*
X1859928Y290464D02*
X1855167Y285703D01*
X1857071Y287608D02*
X1860404Y283799D01*
X1867212Y289036D02*
X1866736Y289988D01*
X1865308Y290464D01*
X1863879D01*
X1862451Y289988D01*
X1861975Y289036D01*
X1862451Y288084D01*
X1863403Y287608D01*
X1865784Y287132D01*
X1866736Y286655D01*
X1867212Y285703D01*
Y285227D01*
X1866736Y284275D01*
X1865308Y283799D01*
X1863879D01*
X1862451Y284275D01*
X1861975Y285227D01*
X1511899Y1593797D02*
Y1583799D01*
Y1593797D02*
X1516184D01*
X1517612Y1593321D01*
X1518088Y1592845D01*
X1518564Y1591893D01*
Y1590940D01*
X1518088Y1589988D01*
X1517612Y1589512D01*
X1516184Y1589036D01*
X1511899D01*
X1515232D02*
X1518564Y1583799D01*
X1526991Y1593797D02*
X1520802D01*
Y1583799D01*
X1526991D01*
X1520802Y1589036D02*
X1524611D01*
X1528657Y1593797D02*
X1532466Y1583799D01*
X1536275Y1593797D02*
X1532466Y1583799D01*
X1691899Y1593797D02*
Y1583799D01*
Y1593797D02*
X1695232D01*
X1696660Y1593321D01*
X1697612Y1592369D01*
X1698088Y1591416D01*
X1698564Y1589988D01*
Y1587608D01*
X1698088Y1586179D01*
X1697612Y1585227D01*
X1696660Y1584275D01*
X1695232Y1583799D01*
X1691899D01*
X1706991Y1593797D02*
X1700802D01*
Y1583799D01*
X1706991D01*
X1700802Y1589036D02*
X1704611D01*
X1715323Y1592369D02*
X1714370Y1593321D01*
X1712942Y1593797D01*
X1711038D01*
X1709609Y1593321D01*
X1708657Y1592369D01*
Y1591416D01*
X1709133Y1590464D01*
X1709609Y1589988D01*
X1710562Y1589512D01*
X1713418Y1588560D01*
X1714370Y1588084D01*
X1714846Y1587608D01*
X1715323Y1586656D01*
Y1585227D01*
X1714370Y1584275D01*
X1712942Y1583799D01*
X1711038D01*
X1709609Y1584275D01*
X1708657Y1585227D01*
X1724701Y1591416D02*
X1724225Y1592369D01*
X1723273Y1593321D01*
X1722321Y1593797D01*
X1720417D01*
X1719464Y1593321D01*
X1718512Y1592369D01*
X1718036Y1591416D01*
X1717560Y1589988D01*
Y1587608D01*
X1718036Y1586179D01*
X1718512Y1585227D01*
X1719464Y1584275D01*
X1720417Y1583799D01*
X1722321D01*
X1723273Y1584275D01*
X1724225Y1585227D01*
X1724701Y1586179D01*
X1727510Y1593797D02*
Y1583799D01*
Y1593797D02*
X1731795D01*
X1733224Y1593321D01*
X1733700Y1592845D01*
X1734176Y1591893D01*
Y1590940D01*
X1733700Y1589988D01*
X1733224Y1589512D01*
X1731795Y1589036D01*
X1727510D01*
X1730843D02*
X1734176Y1583799D01*
X1736413Y1593797D02*
Y1583799D01*
X1738508Y1588560D02*
X1742793D01*
X1744221Y1589036D01*
X1744697Y1589512D01*
X1745173Y1590464D01*
Y1591893D01*
X1744697Y1592845D01*
X1744221Y1593321D01*
X1742793Y1593797D01*
X1738508D01*
Y1583799D01*
X1750743Y1593797D02*
Y1583799D01*
X1747411Y1593797D02*
X1754076D01*
X1755266D02*
Y1583799D01*
X1760218Y1593797D02*
X1759266Y1593321D01*
X1758313Y1592369D01*
X1757837Y1591416D01*
X1757361Y1589988D01*
Y1587608D01*
X1757837Y1586179D01*
X1758313Y1585227D01*
X1759266Y1584275D01*
X1760218Y1583799D01*
X1762122D01*
X1763074Y1584275D01*
X1764026Y1585227D01*
X1764503Y1586179D01*
X1764979Y1587608D01*
Y1589988D01*
X1764503Y1591416D01*
X1764026Y1592369D01*
X1763074Y1593321D01*
X1762122Y1593797D01*
X1760218D01*
X1767311D02*
Y1583799D01*
Y1593797D02*
X1773977Y1583799D01*
Y1593797D02*
Y1583799D01*
X1981899Y1593797D02*
Y1583799D01*
Y1593797D02*
X1985232D01*
X1986660Y1593321D01*
X1987612Y1592369D01*
X1988088Y1591416D01*
X1988564Y1589988D01*
Y1587608D01*
X1988088Y1586179D01*
X1987612Y1585227D01*
X1986660Y1584275D01*
X1985232Y1583799D01*
X1981899D01*
X1998419D02*
X1994611Y1593797D01*
X1990802Y1583799D01*
X1992230Y1587132D02*
X1996991D01*
X2004085Y1593797D02*
Y1583799D01*
X2000752Y1593797D02*
X2007417D01*
X2014797D02*
X2008608D01*
Y1583799D01*
X2014797D01*
X2008608Y1589036D02*
X2012416D01*
X2069516Y1583799D02*
X2065708Y1593797D01*
X2061899Y1583799D01*
X2063327Y1587132D02*
X2068088D01*
X2071849Y1588560D02*
X2076134D01*
X2077562Y1589036D01*
X2078038Y1589512D01*
X2078514Y1590464D01*
Y1591893D01*
X2078038Y1592845D01*
X2077562Y1593321D01*
X2076134Y1593797D01*
X2071849D01*
Y1583799D01*
X2080752Y1588560D02*
X2085037D01*
X2086465Y1589036D01*
X2086941Y1589512D01*
X2087417Y1590464D01*
Y1591893D01*
X2086941Y1592845D01*
X2086465Y1593321D01*
X2085037Y1593797D01*
X2080752D01*
Y1583799D01*
X2089655Y1593797D02*
Y1583799D01*
Y1593797D02*
X2093940D01*
X2095368Y1593321D01*
X2095844Y1592845D01*
X2096320Y1591893D01*
Y1590940D01*
X2095844Y1589988D01*
X2095368Y1589512D01*
X2093940Y1589036D01*
X2089655D01*
X2092988D02*
X2096320Y1583799D01*
X2101414Y1593797D02*
X2100462Y1593321D01*
X2099510Y1592369D01*
X2099034Y1591416D01*
X2098558Y1589988D01*
Y1587608D01*
X2099034Y1586179D01*
X2099510Y1585227D01*
X2100462Y1584275D01*
X2101414Y1583799D01*
X2103319D01*
X2104271Y1584275D01*
X2105223Y1585227D01*
X2105699Y1586179D01*
X2106175Y1587608D01*
Y1589988D01*
X2105699Y1591416D01*
X2105223Y1592369D01*
X2104271Y1593321D01*
X2103319Y1593797D01*
X2101414D01*
X2108508D02*
X2112317Y1583799D01*
X2116125Y1593797D02*
X2112317Y1583799D01*
X2123600Y1593797D02*
X2117411D01*
Y1583799D01*
X2123600D01*
X2117411Y1589036D02*
X2121220D01*
X2125266Y1593797D02*
Y1583799D01*
Y1593797D02*
X2128599D01*
X2130027Y1593321D01*
X2130979Y1592369D01*
X2131455Y1591416D01*
X2131932Y1589988D01*
Y1587608D01*
X2131455Y1586179D01*
X2130979Y1585227D01*
X2130027Y1584275D01*
X2128599Y1583799D01*
X2125266D01*
X1751899Y1623797D02*
Y1613799D01*
Y1623797D02*
X1756184D01*
X1757612Y1623321D01*
X1758088Y1622845D01*
X1758564Y1621893D01*
Y1620940D01*
X1758088Y1619988D01*
X1757612Y1619512D01*
X1756184Y1619036D01*
X1751899D01*
X1755232D02*
X1758564Y1613799D01*
X1766991Y1623797D02*
X1760802D01*
Y1613799D01*
X1766991D01*
X1760802Y1619036D02*
X1764611D01*
X1768657Y1623797D02*
X1772466Y1613799D01*
X1776275Y1623797D02*
X1772466Y1613799D01*
X1777560Y1623797D02*
Y1613799D01*
X1786320Y1622369D02*
X1785368Y1623321D01*
X1783940Y1623797D01*
X1782035D01*
X1780607Y1623321D01*
X1779655Y1622369D01*
Y1621416D01*
X1780131Y1620464D01*
X1780607Y1619988D01*
X1781559Y1619512D01*
X1784416Y1618560D01*
X1785368Y1618084D01*
X1785844Y1617608D01*
X1786320Y1616656D01*
Y1615227D01*
X1785368Y1614275D01*
X1783940Y1613799D01*
X1782035D01*
X1780607Y1614275D01*
X1779655Y1615227D01*
X1788558Y1623797D02*
Y1613799D01*
X1793509Y1623797D02*
X1792557Y1623321D01*
X1791605Y1622369D01*
X1791129Y1621416D01*
X1790653Y1619988D01*
Y1617608D01*
X1791129Y1616179D01*
X1791605Y1615227D01*
X1792557Y1614275D01*
X1793509Y1613799D01*
X1795414D01*
X1796366Y1614275D01*
X1797318Y1615227D01*
X1797794Y1616179D01*
X1798270Y1617608D01*
Y1619988D01*
X1797794Y1621416D01*
X1797318Y1622369D01*
X1796366Y1623321D01*
X1795414Y1623797D01*
X1793509D01*
X1800603D02*
Y1613799D01*
Y1623797D02*
X1807268Y1613799D01*
Y1623797D02*
Y1613799D01*
X1816695Y1622369D02*
X1815742Y1623321D01*
X1814314Y1623797D01*
X1812410D01*
X1810982Y1623321D01*
X1810029Y1622369D01*
Y1621416D01*
X1810505Y1620464D01*
X1810982Y1619988D01*
X1811934Y1619512D01*
X1814790Y1618560D01*
X1815742Y1618084D01*
X1816219Y1617608D01*
X1816695Y1616656D01*
Y1615227D01*
X1815742Y1614275D01*
X1814314Y1613799D01*
X1812410D01*
X1810982Y1614275D01*
X1810029Y1615227D01*
X1771899Y293797D02*
Y283799D01*
Y293797D02*
X1775708Y283799D01*
X1779516Y293797D02*
X1775708Y283799D01*
X1779516Y293797D02*
Y283799D01*
X1782373Y293797D02*
Y283799D01*
Y293797D02*
X1786182Y283799D01*
X1789990Y293797D02*
X1786182Y283799D01*
X1789990Y293797D02*
Y283799D01*
X1792847Y293797D02*
Y283799D01*
Y293797D02*
X1797132D01*
X1798560Y293321D01*
X1799036Y292845D01*
X1799512Y291893D01*
Y290940D01*
X1799036Y289988D01*
X1798560Y289512D01*
X1797132Y289036D01*
X1792847D02*
X1797132D01*
X1798560Y288560D01*
X1799036Y288084D01*
X1799512Y287132D01*
Y285703D01*
X1799036Y284751D01*
X1798560Y284275D01*
X1797132Y283799D01*
X1792847D01*
X1809605Y293797D02*
Y283799D01*
Y293797D02*
X1816270Y283799D01*
Y293797D02*
Y283799D01*
X1819032Y287608D02*
X1824745D01*
Y288560D01*
X1824269Y289512D01*
X1823793Y289988D01*
X1822840Y290464D01*
X1821412D01*
X1820460Y289988D01*
X1819508Y289036D01*
X1819032Y287608D01*
Y286655D01*
X1819508Y285227D01*
X1820460Y284275D01*
X1821412Y283799D01*
X1822840D01*
X1823793Y284275D01*
X1824745Y285227D01*
X1828316Y293797D02*
Y285703D01*
X1828792Y284275D01*
X1829744Y283799D01*
X1830696D01*
X1826887Y290464D02*
X1830220D01*
X1832124D02*
X1834028Y283799D01*
X1835933Y290464D02*
X1834028Y283799D01*
X1835933Y290464D02*
X1837837Y283799D01*
X1839742Y290464D02*
X1837837Y283799D01*
X1844455Y290464D02*
X1843503Y289988D01*
X1842550Y289036D01*
X1842074Y287608D01*
Y286655D01*
X1842550Y285227D01*
X1843503Y284275D01*
X1844455Y283799D01*
X1845883D01*
X1846835Y284275D01*
X1847787Y285227D01*
X1848264Y286655D01*
Y287608D01*
X1847787Y289036D01*
X1846835Y289988D01*
X1845883Y290464D01*
X1844455D01*
X1850454D02*
Y283799D01*
Y287608D02*
X1850930Y289036D01*
X1851882Y289988D01*
X1852834Y290464D01*
X1854262D01*
X1855167Y293797D02*
Y283799D01*
X1859928Y290464D02*
X1855167Y285703D01*
X1857071Y287608D02*
X1860404Y283799D01*
X1867212Y289036D02*
X1866736Y289988D01*
X1865308Y290464D01*
X1863879D01*
X1862451Y289988D01*
X1861975Y289036D01*
X1862451Y288084D01*
X1863403Y287608D01*
X1865784Y287132D01*
X1866736Y286655D01*
X1867212Y285703D01*
Y285227D01*
X1866736Y284275D01*
X1865308Y283799D01*
X1863879D01*
X1862451Y284275D01*
X1861975Y285227D01*
D59*
X1166899Y321297D02*
Y315941D01*
X1167256Y314870D01*
X1167970Y314156D01*
X1169041Y313799D01*
X1169755D01*
X1170827Y314156D01*
X1171541Y314870D01*
X1171898Y315941D01*
Y321297D01*
X1173969D02*
Y313799D01*
Y321297D02*
X1178968Y313799D01*
Y321297D02*
Y313799D01*
X1181039Y321297D02*
Y313799D01*
X1185324D01*
X1190787Y321297D02*
X1186145D01*
Y313799D01*
X1190787D01*
X1186145Y317727D02*
X1189001D01*
X1197035Y320226D02*
X1196321Y320940D01*
X1195250Y321297D01*
X1193822D01*
X1192751Y320940D01*
X1192037Y320226D01*
Y319512D01*
X1192393Y318798D01*
X1192751Y318441D01*
X1193465Y318084D01*
X1195607Y317370D01*
X1196321Y317013D01*
X1196678Y316655D01*
X1197035Y315941D01*
Y314870D01*
X1196321Y314156D01*
X1195250Y313799D01*
X1193822D01*
X1192751Y314156D01*
X1192037Y314870D01*
X1203712Y320226D02*
X1202998Y320940D01*
X1201927Y321297D01*
X1200499D01*
X1199428Y320940D01*
X1198714Y320226D01*
Y319512D01*
X1199071Y318798D01*
X1199428Y318441D01*
X1200142Y318084D01*
X1202284Y317370D01*
X1202998Y317013D01*
X1203356Y316655D01*
X1203712Y315941D01*
Y314870D01*
X1202998Y314156D01*
X1201927Y313799D01*
X1200499D01*
X1199428Y314156D01*
X1198714Y314870D01*
X1213425Y321297D02*
X1212711Y320940D01*
X1211996Y320226D01*
X1211639Y319512D01*
X1211282Y318441D01*
Y316655D01*
X1211639Y315584D01*
X1211996Y314870D01*
X1212711Y314156D01*
X1213425Y313799D01*
X1214853D01*
X1215567Y314156D01*
X1216281Y314870D01*
X1216638Y315584D01*
X1216995Y316655D01*
Y318441D01*
X1216638Y319512D01*
X1216281Y320226D01*
X1215567Y320940D01*
X1214853Y321297D01*
X1213425D01*
X1221245D02*
Y313799D01*
X1218745Y321297D02*
X1223744D01*
X1224637D02*
Y313799D01*
X1229636Y321297D02*
Y313799D01*
X1224637Y317727D02*
X1229636D01*
X1236348Y321297D02*
X1231707D01*
Y313799D01*
X1236348D01*
X1231707Y317727D02*
X1234563D01*
X1237598Y321297D02*
Y313799D01*
Y321297D02*
X1240812D01*
X1241883Y320940D01*
X1242240Y320583D01*
X1242597Y319869D01*
Y319155D01*
X1242240Y318441D01*
X1241883Y318084D01*
X1240812Y317727D01*
X1237598D01*
X1240098D02*
X1242597Y313799D01*
X1244275Y321297D02*
X1246061Y313799D01*
X1247846Y321297D02*
X1246061Y313799D01*
X1247846Y321297D02*
X1249631Y313799D01*
X1251417Y321297D02*
X1249631Y313799D01*
X1252916Y321297D02*
Y313799D01*
X1259486Y320226D02*
X1258772Y320940D01*
X1257701Y321297D01*
X1256273D01*
X1255202Y320940D01*
X1254487Y320226D01*
Y319512D01*
X1254844Y318798D01*
X1255202Y318441D01*
X1255916Y318084D01*
X1258058Y317370D01*
X1258772Y317013D01*
X1259129Y316655D01*
X1259486Y315941D01*
Y314870D01*
X1258772Y314156D01*
X1257701Y313799D01*
X1256273D01*
X1255202Y314156D01*
X1254487Y314870D01*
X1265806Y321297D02*
X1261164D01*
Y313799D01*
X1265806D01*
X1261164Y317727D02*
X1264021D01*
X1277947Y320226D02*
X1277232Y320940D01*
X1276161Y321297D01*
X1274733D01*
X1273662Y320940D01*
X1272948Y320226D01*
Y319512D01*
X1273305Y318798D01*
X1273662Y318441D01*
X1274376Y318084D01*
X1276518Y317370D01*
X1277232Y317013D01*
X1277590Y316655D01*
X1277947Y315941D01*
Y314870D01*
X1277232Y314156D01*
X1276161Y313799D01*
X1274733D01*
X1273662Y314156D01*
X1272948Y314870D01*
X1279625Y317370D02*
X1282838D01*
X1283910Y317727D01*
X1284267Y318084D01*
X1284624Y318798D01*
Y319869D01*
X1284267Y320583D01*
X1283910Y320940D01*
X1282838Y321297D01*
X1279625D01*
Y313799D01*
X1290944Y321297D02*
X1286302D01*
Y313799D01*
X1290944D01*
X1286302Y317727D02*
X1289159D01*
X1297550Y319512D02*
X1297192Y320226D01*
X1296478Y320940D01*
X1295764Y321297D01*
X1294336D01*
X1293622Y320940D01*
X1292908Y320226D01*
X1292551Y319512D01*
X1292194Y318441D01*
Y316655D01*
X1292551Y315584D01*
X1292908Y314870D01*
X1293622Y314156D01*
X1294336Y313799D01*
X1295764D01*
X1296478Y314156D01*
X1297192Y314870D01*
X1297550Y315584D01*
X1299656Y321297D02*
Y313799D01*
X1301227Y321297D02*
Y313799D01*
Y321297D02*
X1305869D01*
X1301227Y317727D02*
X1304084D01*
X1306726Y321297D02*
Y313799D01*
X1312939Y321297D02*
X1308297D01*
Y313799D01*
X1312939D01*
X1308297Y317727D02*
X1311154D01*
X1314189Y321297D02*
Y313799D01*
Y321297D02*
X1316688D01*
X1317760Y320940D01*
X1318474Y320226D01*
X1318831Y319512D01*
X1319188Y318441D01*
Y316655D01*
X1318831Y315584D01*
X1318474Y314870D01*
X1317760Y314156D01*
X1316688Y313799D01*
X1314189D01*
X1166899Y296297D02*
Y288799D01*
Y296297D02*
X1169398D01*
X1170470Y295940D01*
X1171184Y295226D01*
X1171541Y294512D01*
X1171898Y293441D01*
Y291655D01*
X1171541Y290584D01*
X1171184Y289870D01*
X1170470Y289156D01*
X1169398Y288799D01*
X1166899D01*
X1173576Y296297D02*
Y288799D01*
X1175147Y296297D02*
Y288799D01*
Y296297D02*
X1178004Y288799D01*
X1180860Y296297D02*
X1178004Y288799D01*
X1180860Y296297D02*
Y288799D01*
X1187644Y296297D02*
X1183003D01*
Y288799D01*
X1187644D01*
X1183003Y292727D02*
X1185859D01*
X1188894Y296297D02*
Y288799D01*
Y296297D02*
X1193893Y288799D01*
Y296297D02*
Y288799D01*
X1200963Y295226D02*
X1200249Y295940D01*
X1199178Y296297D01*
X1197750D01*
X1196678Y295940D01*
X1195964Y295226D01*
Y294512D01*
X1196321Y293798D01*
X1196678Y293441D01*
X1197392Y293084D01*
X1199535Y292370D01*
X1200249Y292013D01*
X1200606Y291655D01*
X1200963Y290941D01*
Y289870D01*
X1200249Y289156D01*
X1199178Y288799D01*
X1197750D01*
X1196678Y289156D01*
X1195964Y289870D01*
X1202641Y296297D02*
Y288799D01*
X1206355Y296297D02*
X1205641Y295940D01*
X1204926Y295226D01*
X1204570Y294512D01*
X1204212Y293441D01*
Y291655D01*
X1204570Y290584D01*
X1204926Y289870D01*
X1205641Y289156D01*
X1206355Y288799D01*
X1207783D01*
X1208497Y289156D01*
X1209211Y289870D01*
X1209568Y290584D01*
X1209925Y291655D01*
Y293441D01*
X1209568Y294512D01*
X1209211Y295226D01*
X1208497Y295940D01*
X1207783Y296297D01*
X1206355D01*
X1211675D02*
Y288799D01*
Y296297D02*
X1216674Y288799D01*
Y296297D02*
Y288799D01*
X1223744Y295226D02*
X1223030Y295940D01*
X1221959Y296297D01*
X1220530D01*
X1219459Y295940D01*
X1218745Y295226D01*
Y294512D01*
X1219102Y293798D01*
X1219459Y293441D01*
X1220173Y293084D01*
X1222316Y292370D01*
X1223030Y292013D01*
X1223387Y291655D01*
X1223744Y290941D01*
Y289870D01*
X1223030Y289156D01*
X1221959Y288799D01*
X1220530D01*
X1219459Y289156D01*
X1218745Y289870D01*
X1237027Y288799D02*
X1234170Y296297D01*
X1231314Y288799D01*
X1232385Y291299D02*
X1235956D01*
X1238776Y296297D02*
Y288799D01*
Y296297D02*
X1241990D01*
X1243061Y295940D01*
X1243418Y295583D01*
X1243775Y294869D01*
Y294155D01*
X1243418Y293441D01*
X1243061Y293084D01*
X1241990Y292727D01*
X1238776D01*
X1241276D02*
X1243775Y288799D01*
X1250095Y296297D02*
X1245454D01*
Y288799D01*
X1250095D01*
X1245454Y292727D02*
X1248310D01*
X1257237Y296297D02*
Y288799D01*
X1258808Y296297D02*
Y288799D01*
Y296297D02*
X1263807Y288799D01*
Y296297D02*
Y288799D01*
X1271769Y296297D02*
Y288799D01*
X1273340Y296297D02*
Y288799D01*
Y296297D02*
X1278339Y288799D01*
Y296297D02*
Y288799D01*
X1285766Y294512D02*
X1285409Y295226D01*
X1284695Y295940D01*
X1283981Y296297D01*
X1282553D01*
X1281839Y295940D01*
X1281124Y295226D01*
X1280767Y294512D01*
X1280410Y293441D01*
Y291655D01*
X1280767Y290584D01*
X1281124Y289870D01*
X1281839Y289156D01*
X1282553Y288799D01*
X1283981D01*
X1284695Y289156D01*
X1285409Y289870D01*
X1285766Y290584D01*
X1287873Y296297D02*
Y288799D01*
X1292872Y296297D02*
Y288799D01*
X1287873Y292727D02*
X1292872D01*
X1299585Y296297D02*
X1294943D01*
Y288799D01*
X1299585D01*
X1294943Y292727D02*
X1297799D01*
X1305834Y295226D02*
X1305119Y295940D01*
X1304048Y296297D01*
X1302620D01*
X1301549Y295940D01*
X1300834Y295226D01*
Y294512D01*
X1301192Y293798D01*
X1301549Y293441D01*
X1302263Y293084D01*
X1304405Y292370D01*
X1305119Y292013D01*
X1305476Y291655D01*
X1305834Y290941D01*
Y289870D01*
X1305119Y289156D01*
X1304048Y288799D01*
X1302620D01*
X1301549Y289156D01*
X1300834Y289870D01*
X1169398Y276297D02*
Y268799D01*
X1166899Y276297D02*
X1171898D01*
X1174933D02*
X1174219Y275940D01*
X1173505Y275226D01*
X1173148Y274512D01*
X1172791Y273441D01*
Y271656D01*
X1173148Y270584D01*
X1173505Y269870D01*
X1174219Y269156D01*
X1174933Y268799D01*
X1176361D01*
X1177075Y269156D01*
X1177789Y269870D01*
X1178147Y270584D01*
X1178504Y271656D01*
Y273441D01*
X1178147Y274512D01*
X1177789Y275226D01*
X1177075Y275940D01*
X1176361Y276297D01*
X1174933D01*
X1180253D02*
Y268799D01*
X1184538D01*
X1190001Y276297D02*
X1185359D01*
Y268799D01*
X1190001D01*
X1185359Y272727D02*
X1188216D01*
X1191251Y276297D02*
Y268799D01*
Y276297D02*
X1194464D01*
X1195536Y275940D01*
X1195893Y275583D01*
X1196250Y274869D01*
Y274155D01*
X1195893Y273441D01*
X1195536Y273084D01*
X1194464Y272727D01*
X1191251D01*
X1193750D02*
X1196250Y268799D01*
X1203641D02*
X1200785Y276297D01*
X1197928Y268799D01*
X1198999Y271299D02*
X1202570D01*
X1205391Y276297D02*
Y268799D01*
Y276297D02*
X1210390Y268799D01*
Y276297D02*
Y268799D01*
X1217817Y274512D02*
X1217460Y275226D01*
X1216745Y275940D01*
X1216031Y276297D01*
X1214603D01*
X1213889Y275940D01*
X1213175Y275226D01*
X1212818Y274512D01*
X1212461Y273441D01*
Y271656D01*
X1212818Y270584D01*
X1213175Y269870D01*
X1213889Y269156D01*
X1214603Y268799D01*
X1216031D01*
X1216745Y269156D01*
X1217460Y269870D01*
X1217817Y270584D01*
X1224565Y276297D02*
X1219923D01*
Y268799D01*
X1224565D01*
X1219923Y272727D02*
X1222780D01*
X1230814Y275226D02*
X1230100Y275940D01*
X1229029Y276297D01*
X1227600D01*
X1226529Y275940D01*
X1225815Y275226D01*
Y274512D01*
X1226172Y273798D01*
X1226529Y273441D01*
X1227243Y273084D01*
X1229386Y272370D01*
X1230100Y272013D01*
X1230457Y271656D01*
X1230814Y270941D01*
Y269870D01*
X1230100Y269156D01*
X1229029Y268799D01*
X1227600D01*
X1226529Y269156D01*
X1225815Y269870D01*
X1240526Y276297D02*
X1239812Y275940D01*
X1239098Y275226D01*
X1238741Y274512D01*
X1238384Y273441D01*
Y271656D01*
X1238741Y270584D01*
X1239098Y269870D01*
X1239812Y269156D01*
X1240526Y268799D01*
X1241954D01*
X1242669Y269156D01*
X1243383Y269870D01*
X1243740Y270584D01*
X1244097Y271656D01*
Y273441D01*
X1243740Y274512D01*
X1243383Y275226D01*
X1242669Y275940D01*
X1241954Y276297D01*
X1240526D01*
X1245846D02*
Y268799D01*
Y276297D02*
X1250845Y268799D01*
Y276297D02*
Y268799D01*
X1253273Y273798D02*
X1252916Y273441D01*
X1253273Y273084D01*
X1253630Y273441D01*
X1253273Y273798D01*
X1253630Y269156D02*
X1253273Y268799D01*
X1252916Y269156D01*
X1253273Y269513D01*
X1253630Y269156D01*
Y268442D01*
X1253273Y267728D01*
X1252916Y267371D01*
X1167256Y254512D02*
Y254869D01*
X1167613Y255583D01*
X1167970Y255940D01*
X1168684Y256297D01*
X1170113D01*
X1170827Y255940D01*
X1171184Y255583D01*
X1171541Y254869D01*
Y254155D01*
X1171184Y253441D01*
X1170470Y252370D01*
X1166899Y248799D01*
X1171898D01*
X1179468Y252370D02*
X1182681D01*
X1183753Y252727D01*
X1184110Y253084D01*
X1184467Y253798D01*
Y254869D01*
X1184110Y255583D01*
X1183753Y255940D01*
X1182681Y256297D01*
X1179468D01*
Y248799D01*
X1186145Y256297D02*
Y248799D01*
X1190430D01*
X1197143Y256297D02*
Y248799D01*
Y256297D02*
X1199642D01*
X1200713Y255940D01*
X1201427Y255226D01*
X1201784Y254512D01*
X1202141Y253441D01*
Y251656D01*
X1201784Y250584D01*
X1201427Y249870D01*
X1200713Y249156D01*
X1199642Y248799D01*
X1197143D01*
X1208461Y256297D02*
X1203820D01*
Y248799D01*
X1208461D01*
X1203820Y252727D02*
X1206676D01*
X1215067Y254512D02*
X1214710Y255226D01*
X1213996Y255940D01*
X1213282Y256297D01*
X1211854D01*
X1211139Y255940D01*
X1210425Y255226D01*
X1210068Y254512D01*
X1209711Y253441D01*
Y251656D01*
X1210068Y250584D01*
X1210425Y249870D01*
X1211139Y249156D01*
X1211854Y248799D01*
X1213282D01*
X1213996Y249156D01*
X1214710Y249870D01*
X1215067Y250584D01*
X1217174Y256297D02*
Y248799D01*
X1218745Y256297D02*
Y248799D01*
Y256297D02*
X1221601Y248799D01*
X1224458Y256297D02*
X1221601Y248799D01*
X1224458Y256297D02*
Y248799D01*
X1232314D02*
X1229457Y256297D01*
X1226600Y248799D01*
X1227672Y251298D02*
X1231242D01*
X1234063Y256297D02*
Y248799D01*
X1238348D01*
X1244168Y255226D02*
X1243454Y255940D01*
X1242383Y256297D01*
X1240955D01*
X1239883Y255940D01*
X1239169Y255226D01*
Y254512D01*
X1239526Y253798D01*
X1239883Y253441D01*
X1240598Y253084D01*
X1242740Y252370D01*
X1243454Y252013D01*
X1243811Y251656D01*
X1244168Y250941D01*
Y249870D01*
X1243454Y249156D01*
X1242383Y248799D01*
X1240955D01*
X1239883Y249156D01*
X1239169Y249870D01*
X1254951Y255226D02*
Y248799D01*
X1251738Y252013D02*
X1258165D01*
X1167613Y236297D02*
X1171541D01*
X1169398Y233441D01*
X1170470D01*
X1171184Y233084D01*
X1171541Y232727D01*
X1171898Y231656D01*
Y230941D01*
X1171541Y229870D01*
X1170827Y229156D01*
X1169755Y228799D01*
X1168684D01*
X1167613Y229156D01*
X1167256Y229513D01*
X1166899Y230227D01*
X1179468Y232370D02*
X1182681D01*
X1183753Y232727D01*
X1184110Y233084D01*
X1184467Y233798D01*
Y234869D01*
X1184110Y235583D01*
X1183753Y235940D01*
X1182681Y236297D01*
X1179468D01*
Y228799D01*
X1186145Y236297D02*
Y228799D01*
X1190430D01*
X1197143Y236297D02*
Y228799D01*
Y236297D02*
X1199642D01*
X1200713Y235940D01*
X1201427Y235226D01*
X1201784Y234512D01*
X1202141Y233441D01*
Y231656D01*
X1201784Y230584D01*
X1201427Y229870D01*
X1200713Y229156D01*
X1199642Y228799D01*
X1197143D01*
X1208461Y236297D02*
X1203820D01*
Y228799D01*
X1208461D01*
X1203820Y232727D02*
X1206676D01*
X1215067Y234512D02*
X1214710Y235226D01*
X1213996Y235940D01*
X1213282Y236297D01*
X1211854D01*
X1211139Y235940D01*
X1210425Y235226D01*
X1210068Y234512D01*
X1209711Y233441D01*
Y231656D01*
X1210068Y230584D01*
X1210425Y229870D01*
X1211139Y229156D01*
X1211854Y228799D01*
X1213282D01*
X1213996Y229156D01*
X1214710Y229870D01*
X1215067Y230584D01*
X1217174Y236297D02*
Y228799D01*
X1218745Y236297D02*
Y228799D01*
Y236297D02*
X1221601Y228799D01*
X1224458Y236297D02*
X1221601Y228799D01*
X1224458Y236297D02*
Y228799D01*
X1232314D02*
X1229457Y236297D01*
X1226600Y228799D01*
X1227672Y231298D02*
X1231242D01*
X1234063Y236297D02*
Y228799D01*
X1238348D01*
X1244168Y235226D02*
X1243454Y235940D01*
X1242383Y236297D01*
X1240955D01*
X1239883Y235940D01*
X1239169Y235226D01*
Y234512D01*
X1239526Y233798D01*
X1239883Y233441D01*
X1240598Y233084D01*
X1242740Y232370D01*
X1243454Y232013D01*
X1243811Y231656D01*
X1244168Y230941D01*
Y229870D01*
X1243454Y229156D01*
X1242383Y228799D01*
X1240955D01*
X1239883Y229156D01*
X1239169Y229870D01*
X1254951Y235226D02*
Y228799D01*
X1251738Y232013D02*
X1258165D01*
X1172612Y208799D02*
X1169755Y216297D01*
X1166899Y208799D01*
X1167970Y211298D02*
X1171541D01*
X1174362Y216297D02*
Y208799D01*
Y216297D02*
X1179361Y208799D01*
Y216297D02*
Y208799D01*
X1186788Y214512D02*
X1186430Y215226D01*
X1185716Y215940D01*
X1185002Y216297D01*
X1183574D01*
X1182860Y215940D01*
X1182146Y215226D01*
X1181789Y214512D01*
X1181432Y213441D01*
Y211655D01*
X1181789Y210584D01*
X1182146Y209870D01*
X1182860Y209156D01*
X1183574Y208799D01*
X1185002D01*
X1185716Y209156D01*
X1186430Y209870D01*
X1186788Y210584D01*
Y211655D01*
X1185002D02*
X1186788D01*
X1188501Y216297D02*
Y208799D01*
X1192786D01*
X1198249Y216297D02*
X1193608D01*
Y208799D01*
X1198249D01*
X1193608Y212727D02*
X1196464D01*
X1204498Y215226D02*
X1203784Y215940D01*
X1202713Y216297D01*
X1201285D01*
X1200213Y215940D01*
X1199499Y215226D01*
Y214512D01*
X1199856Y213798D01*
X1200213Y213441D01*
X1200927Y213084D01*
X1203070Y212370D01*
X1203784Y212013D01*
X1204141Y211655D01*
X1204498Y210941D01*
Y209870D01*
X1203784Y209156D01*
X1202713Y208799D01*
X1201285D01*
X1200213Y209156D01*
X1199499Y209870D01*
X1215281Y215226D02*
Y208799D01*
X1212068Y212013D02*
X1218495D01*
X1166899Y196297D02*
Y188799D01*
Y196297D02*
X1171541D01*
X1166899Y192727D02*
X1169755D01*
X1172398Y196297D02*
Y188799D01*
Y196297D02*
X1175611D01*
X1176683Y195940D01*
X1177040Y195583D01*
X1177397Y194869D01*
Y194155D01*
X1177040Y193441D01*
X1176683Y193084D01*
X1175611Y192727D01*
X1172398D01*
X1174897D02*
X1177397Y188799D01*
X1184788D02*
X1181931Y196297D01*
X1179075Y188799D01*
X1180146Y191298D02*
X1183717D01*
X1191894Y194512D02*
X1191537Y195226D01*
X1190823Y195940D01*
X1190108Y196297D01*
X1188680D01*
X1187966Y195940D01*
X1187252Y195226D01*
X1186895Y194512D01*
X1186538Y193441D01*
Y191656D01*
X1186895Y190584D01*
X1187252Y189870D01*
X1187966Y189156D01*
X1188680Y188799D01*
X1190108D01*
X1190823Y189156D01*
X1191537Y189870D01*
X1191894Y190584D01*
X1196500Y196297D02*
Y188799D01*
X1194000Y196297D02*
X1198999D01*
X1199892D02*
Y188799D01*
X1203605Y196297D02*
X1202891Y195940D01*
X1202177Y195226D01*
X1201820Y194512D01*
X1201463Y193441D01*
Y191656D01*
X1201820Y190584D01*
X1202177Y189870D01*
X1202891Y189156D01*
X1203605Y188799D01*
X1205034D01*
X1205748Y189156D01*
X1206462Y189870D01*
X1206819Y190584D01*
X1207176Y191656D01*
Y193441D01*
X1206819Y194512D01*
X1206462Y195226D01*
X1205748Y195940D01*
X1205034Y196297D01*
X1203605D01*
X1208926D02*
Y188799D01*
Y196297D02*
X1213925Y188799D01*
Y196297D02*
Y188799D01*
X1220994Y195226D02*
X1220280Y195940D01*
X1219209Y196297D01*
X1217781D01*
X1216710Y195940D01*
X1215996Y195226D01*
Y194512D01*
X1216353Y193798D01*
X1216710Y193441D01*
X1217424Y193084D01*
X1219566Y192370D01*
X1220280Y192013D01*
X1220638Y191656D01*
X1220994Y190941D01*
Y189870D01*
X1220280Y189156D01*
X1219209Y188799D01*
X1217781D01*
X1216710Y189156D01*
X1215996Y189870D01*
X1231778Y195226D02*
Y188799D01*
X1228564Y192013D02*
X1234991D01*
X1451898Y320226D02*
X1451184Y320940D01*
X1450113Y321297D01*
X1448684D01*
X1447613Y320940D01*
X1446899Y320226D01*
Y319512D01*
X1447256Y318798D01*
X1447613Y318441D01*
X1448327Y318084D01*
X1450470Y317370D01*
X1451184Y317013D01*
X1451541Y316655D01*
X1451898Y315941D01*
Y314870D01*
X1451184Y314156D01*
X1450113Y313799D01*
X1448684D01*
X1447613Y314156D01*
X1446899Y314870D01*
X1453576Y321297D02*
Y313799D01*
X1460503Y319512D02*
X1460146Y320226D01*
X1459432Y320940D01*
X1458718Y321297D01*
X1457290D01*
X1456575Y320940D01*
X1455861Y320226D01*
X1455504Y319512D01*
X1455147Y318441D01*
Y316655D01*
X1455504Y315584D01*
X1455861Y314870D01*
X1456575Y314156D01*
X1457290Y313799D01*
X1458718D01*
X1459432Y314156D01*
X1460146Y314870D01*
X1460503Y315584D01*
Y316655D01*
X1458718D02*
X1460503D01*
X1462217Y321297D02*
Y313799D01*
Y321297D02*
X1467216Y313799D01*
Y321297D02*
Y313799D01*
X1475000D02*
X1472144Y321297D01*
X1469287Y313799D01*
X1470358Y316299D02*
X1473929D01*
X1479249Y321297D02*
Y313799D01*
X1476750Y321297D02*
X1481749D01*
X1482641D02*
Y315941D01*
X1482998Y314870D01*
X1483712Y314156D01*
X1484784Y313799D01*
X1485498D01*
X1486569Y314156D01*
X1487283Y314870D01*
X1487640Y315941D01*
Y321297D01*
X1489711D02*
Y313799D01*
Y321297D02*
X1492925D01*
X1493996Y320940D01*
X1494353Y320583D01*
X1494710Y319869D01*
Y319155D01*
X1494353Y318441D01*
X1493996Y318084D01*
X1492925Y317727D01*
X1489711D01*
X1492211D02*
X1494710Y313799D01*
X1501030Y321297D02*
X1496388D01*
Y313799D01*
X1501030D01*
X1496388Y317727D02*
X1499245D01*
X1507279Y320226D02*
X1506565Y320940D01*
X1505494Y321297D01*
X1504065D01*
X1502994Y320940D01*
X1502280Y320226D01*
Y319512D01*
X1502637Y318798D01*
X1502994Y318441D01*
X1503708Y318084D01*
X1505851Y317370D01*
X1506565Y317013D01*
X1506922Y316655D01*
X1507279Y315941D01*
Y314870D01*
X1506565Y314156D01*
X1505494Y313799D01*
X1504065D01*
X1502994Y314156D01*
X1502280Y314870D01*
X1601899Y321297D02*
Y313799D01*
Y321297D02*
X1604399D01*
X1605470Y320940D01*
X1606184Y320226D01*
X1606541Y319512D01*
X1606898Y318441D01*
Y316655D01*
X1606541Y315584D01*
X1606184Y314870D01*
X1605470Y314156D01*
X1604399Y313799D01*
X1601899D01*
X1614289D02*
X1611433Y321297D01*
X1608576Y313799D01*
X1609647Y316299D02*
X1613218D01*
X1618538Y321297D02*
Y313799D01*
X1616039Y321297D02*
X1621038D01*
X1626572D02*
X1621930D01*
Y313799D01*
X1626572D01*
X1621930Y317727D02*
X1624787D01*
X1411899Y291297D02*
Y283799D01*
Y291297D02*
X1414398D01*
X1415470Y290940D01*
X1416184Y290226D01*
X1416541Y289512D01*
X1416898Y288441D01*
Y286655D01*
X1416541Y285584D01*
X1416184Y284870D01*
X1415470Y284156D01*
X1414398Y283799D01*
X1411899D01*
X1418576Y291297D02*
Y283799D01*
Y291297D02*
X1421790D01*
X1422861Y290940D01*
X1423218Y290583D01*
X1423575Y289869D01*
Y289155D01*
X1423218Y288441D01*
X1422861Y288084D01*
X1421790Y287727D01*
X1418576D01*
X1421076D02*
X1423575Y283799D01*
X1430966D02*
X1428110Y291297D01*
X1425253Y283799D01*
X1426324Y286298D02*
X1429895D01*
X1432716Y291297D02*
X1434501Y283799D01*
X1436287Y291297D02*
X1434501Y283799D01*
X1436287Y291297D02*
X1438072Y283799D01*
X1439857Y291297D02*
X1438072Y283799D01*
X1441357Y291297D02*
Y283799D01*
Y291297D02*
X1446356Y283799D01*
Y291297D02*
Y283799D01*
X1417255Y259512D02*
X1416898Y260226D01*
X1416184Y260940D01*
X1415470Y261297D01*
X1414041D01*
X1413327Y260940D01*
X1412613Y260226D01*
X1412256Y259512D01*
X1411899Y258441D01*
Y256656D01*
X1412256Y255584D01*
X1412613Y254870D01*
X1413327Y254156D01*
X1414041Y253799D01*
X1415470D01*
X1416184Y254156D01*
X1416898Y254870D01*
X1417255Y255584D01*
X1419362Y261297D02*
Y253799D01*
X1424361Y261297D02*
Y253799D01*
X1419362Y257727D02*
X1424361D01*
X1431073Y261297D02*
X1426432D01*
Y253799D01*
X1431073D01*
X1426432Y257727D02*
X1429288D01*
X1437679Y259512D02*
X1437322Y260226D01*
X1436608Y260940D01*
X1435894Y261297D01*
X1434466D01*
X1433751Y260940D01*
X1433037Y260226D01*
X1432680Y259512D01*
X1432323Y258441D01*
Y256656D01*
X1432680Y255584D01*
X1433037Y254870D01*
X1433751Y254156D01*
X1434466Y253799D01*
X1435894D01*
X1436608Y254156D01*
X1437322Y254870D01*
X1437679Y255584D01*
X1439786Y261297D02*
Y253799D01*
X1444785Y261297D02*
X1439786Y256298D01*
X1441571Y258084D02*
X1444785Y253799D01*
X1451105Y261297D02*
X1446463D01*
Y253799D01*
X1451105D01*
X1446463Y257727D02*
X1449319D01*
X1452355Y261297D02*
Y253799D01*
Y261297D02*
X1454854D01*
X1455925Y260940D01*
X1456639Y260226D01*
X1456997Y259512D01*
X1457353Y258441D01*
Y256656D01*
X1456997Y255584D01*
X1456639Y254870D01*
X1455925Y254156D01*
X1454854Y253799D01*
X1452355D01*
X1416541Y231297D02*
X1411899D01*
Y223799D01*
X1416541D01*
X1411899Y227727D02*
X1414756D01*
X1417791Y231297D02*
Y223799D01*
Y231297D02*
X1422789Y223799D01*
Y231297D02*
Y223799D01*
X1430217Y229512D02*
X1429859Y230226D01*
X1429145Y230940D01*
X1428431Y231297D01*
X1427003D01*
X1426289Y230940D01*
X1425575Y230226D01*
X1425218Y229512D01*
X1424860Y228441D01*
Y226656D01*
X1425218Y225584D01*
X1425575Y224870D01*
X1426289Y224156D01*
X1427003Y223799D01*
X1428431D01*
X1429145Y224156D01*
X1429859Y224870D01*
X1430217Y225584D01*
Y226656D01*
X1428431D02*
X1430217D01*
X1431930Y231297D02*
Y223799D01*
Y231297D02*
X1435144D01*
X1436215Y230940D01*
X1436572Y230583D01*
X1436929Y229869D01*
Y229155D01*
X1436572Y228441D01*
X1436215Y228084D01*
X1435144Y227727D01*
X1431930D01*
X1434430D02*
X1436929Y223799D01*
X1443964Y229512D02*
X1443606Y230226D01*
X1442892Y230940D01*
X1442178Y231297D01*
X1440750D01*
X1440036Y230940D01*
X1439322Y230226D01*
X1438965Y229512D01*
X1438608Y228441D01*
Y226656D01*
X1438965Y225584D01*
X1439322Y224870D01*
X1440036Y224156D01*
X1440750Y223799D01*
X1442178D01*
X1442892Y224156D01*
X1443606Y224870D01*
X1443964Y225584D01*
Y226656D01*
X1442178D02*
X1443964D01*
X1411899Y201297D02*
Y193799D01*
X1418469Y200226D02*
X1417755Y200940D01*
X1416684Y201297D01*
X1415255D01*
X1414184Y200940D01*
X1413470Y200226D01*
Y199512D01*
X1413827Y198798D01*
X1414184Y198441D01*
X1414898Y198084D01*
X1417041Y197370D01*
X1417755Y197013D01*
X1418112Y196655D01*
X1418469Y195941D01*
Y194870D01*
X1417755Y194156D01*
X1416684Y193799D01*
X1415255D01*
X1414184Y194156D01*
X1413470Y194870D01*
X1425146Y200226D02*
X1424432Y200940D01*
X1423361Y201297D01*
X1421933D01*
X1420861Y200940D01*
X1420147Y200226D01*
Y199512D01*
X1420504Y198798D01*
X1420861Y198441D01*
X1421576Y198084D01*
X1423718Y197370D01*
X1424432Y197013D01*
X1424789Y196655D01*
X1425146Y195941D01*
Y194870D01*
X1424432Y194156D01*
X1423361Y193799D01*
X1421933D01*
X1420861Y194156D01*
X1420147Y194870D01*
X1426824Y201297D02*
Y195941D01*
X1427181Y194870D01*
X1427896Y194156D01*
X1428967Y193799D01*
X1429681D01*
X1430752Y194156D01*
X1431466Y194870D01*
X1431823Y195941D01*
Y201297D01*
X1438536D02*
X1433894D01*
Y193799D01*
X1438536D01*
X1433894Y197727D02*
X1436751D01*
X1439786Y201297D02*
Y193799D01*
Y201297D02*
X1442285D01*
X1443357Y200940D01*
X1444071Y200226D01*
X1444428Y199512D01*
X1444785Y198441D01*
Y196655D01*
X1444428Y195584D01*
X1444071Y194870D01*
X1443357Y194156D01*
X1442285Y193799D01*
X1439786D01*
X1666898Y145226D02*
X1666184Y145940D01*
X1665113Y146297D01*
X1663684D01*
X1662613Y145940D01*
X1661899Y145226D01*
Y144512D01*
X1662256Y143798D01*
X1662613Y143441D01*
X1663327Y143084D01*
X1665470Y142370D01*
X1666184Y142013D01*
X1666541Y141656D01*
X1666898Y140941D01*
Y139870D01*
X1666184Y139156D01*
X1665113Y138799D01*
X1663684D01*
X1662613Y139156D01*
X1661899Y139870D01*
X1668576Y146297D02*
Y138799D01*
X1675146Y146297D02*
X1670147Y138799D01*
Y146297D02*
X1675146D01*
X1670147Y138799D02*
X1675146D01*
X1681466Y146297D02*
X1676824D01*
Y138799D01*
X1681466D01*
X1676824Y142727D02*
X1679681D01*
X1711899Y146297D02*
Y138799D01*
Y146297D02*
X1716541D01*
X1711899Y142727D02*
X1714755D01*
X1722397Y145226D02*
X1721683Y145940D01*
X1720611Y146297D01*
X1719183D01*
X1718112Y145940D01*
X1717398Y145226D01*
Y144512D01*
X1717755Y143798D01*
X1718112Y143441D01*
X1718826Y143084D01*
X1720968Y142370D01*
X1721683Y142013D01*
X1722040Y141656D01*
X1722397Y140941D01*
Y139870D01*
X1721683Y139156D01*
X1720611Y138799D01*
X1719183D01*
X1718112Y139156D01*
X1717398Y139870D01*
X1729431Y144512D02*
X1729074Y145226D01*
X1728360Y145940D01*
X1727646Y146297D01*
X1726217D01*
X1725503Y145940D01*
X1724789Y145226D01*
X1724432Y144512D01*
X1724075Y143441D01*
Y141656D01*
X1724432Y140584D01*
X1724789Y139870D01*
X1725503Y139156D01*
X1726217Y138799D01*
X1727646D01*
X1728360Y139156D01*
X1729074Y139870D01*
X1729431Y140584D01*
X1731538Y146297D02*
Y138799D01*
Y146297D02*
X1734394Y138799D01*
X1737251Y146297D02*
X1734394Y138799D01*
X1737251Y146297D02*
Y138799D01*
X1745285Y146297D02*
Y138799D01*
Y146297D02*
X1750284Y138799D01*
Y146297D02*
Y138799D01*
X1754497Y146297D02*
X1753783Y145940D01*
X1753069Y145226D01*
X1752712Y144512D01*
X1752355Y143441D01*
Y141656D01*
X1752712Y140584D01*
X1753069Y139870D01*
X1753783Y139156D01*
X1754497Y138799D01*
X1755925D01*
X1756639Y139156D01*
X1757354Y139870D01*
X1757711Y140584D01*
X1758068Y141656D01*
Y143441D01*
X1757711Y144512D01*
X1757354Y145226D01*
X1756639Y145940D01*
X1755925Y146297D01*
X1754497D01*
X1811899D02*
Y138799D01*
Y146297D02*
X1814399D01*
X1815470Y145940D01*
X1816184Y145226D01*
X1816541Y144512D01*
X1816898Y143441D01*
Y141656D01*
X1816541Y140584D01*
X1816184Y139870D01*
X1815470Y139156D01*
X1814399Y138799D01*
X1811899D01*
X1818576Y146297D02*
X1820362Y138799D01*
X1822147Y146297D02*
X1820362Y138799D01*
X1822147Y146297D02*
X1823932Y138799D01*
X1825718Y146297D02*
X1823932Y138799D01*
X1832573Y144512D02*
X1832216Y145226D01*
X1831502Y145940D01*
X1830788Y146297D01*
X1829359D01*
X1828645Y145940D01*
X1827931Y145226D01*
X1827574Y144512D01*
X1827217Y143441D01*
Y141656D01*
X1827574Y140584D01*
X1827931Y139870D01*
X1828645Y139156D01*
X1829359Y138799D01*
X1830788D01*
X1831502Y139156D01*
X1832216Y139870D01*
X1832573Y140584D01*
Y141656D01*
X1830788D02*
X1832573D01*
X1840179Y146297D02*
Y138799D01*
Y146297D02*
X1845178Y138799D01*
Y146297D02*
Y138799D01*
X1849391Y146297D02*
X1848677Y145940D01*
X1847963Y145226D01*
X1847606Y144512D01*
X1847249Y143441D01*
Y141656D01*
X1847606Y140584D01*
X1847963Y139870D01*
X1848677Y139156D01*
X1849391Y138799D01*
X1850819D01*
X1851533Y139156D01*
X1852247Y139870D01*
X1852605Y140584D01*
X1852962Y141656D01*
Y143441D01*
X1852605Y144512D01*
X1852247Y145226D01*
X1851533Y145940D01*
X1850819Y146297D01*
X1849391D01*
X1661898Y95226D02*
X1661184Y95940D01*
X1660113Y96297D01*
X1658684D01*
X1657613Y95940D01*
X1656899Y95226D01*
Y94512D01*
X1657256Y93798D01*
X1657613Y93441D01*
X1658327Y93084D01*
X1660470Y92370D01*
X1661184Y92013D01*
X1661541Y91655D01*
X1661898Y90941D01*
Y89870D01*
X1661184Y89156D01*
X1660113Y88799D01*
X1658684D01*
X1657613Y89156D01*
X1656899Y89870D01*
X1668932Y94512D02*
X1668575Y95226D01*
X1667861Y95940D01*
X1667147Y96297D01*
X1665718D01*
X1665004Y95940D01*
X1664290Y95226D01*
X1663933Y94512D01*
X1663576Y93441D01*
Y91655D01*
X1663933Y90584D01*
X1664290Y89870D01*
X1665004Y89156D01*
X1665718Y88799D01*
X1667147D01*
X1667861Y89156D01*
X1668575Y89870D01*
X1668932Y90584D01*
X1676752Y88799D02*
X1673895Y96297D01*
X1671039Y88799D01*
X1672110Y91299D02*
X1675681D01*
X1678502Y96297D02*
Y88799D01*
X1682786D01*
X1688249Y96297D02*
X1683608D01*
Y88799D01*
X1688249D01*
X1683608Y92727D02*
X1686464D01*
X1986898Y95226D02*
X1986184Y95940D01*
X1985113Y96297D01*
X1983684D01*
X1982613Y95940D01*
X1981899Y95226D01*
Y94512D01*
X1982256Y93798D01*
X1982613Y93441D01*
X1983327Y93084D01*
X1985470Y92370D01*
X1986184Y92013D01*
X1986541Y91655D01*
X1986898Y90941D01*
Y89870D01*
X1986184Y89156D01*
X1985113Y88799D01*
X1983684D01*
X1982613Y89156D01*
X1981899Y89870D01*
X1988576Y96297D02*
Y88799D01*
X1993575Y96297D02*
Y88799D01*
X1988576Y92727D02*
X1993575D01*
X2000288Y96297D02*
X1995646D01*
Y88799D01*
X2000288D01*
X1995646Y92727D02*
X1998503D01*
X2006179Y96297D02*
X2001538D01*
Y88799D01*
X2006179D01*
X2001538Y92727D02*
X2004394D01*
X2009929Y96297D02*
Y88799D01*
X2007429Y96297D02*
X2012428D01*
X1166899Y321297D02*
Y315941D01*
X1167256Y314870D01*
X1167970Y314156D01*
X1169041Y313799D01*
X1169755D01*
X1170827Y314156D01*
X1171541Y314870D01*
X1171898Y315941D01*
Y321297D01*
X1173969D02*
Y313799D01*
Y321297D02*
X1178968Y313799D01*
Y321297D02*
Y313799D01*
X1181039Y321297D02*
Y313799D01*
X1185324D01*
X1190787Y321297D02*
X1186145D01*
Y313799D01*
X1190787D01*
X1186145Y317727D02*
X1189001D01*
X1197035Y320226D02*
X1196321Y320940D01*
X1195250Y321297D01*
X1193822D01*
X1192751Y320940D01*
X1192037Y320226D01*
Y319512D01*
X1192393Y318798D01*
X1192751Y318441D01*
X1193465Y318084D01*
X1195607Y317370D01*
X1196321Y317013D01*
X1196678Y316655D01*
X1197035Y315941D01*
Y314870D01*
X1196321Y314156D01*
X1195250Y313799D01*
X1193822D01*
X1192751Y314156D01*
X1192037Y314870D01*
X1203712Y320226D02*
X1202998Y320940D01*
X1201927Y321297D01*
X1200499D01*
X1199428Y320940D01*
X1198714Y320226D01*
Y319512D01*
X1199071Y318798D01*
X1199428Y318441D01*
X1200142Y318084D01*
X1202284Y317370D01*
X1202998Y317013D01*
X1203356Y316655D01*
X1203712Y315941D01*
Y314870D01*
X1202998Y314156D01*
X1201927Y313799D01*
X1200499D01*
X1199428Y314156D01*
X1198714Y314870D01*
X1213425Y321297D02*
X1212711Y320940D01*
X1211996Y320226D01*
X1211639Y319512D01*
X1211282Y318441D01*
Y316655D01*
X1211639Y315584D01*
X1211996Y314870D01*
X1212711Y314156D01*
X1213425Y313799D01*
X1214853D01*
X1215567Y314156D01*
X1216281Y314870D01*
X1216638Y315584D01*
X1216995Y316655D01*
Y318441D01*
X1216638Y319512D01*
X1216281Y320226D01*
X1215567Y320940D01*
X1214853Y321297D01*
X1213425D01*
X1221245D02*
Y313799D01*
X1218745Y321297D02*
X1223744D01*
X1224637D02*
Y313799D01*
X1229636Y321297D02*
Y313799D01*
X1224637Y317727D02*
X1229636D01*
X1236348Y321297D02*
X1231707D01*
Y313799D01*
X1236348D01*
X1231707Y317727D02*
X1234563D01*
X1237598Y321297D02*
Y313799D01*
Y321297D02*
X1240812D01*
X1241883Y320940D01*
X1242240Y320583D01*
X1242597Y319869D01*
Y319155D01*
X1242240Y318441D01*
X1241883Y318084D01*
X1240812Y317727D01*
X1237598D01*
X1240098D02*
X1242597Y313799D01*
X1244275Y321297D02*
X1246061Y313799D01*
X1247846Y321297D02*
X1246061Y313799D01*
X1247846Y321297D02*
X1249631Y313799D01*
X1251417Y321297D02*
X1249631Y313799D01*
X1252916Y321297D02*
Y313799D01*
X1259486Y320226D02*
X1258772Y320940D01*
X1257701Y321297D01*
X1256273D01*
X1255202Y320940D01*
X1254487Y320226D01*
Y319512D01*
X1254844Y318798D01*
X1255202Y318441D01*
X1255916Y318084D01*
X1258058Y317370D01*
X1258772Y317013D01*
X1259129Y316655D01*
X1259486Y315941D01*
Y314870D01*
X1258772Y314156D01*
X1257701Y313799D01*
X1256273D01*
X1255202Y314156D01*
X1254487Y314870D01*
X1265806Y321297D02*
X1261164D01*
Y313799D01*
X1265806D01*
X1261164Y317727D02*
X1264021D01*
X1277947Y320226D02*
X1277232Y320940D01*
X1276161Y321297D01*
X1274733D01*
X1273662Y320940D01*
X1272948Y320226D01*
Y319512D01*
X1273305Y318798D01*
X1273662Y318441D01*
X1274376Y318084D01*
X1276518Y317370D01*
X1277232Y317013D01*
X1277590Y316655D01*
X1277947Y315941D01*
Y314870D01*
X1277232Y314156D01*
X1276161Y313799D01*
X1274733D01*
X1273662Y314156D01*
X1272948Y314870D01*
X1279625Y317370D02*
X1282838D01*
X1283910Y317727D01*
X1284267Y318084D01*
X1284624Y318798D01*
Y319869D01*
X1284267Y320583D01*
X1283910Y320940D01*
X1282838Y321297D01*
X1279625D01*
Y313799D01*
X1290944Y321297D02*
X1286302D01*
Y313799D01*
X1290944D01*
X1286302Y317727D02*
X1289159D01*
X1297550Y319512D02*
X1297192Y320226D01*
X1296478Y320940D01*
X1295764Y321297D01*
X1294336D01*
X1293622Y320940D01*
X1292908Y320226D01*
X1292551Y319512D01*
X1292194Y318441D01*
Y316655D01*
X1292551Y315584D01*
X1292908Y314870D01*
X1293622Y314156D01*
X1294336Y313799D01*
X1295764D01*
X1296478Y314156D01*
X1297192Y314870D01*
X1297550Y315584D01*
X1299656Y321297D02*
Y313799D01*
X1301227Y321297D02*
Y313799D01*
Y321297D02*
X1305869D01*
X1301227Y317727D02*
X1304084D01*
X1306726Y321297D02*
Y313799D01*
X1312939Y321297D02*
X1308297D01*
Y313799D01*
X1312939D01*
X1308297Y317727D02*
X1311154D01*
X1314189Y321297D02*
Y313799D01*
Y321297D02*
X1316688D01*
X1317760Y320940D01*
X1318474Y320226D01*
X1318831Y319512D01*
X1319188Y318441D01*
Y316655D01*
X1318831Y315584D01*
X1318474Y314870D01*
X1317760Y314156D01*
X1316688Y313799D01*
X1314189D01*
X1166899Y296297D02*
Y288799D01*
Y296297D02*
X1169398D01*
X1170470Y295940D01*
X1171184Y295226D01*
X1171541Y294512D01*
X1171898Y293441D01*
Y291655D01*
X1171541Y290584D01*
X1171184Y289870D01*
X1170470Y289156D01*
X1169398Y288799D01*
X1166899D01*
X1173576Y296297D02*
Y288799D01*
X1175147Y296297D02*
Y288799D01*
Y296297D02*
X1178004Y288799D01*
X1180860Y296297D02*
X1178004Y288799D01*
X1180860Y296297D02*
Y288799D01*
X1187644Y296297D02*
X1183003D01*
Y288799D01*
X1187644D01*
X1183003Y292727D02*
X1185859D01*
X1188894Y296297D02*
Y288799D01*
Y296297D02*
X1193893Y288799D01*
Y296297D02*
Y288799D01*
X1200963Y295226D02*
X1200249Y295940D01*
X1199178Y296297D01*
X1197750D01*
X1196678Y295940D01*
X1195964Y295226D01*
Y294512D01*
X1196321Y293798D01*
X1196678Y293441D01*
X1197392Y293084D01*
X1199535Y292370D01*
X1200249Y292013D01*
X1200606Y291655D01*
X1200963Y290941D01*
Y289870D01*
X1200249Y289156D01*
X1199178Y288799D01*
X1197750D01*
X1196678Y289156D01*
X1195964Y289870D01*
X1202641Y296297D02*
Y288799D01*
X1206355Y296297D02*
X1205641Y295940D01*
X1204926Y295226D01*
X1204570Y294512D01*
X1204212Y293441D01*
Y291655D01*
X1204570Y290584D01*
X1204926Y289870D01*
X1205641Y289156D01*
X1206355Y288799D01*
X1207783D01*
X1208497Y289156D01*
X1209211Y289870D01*
X1209568Y290584D01*
X1209925Y291655D01*
Y293441D01*
X1209568Y294512D01*
X1209211Y295226D01*
X1208497Y295940D01*
X1207783Y296297D01*
X1206355D01*
X1211675D02*
Y288799D01*
Y296297D02*
X1216674Y288799D01*
Y296297D02*
Y288799D01*
X1223744Y295226D02*
X1223030Y295940D01*
X1221959Y296297D01*
X1220530D01*
X1219459Y295940D01*
X1218745Y295226D01*
Y294512D01*
X1219102Y293798D01*
X1219459Y293441D01*
X1220173Y293084D01*
X1222316Y292370D01*
X1223030Y292013D01*
X1223387Y291655D01*
X1223744Y290941D01*
Y289870D01*
X1223030Y289156D01*
X1221959Y288799D01*
X1220530D01*
X1219459Y289156D01*
X1218745Y289870D01*
X1237027Y288799D02*
X1234170Y296297D01*
X1231314Y288799D01*
X1232385Y291299D02*
X1235956D01*
X1238776Y296297D02*
Y288799D01*
Y296297D02*
X1241990D01*
X1243061Y295940D01*
X1243418Y295583D01*
X1243775Y294869D01*
Y294155D01*
X1243418Y293441D01*
X1243061Y293084D01*
X1241990Y292727D01*
X1238776D01*
X1241276D02*
X1243775Y288799D01*
X1250095Y296297D02*
X1245454D01*
Y288799D01*
X1250095D01*
X1245454Y292727D02*
X1248310D01*
X1257237Y296297D02*
Y288799D01*
X1258808Y296297D02*
Y288799D01*
Y296297D02*
X1263807Y288799D01*
Y296297D02*
Y288799D01*
X1271769Y296297D02*
Y288799D01*
X1273340Y296297D02*
Y288799D01*
Y296297D02*
X1278339Y288799D01*
Y296297D02*
Y288799D01*
X1285766Y294512D02*
X1285409Y295226D01*
X1284695Y295940D01*
X1283981Y296297D01*
X1282553D01*
X1281839Y295940D01*
X1281124Y295226D01*
X1280767Y294512D01*
X1280410Y293441D01*
Y291655D01*
X1280767Y290584D01*
X1281124Y289870D01*
X1281839Y289156D01*
X1282553Y288799D01*
X1283981D01*
X1284695Y289156D01*
X1285409Y289870D01*
X1285766Y290584D01*
X1287873Y296297D02*
Y288799D01*
X1292872Y296297D02*
Y288799D01*
X1287873Y292727D02*
X1292872D01*
X1299585Y296297D02*
X1294943D01*
Y288799D01*
X1299585D01*
X1294943Y292727D02*
X1297799D01*
X1305834Y295226D02*
X1305119Y295940D01*
X1304048Y296297D01*
X1302620D01*
X1301549Y295940D01*
X1300834Y295226D01*
Y294512D01*
X1301192Y293798D01*
X1301549Y293441D01*
X1302263Y293084D01*
X1304405Y292370D01*
X1305119Y292013D01*
X1305476Y291655D01*
X1305834Y290941D01*
Y289870D01*
X1305119Y289156D01*
X1304048Y288799D01*
X1302620D01*
X1301549Y289156D01*
X1300834Y289870D01*
X1169398Y276297D02*
Y268799D01*
X1166899Y276297D02*
X1171898D01*
X1174933D02*
X1174219Y275940D01*
X1173505Y275226D01*
X1173148Y274512D01*
X1172791Y273441D01*
Y271656D01*
X1173148Y270584D01*
X1173505Y269870D01*
X1174219Y269156D01*
X1174933Y268799D01*
X1176361D01*
X1177075Y269156D01*
X1177789Y269870D01*
X1178147Y270584D01*
X1178504Y271656D01*
Y273441D01*
X1178147Y274512D01*
X1177789Y275226D01*
X1177075Y275940D01*
X1176361Y276297D01*
X1174933D01*
X1180253D02*
Y268799D01*
X1184538D01*
X1190001Y276297D02*
X1185359D01*
Y268799D01*
X1190001D01*
X1185359Y272727D02*
X1188216D01*
X1191251Y276297D02*
Y268799D01*
Y276297D02*
X1194464D01*
X1195536Y275940D01*
X1195893Y275583D01*
X1196250Y274869D01*
Y274155D01*
X1195893Y273441D01*
X1195536Y273084D01*
X1194464Y272727D01*
X1191251D01*
X1193750D02*
X1196250Y268799D01*
X1203641D02*
X1200785Y276297D01*
X1197928Y268799D01*
X1198999Y271299D02*
X1202570D01*
X1205391Y276297D02*
Y268799D01*
Y276297D02*
X1210390Y268799D01*
Y276297D02*
Y268799D01*
X1217817Y274512D02*
X1217460Y275226D01*
X1216745Y275940D01*
X1216031Y276297D01*
X1214603D01*
X1213889Y275940D01*
X1213175Y275226D01*
X1212818Y274512D01*
X1212461Y273441D01*
Y271656D01*
X1212818Y270584D01*
X1213175Y269870D01*
X1213889Y269156D01*
X1214603Y268799D01*
X1216031D01*
X1216745Y269156D01*
X1217460Y269870D01*
X1217817Y270584D01*
X1224565Y276297D02*
X1219923D01*
Y268799D01*
X1224565D01*
X1219923Y272727D02*
X1222780D01*
X1230814Y275226D02*
X1230100Y275940D01*
X1229029Y276297D01*
X1227600D01*
X1226529Y275940D01*
X1225815Y275226D01*
Y274512D01*
X1226172Y273798D01*
X1226529Y273441D01*
X1227243Y273084D01*
X1229386Y272370D01*
X1230100Y272013D01*
X1230457Y271656D01*
X1230814Y270941D01*
Y269870D01*
X1230100Y269156D01*
X1229029Y268799D01*
X1227600D01*
X1226529Y269156D01*
X1225815Y269870D01*
X1240526Y276297D02*
X1239812Y275940D01*
X1239098Y275226D01*
X1238741Y274512D01*
X1238384Y273441D01*
Y271656D01*
X1238741Y270584D01*
X1239098Y269870D01*
X1239812Y269156D01*
X1240526Y268799D01*
X1241954D01*
X1242669Y269156D01*
X1243383Y269870D01*
X1243740Y270584D01*
X1244097Y271656D01*
Y273441D01*
X1243740Y274512D01*
X1243383Y275226D01*
X1242669Y275940D01*
X1241954Y276297D01*
X1240526D01*
X1245846D02*
Y268799D01*
Y276297D02*
X1250845Y268799D01*
Y276297D02*
Y268799D01*
X1253273Y273798D02*
X1252916Y273441D01*
X1253273Y273084D01*
X1253630Y273441D01*
X1253273Y273798D01*
X1253630Y269156D02*
X1253273Y268799D01*
X1252916Y269156D01*
X1253273Y269513D01*
X1253630Y269156D01*
Y268442D01*
X1253273Y267728D01*
X1252916Y267371D01*
X1167256Y254512D02*
Y254869D01*
X1167613Y255583D01*
X1167970Y255940D01*
X1168684Y256297D01*
X1170113D01*
X1170827Y255940D01*
X1171184Y255583D01*
X1171541Y254869D01*
Y254155D01*
X1171184Y253441D01*
X1170470Y252370D01*
X1166899Y248799D01*
X1171898D01*
X1179468Y252370D02*
X1182681D01*
X1183753Y252727D01*
X1184110Y253084D01*
X1184467Y253798D01*
Y254869D01*
X1184110Y255583D01*
X1183753Y255940D01*
X1182681Y256297D01*
X1179468D01*
Y248799D01*
X1186145Y256297D02*
Y248799D01*
X1190430D01*
X1197143Y256297D02*
Y248799D01*
Y256297D02*
X1199642D01*
X1200713Y255940D01*
X1201427Y255226D01*
X1201784Y254512D01*
X1202141Y253441D01*
Y251656D01*
X1201784Y250584D01*
X1201427Y249870D01*
X1200713Y249156D01*
X1199642Y248799D01*
X1197143D01*
X1208461Y256297D02*
X1203820D01*
Y248799D01*
X1208461D01*
X1203820Y252727D02*
X1206676D01*
X1215067Y254512D02*
X1214710Y255226D01*
X1213996Y255940D01*
X1213282Y256297D01*
X1211854D01*
X1211139Y255940D01*
X1210425Y255226D01*
X1210068Y254512D01*
X1209711Y253441D01*
Y251656D01*
X1210068Y250584D01*
X1210425Y249870D01*
X1211139Y249156D01*
X1211854Y248799D01*
X1213282D01*
X1213996Y249156D01*
X1214710Y249870D01*
X1215067Y250584D01*
X1217174Y256297D02*
Y248799D01*
X1218745Y256297D02*
Y248799D01*
Y256297D02*
X1221601Y248799D01*
X1224458Y256297D02*
X1221601Y248799D01*
X1224458Y256297D02*
Y248799D01*
X1232314D02*
X1229457Y256297D01*
X1226600Y248799D01*
X1227672Y251298D02*
X1231242D01*
X1234063Y256297D02*
Y248799D01*
X1238348D01*
X1244168Y255226D02*
X1243454Y255940D01*
X1242383Y256297D01*
X1240955D01*
X1239883Y255940D01*
X1239169Y255226D01*
Y254512D01*
X1239526Y253798D01*
X1239883Y253441D01*
X1240598Y253084D01*
X1242740Y252370D01*
X1243454Y252013D01*
X1243811Y251656D01*
X1244168Y250941D01*
Y249870D01*
X1243454Y249156D01*
X1242383Y248799D01*
X1240955D01*
X1239883Y249156D01*
X1239169Y249870D01*
X1254951Y255226D02*
Y248799D01*
X1251738Y252013D02*
X1258165D01*
X1167613Y236297D02*
X1171541D01*
X1169398Y233441D01*
X1170470D01*
X1171184Y233084D01*
X1171541Y232727D01*
X1171898Y231656D01*
Y230941D01*
X1171541Y229870D01*
X1170827Y229156D01*
X1169755Y228799D01*
X1168684D01*
X1167613Y229156D01*
X1167256Y229513D01*
X1166899Y230227D01*
X1179468Y232370D02*
X1182681D01*
X1183753Y232727D01*
X1184110Y233084D01*
X1184467Y233798D01*
Y234869D01*
X1184110Y235583D01*
X1183753Y235940D01*
X1182681Y236297D01*
X1179468D01*
Y228799D01*
X1186145Y236297D02*
Y228799D01*
X1190430D01*
X1197143Y236297D02*
Y228799D01*
Y236297D02*
X1199642D01*
X1200713Y235940D01*
X1201427Y235226D01*
X1201784Y234512D01*
X1202141Y233441D01*
Y231656D01*
X1201784Y230584D01*
X1201427Y229870D01*
X1200713Y229156D01*
X1199642Y228799D01*
X1197143D01*
X1208461Y236297D02*
X1203820D01*
Y228799D01*
X1208461D01*
X1203820Y232727D02*
X1206676D01*
X1215067Y234512D02*
X1214710Y235226D01*
X1213996Y235940D01*
X1213282Y236297D01*
X1211854D01*
X1211139Y235940D01*
X1210425Y235226D01*
X1210068Y234512D01*
X1209711Y233441D01*
Y231656D01*
X1210068Y230584D01*
X1210425Y229870D01*
X1211139Y229156D01*
X1211854Y228799D01*
X1213282D01*
X1213996Y229156D01*
X1214710Y229870D01*
X1215067Y230584D01*
X1217174Y236297D02*
Y228799D01*
X1218745Y236297D02*
Y228799D01*
Y236297D02*
X1221601Y228799D01*
X1224458Y236297D02*
X1221601Y228799D01*
X1224458Y236297D02*
Y228799D01*
X1232314D02*
X1229457Y236297D01*
X1226600Y228799D01*
X1227672Y231298D02*
X1231242D01*
X1234063Y236297D02*
Y228799D01*
X1238348D01*
X1244168Y235226D02*
X1243454Y235940D01*
X1242383Y236297D01*
X1240955D01*
X1239883Y235940D01*
X1239169Y235226D01*
Y234512D01*
X1239526Y233798D01*
X1239883Y233441D01*
X1240598Y233084D01*
X1242740Y232370D01*
X1243454Y232013D01*
X1243811Y231656D01*
X1244168Y230941D01*
Y229870D01*
X1243454Y229156D01*
X1242383Y228799D01*
X1240955D01*
X1239883Y229156D01*
X1239169Y229870D01*
X1254951Y235226D02*
Y228799D01*
X1251738Y232013D02*
X1258165D01*
X1172612Y208799D02*
X1169755Y216297D01*
X1166899Y208799D01*
X1167970Y211298D02*
X1171541D01*
X1174362Y216297D02*
Y208799D01*
Y216297D02*
X1179361Y208799D01*
Y216297D02*
Y208799D01*
X1186788Y214512D02*
X1186430Y215226D01*
X1185716Y215940D01*
X1185002Y216297D01*
X1183574D01*
X1182860Y215940D01*
X1182146Y215226D01*
X1181789Y214512D01*
X1181432Y213441D01*
Y211655D01*
X1181789Y210584D01*
X1182146Y209870D01*
X1182860Y209156D01*
X1183574Y208799D01*
X1185002D01*
X1185716Y209156D01*
X1186430Y209870D01*
X1186788Y210584D01*
Y211655D01*
X1185002D02*
X1186788D01*
X1188501Y216297D02*
Y208799D01*
X1192786D01*
X1198249Y216297D02*
X1193608D01*
Y208799D01*
X1198249D01*
X1193608Y212727D02*
X1196464D01*
X1204498Y215226D02*
X1203784Y215940D01*
X1202713Y216297D01*
X1201285D01*
X1200213Y215940D01*
X1199499Y215226D01*
Y214512D01*
X1199856Y213798D01*
X1200213Y213441D01*
X1200927Y213084D01*
X1203070Y212370D01*
X1203784Y212013D01*
X1204141Y211655D01*
X1204498Y210941D01*
Y209870D01*
X1203784Y209156D01*
X1202713Y208799D01*
X1201285D01*
X1200213Y209156D01*
X1199499Y209870D01*
X1215281Y215226D02*
Y208799D01*
X1212068Y212013D02*
X1218495D01*
X1166899Y196297D02*
Y188799D01*
Y196297D02*
X1171541D01*
X1166899Y192727D02*
X1169755D01*
X1172398Y196297D02*
Y188799D01*
Y196297D02*
X1175611D01*
X1176683Y195940D01*
X1177040Y195583D01*
X1177397Y194869D01*
Y194155D01*
X1177040Y193441D01*
X1176683Y193084D01*
X1175611Y192727D01*
X1172398D01*
X1174897D02*
X1177397Y188799D01*
X1184788D02*
X1181931Y196297D01*
X1179075Y188799D01*
X1180146Y191298D02*
X1183717D01*
X1191894Y194512D02*
X1191537Y195226D01*
X1190823Y195940D01*
X1190108Y196297D01*
X1188680D01*
X1187966Y195940D01*
X1187252Y195226D01*
X1186895Y194512D01*
X1186538Y193441D01*
Y191656D01*
X1186895Y190584D01*
X1187252Y189870D01*
X1187966Y189156D01*
X1188680Y188799D01*
X1190108D01*
X1190823Y189156D01*
X1191537Y189870D01*
X1191894Y190584D01*
X1196500Y196297D02*
Y188799D01*
X1194000Y196297D02*
X1198999D01*
X1199892D02*
Y188799D01*
X1203605Y196297D02*
X1202891Y195940D01*
X1202177Y195226D01*
X1201820Y194512D01*
X1201463Y193441D01*
Y191656D01*
X1201820Y190584D01*
X1202177Y189870D01*
X1202891Y189156D01*
X1203605Y188799D01*
X1205034D01*
X1205748Y189156D01*
X1206462Y189870D01*
X1206819Y190584D01*
X1207176Y191656D01*
Y193441D01*
X1206819Y194512D01*
X1206462Y195226D01*
X1205748Y195940D01*
X1205034Y196297D01*
X1203605D01*
X1208926D02*
Y188799D01*
Y196297D02*
X1213925Y188799D01*
Y196297D02*
Y188799D01*
X1220994Y195226D02*
X1220280Y195940D01*
X1219209Y196297D01*
X1217781D01*
X1216710Y195940D01*
X1215996Y195226D01*
Y194512D01*
X1216353Y193798D01*
X1216710Y193441D01*
X1217424Y193084D01*
X1219566Y192370D01*
X1220280Y192013D01*
X1220638Y191656D01*
X1220994Y190941D01*
Y189870D01*
X1220280Y189156D01*
X1219209Y188799D01*
X1217781D01*
X1216710Y189156D01*
X1215996Y189870D01*
X1231778Y195226D02*
Y188799D01*
X1228564Y192013D02*
X1234991D01*
X1451898Y320226D02*
X1451184Y320940D01*
X1450113Y321297D01*
X1448684D01*
X1447613Y320940D01*
X1446899Y320226D01*
Y319512D01*
X1447256Y318798D01*
X1447613Y318441D01*
X1448327Y318084D01*
X1450470Y317370D01*
X1451184Y317013D01*
X1451541Y316655D01*
X1451898Y315941D01*
Y314870D01*
X1451184Y314156D01*
X1450113Y313799D01*
X1448684D01*
X1447613Y314156D01*
X1446899Y314870D01*
X1453576Y321297D02*
Y313799D01*
X1460503Y319512D02*
X1460146Y320226D01*
X1459432Y320940D01*
X1458718Y321297D01*
X1457290D01*
X1456575Y320940D01*
X1455861Y320226D01*
X1455504Y319512D01*
X1455147Y318441D01*
Y316655D01*
X1455504Y315584D01*
X1455861Y314870D01*
X1456575Y314156D01*
X1457290Y313799D01*
X1458718D01*
X1459432Y314156D01*
X1460146Y314870D01*
X1460503Y315584D01*
Y316655D01*
X1458718D02*
X1460503D01*
X1462217Y321297D02*
Y313799D01*
Y321297D02*
X1467216Y313799D01*
Y321297D02*
Y313799D01*
X1475000D02*
X1472144Y321297D01*
X1469287Y313799D01*
X1470358Y316299D02*
X1473929D01*
X1479249Y321297D02*
Y313799D01*
X1476750Y321297D02*
X1481749D01*
X1482641D02*
Y315941D01*
X1482998Y314870D01*
X1483712Y314156D01*
X1484784Y313799D01*
X1485498D01*
X1486569Y314156D01*
X1487283Y314870D01*
X1487640Y315941D01*
Y321297D01*
X1489711D02*
Y313799D01*
Y321297D02*
X1492925D01*
X1493996Y320940D01*
X1494353Y320583D01*
X1494710Y319869D01*
Y319155D01*
X1494353Y318441D01*
X1493996Y318084D01*
X1492925Y317727D01*
X1489711D01*
X1492211D02*
X1494710Y313799D01*
X1501030Y321297D02*
X1496388D01*
Y313799D01*
X1501030D01*
X1496388Y317727D02*
X1499245D01*
X1507279Y320226D02*
X1506565Y320940D01*
X1505494Y321297D01*
X1504065D01*
X1502994Y320940D01*
X1502280Y320226D01*
Y319512D01*
X1502637Y318798D01*
X1502994Y318441D01*
X1503708Y318084D01*
X1505851Y317370D01*
X1506565Y317013D01*
X1506922Y316655D01*
X1507279Y315941D01*
Y314870D01*
X1506565Y314156D01*
X1505494Y313799D01*
X1504065D01*
X1502994Y314156D01*
X1502280Y314870D01*
X1601899Y321297D02*
Y313799D01*
Y321297D02*
X1604399D01*
X1605470Y320940D01*
X1606184Y320226D01*
X1606541Y319512D01*
X1606898Y318441D01*
Y316655D01*
X1606541Y315584D01*
X1606184Y314870D01*
X1605470Y314156D01*
X1604399Y313799D01*
X1601899D01*
X1614289D02*
X1611433Y321297D01*
X1608576Y313799D01*
X1609647Y316299D02*
X1613218D01*
X1618538Y321297D02*
Y313799D01*
X1616039Y321297D02*
X1621038D01*
X1626572D02*
X1621930D01*
Y313799D01*
X1626572D01*
X1621930Y317727D02*
X1624787D01*
X1411899Y291297D02*
Y283799D01*
Y291297D02*
X1414398D01*
X1415470Y290940D01*
X1416184Y290226D01*
X1416541Y289512D01*
X1416898Y288441D01*
Y286655D01*
X1416541Y285584D01*
X1416184Y284870D01*
X1415470Y284156D01*
X1414398Y283799D01*
X1411899D01*
X1418576Y291297D02*
Y283799D01*
Y291297D02*
X1421790D01*
X1422861Y290940D01*
X1423218Y290583D01*
X1423575Y289869D01*
Y289155D01*
X1423218Y288441D01*
X1422861Y288084D01*
X1421790Y287727D01*
X1418576D01*
X1421076D02*
X1423575Y283799D01*
X1430966D02*
X1428110Y291297D01*
X1425253Y283799D01*
X1426324Y286298D02*
X1429895D01*
X1432716Y291297D02*
X1434501Y283799D01*
X1436287Y291297D02*
X1434501Y283799D01*
X1436287Y291297D02*
X1438072Y283799D01*
X1439857Y291297D02*
X1438072Y283799D01*
X1441357Y291297D02*
Y283799D01*
Y291297D02*
X1446356Y283799D01*
Y291297D02*
Y283799D01*
X1417255Y259512D02*
X1416898Y260226D01*
X1416184Y260940D01*
X1415470Y261297D01*
X1414041D01*
X1413327Y260940D01*
X1412613Y260226D01*
X1412256Y259512D01*
X1411899Y258441D01*
Y256656D01*
X1412256Y255584D01*
X1412613Y254870D01*
X1413327Y254156D01*
X1414041Y253799D01*
X1415470D01*
X1416184Y254156D01*
X1416898Y254870D01*
X1417255Y255584D01*
X1419362Y261297D02*
Y253799D01*
X1424361Y261297D02*
Y253799D01*
X1419362Y257727D02*
X1424361D01*
X1431073Y261297D02*
X1426432D01*
Y253799D01*
X1431073D01*
X1426432Y257727D02*
X1429288D01*
X1437679Y259512D02*
X1437322Y260226D01*
X1436608Y260940D01*
X1435894Y261297D01*
X1434466D01*
X1433751Y260940D01*
X1433037Y260226D01*
X1432680Y259512D01*
X1432323Y258441D01*
Y256656D01*
X1432680Y255584D01*
X1433037Y254870D01*
X1433751Y254156D01*
X1434466Y253799D01*
X1435894D01*
X1436608Y254156D01*
X1437322Y254870D01*
X1437679Y255584D01*
X1439786Y261297D02*
Y253799D01*
X1444785Y261297D02*
X1439786Y256298D01*
X1441571Y258084D02*
X1444785Y253799D01*
X1451105Y261297D02*
X1446463D01*
Y253799D01*
X1451105D01*
X1446463Y257727D02*
X1449319D01*
X1452355Y261297D02*
Y253799D01*
Y261297D02*
X1454854D01*
X1455925Y260940D01*
X1456639Y260226D01*
X1456997Y259512D01*
X1457353Y258441D01*
Y256656D01*
X1456997Y255584D01*
X1456639Y254870D01*
X1455925Y254156D01*
X1454854Y253799D01*
X1452355D01*
X1416541Y231297D02*
X1411899D01*
Y223799D01*
X1416541D01*
X1411899Y227727D02*
X1414756D01*
X1417791Y231297D02*
Y223799D01*
Y231297D02*
X1422789Y223799D01*
Y231297D02*
Y223799D01*
X1430217Y229512D02*
X1429859Y230226D01*
X1429145Y230940D01*
X1428431Y231297D01*
X1427003D01*
X1426289Y230940D01*
X1425575Y230226D01*
X1425218Y229512D01*
X1424860Y228441D01*
Y226656D01*
X1425218Y225584D01*
X1425575Y224870D01*
X1426289Y224156D01*
X1427003Y223799D01*
X1428431D01*
X1429145Y224156D01*
X1429859Y224870D01*
X1430217Y225584D01*
Y226656D01*
X1428431D02*
X1430217D01*
X1431930Y231297D02*
Y223799D01*
Y231297D02*
X1435144D01*
X1436215Y230940D01*
X1436572Y230583D01*
X1436929Y229869D01*
Y229155D01*
X1436572Y228441D01*
X1436215Y228084D01*
X1435144Y227727D01*
X1431930D01*
X1434430D02*
X1436929Y223799D01*
X1443964Y229512D02*
X1443606Y230226D01*
X1442892Y230940D01*
X1442178Y231297D01*
X1440750D01*
X1440036Y230940D01*
X1439322Y230226D01*
X1438965Y229512D01*
X1438608Y228441D01*
Y226656D01*
X1438965Y225584D01*
X1439322Y224870D01*
X1440036Y224156D01*
X1440750Y223799D01*
X1442178D01*
X1442892Y224156D01*
X1443606Y224870D01*
X1443964Y225584D01*
Y226656D01*
X1442178D02*
X1443964D01*
X1411899Y201297D02*
Y193799D01*
X1418469Y200226D02*
X1417755Y200940D01*
X1416684Y201297D01*
X1415255D01*
X1414184Y200940D01*
X1413470Y200226D01*
Y199512D01*
X1413827Y198798D01*
X1414184Y198441D01*
X1414898Y198084D01*
X1417041Y197370D01*
X1417755Y197013D01*
X1418112Y196655D01*
X1418469Y195941D01*
Y194870D01*
X1417755Y194156D01*
X1416684Y193799D01*
X1415255D01*
X1414184Y194156D01*
X1413470Y194870D01*
X1425146Y200226D02*
X1424432Y200940D01*
X1423361Y201297D01*
X1421933D01*
X1420861Y200940D01*
X1420147Y200226D01*
Y199512D01*
X1420504Y198798D01*
X1420861Y198441D01*
X1421576Y198084D01*
X1423718Y197370D01*
X1424432Y197013D01*
X1424789Y196655D01*
X1425146Y195941D01*
Y194870D01*
X1424432Y194156D01*
X1423361Y193799D01*
X1421933D01*
X1420861Y194156D01*
X1420147Y194870D01*
X1426824Y201297D02*
Y195941D01*
X1427181Y194870D01*
X1427896Y194156D01*
X1428967Y193799D01*
X1429681D01*
X1430752Y194156D01*
X1431466Y194870D01*
X1431823Y195941D01*
Y201297D01*
X1438536D02*
X1433894D01*
Y193799D01*
X1438536D01*
X1433894Y197727D02*
X1436751D01*
X1439786Y201297D02*
Y193799D01*
Y201297D02*
X1442285D01*
X1443357Y200940D01*
X1444071Y200226D01*
X1444428Y199512D01*
X1444785Y198441D01*
Y196655D01*
X1444428Y195584D01*
X1444071Y194870D01*
X1443357Y194156D01*
X1442285Y193799D01*
X1439786D01*
X1666898Y145226D02*
X1666184Y145940D01*
X1665113Y146297D01*
X1663684D01*
X1662613Y145940D01*
X1661899Y145226D01*
Y144512D01*
X1662256Y143798D01*
X1662613Y143441D01*
X1663327Y143084D01*
X1665470Y142370D01*
X1666184Y142013D01*
X1666541Y141656D01*
X1666898Y140941D01*
Y139870D01*
X1666184Y139156D01*
X1665113Y138799D01*
X1663684D01*
X1662613Y139156D01*
X1661899Y139870D01*
X1668576Y146297D02*
Y138799D01*
X1675146Y146297D02*
X1670147Y138799D01*
Y146297D02*
X1675146D01*
X1670147Y138799D02*
X1675146D01*
X1681466Y146297D02*
X1676824D01*
Y138799D01*
X1681466D01*
X1676824Y142727D02*
X1679681D01*
X1711899Y146297D02*
Y138799D01*
Y146297D02*
X1716541D01*
X1711899Y142727D02*
X1714755D01*
X1722397Y145226D02*
X1721683Y145940D01*
X1720611Y146297D01*
X1719183D01*
X1718112Y145940D01*
X1717398Y145226D01*
Y144512D01*
X1717755Y143798D01*
X1718112Y143441D01*
X1718826Y143084D01*
X1720968Y142370D01*
X1721683Y142013D01*
X1722040Y141656D01*
X1722397Y140941D01*
Y139870D01*
X1721683Y139156D01*
X1720611Y138799D01*
X1719183D01*
X1718112Y139156D01*
X1717398Y139870D01*
X1729431Y144512D02*
X1729074Y145226D01*
X1728360Y145940D01*
X1727646Y146297D01*
X1726217D01*
X1725503Y145940D01*
X1724789Y145226D01*
X1724432Y144512D01*
X1724075Y143441D01*
Y141656D01*
X1724432Y140584D01*
X1724789Y139870D01*
X1725503Y139156D01*
X1726217Y138799D01*
X1727646D01*
X1728360Y139156D01*
X1729074Y139870D01*
X1729431Y140584D01*
X1731538Y146297D02*
Y138799D01*
Y146297D02*
X1734394Y138799D01*
X1737251Y146297D02*
X1734394Y138799D01*
X1737251Y146297D02*
Y138799D01*
X1745285Y146297D02*
Y138799D01*
Y146297D02*
X1750284Y138799D01*
Y146297D02*
Y138799D01*
X1754497Y146297D02*
X1753783Y145940D01*
X1753069Y145226D01*
X1752712Y144512D01*
X1752355Y143441D01*
Y141656D01*
X1752712Y140584D01*
X1753069Y139870D01*
X1753783Y139156D01*
X1754497Y138799D01*
X1755925D01*
X1756639Y139156D01*
X1757354Y139870D01*
X1757711Y140584D01*
X1758068Y141656D01*
Y143441D01*
X1757711Y144512D01*
X1757354Y145226D01*
X1756639Y145940D01*
X1755925Y146297D01*
X1754497D01*
X1811899D02*
Y138799D01*
Y146297D02*
X1814399D01*
X1815470Y145940D01*
X1816184Y145226D01*
X1816541Y144512D01*
X1816898Y143441D01*
Y141656D01*
X1816541Y140584D01*
X1816184Y139870D01*
X1815470Y139156D01*
X1814399Y138799D01*
X1811899D01*
X1818576Y146297D02*
X1820362Y138799D01*
X1822147Y146297D02*
X1820362Y138799D01*
X1822147Y146297D02*
X1823932Y138799D01*
X1825718Y146297D02*
X1823932Y138799D01*
X1832573Y144512D02*
X1832216Y145226D01*
X1831502Y145940D01*
X1830788Y146297D01*
X1829359D01*
X1828645Y145940D01*
X1827931Y145226D01*
X1827574Y144512D01*
X1827217Y143441D01*
Y141656D01*
X1827574Y140584D01*
X1827931Y139870D01*
X1828645Y139156D01*
X1829359Y138799D01*
X1830788D01*
X1831502Y139156D01*
X1832216Y139870D01*
X1832573Y140584D01*
Y141656D01*
X1830788D02*
X1832573D01*
X1840179Y146297D02*
Y138799D01*
Y146297D02*
X1845178Y138799D01*
Y146297D02*
Y138799D01*
X1849391Y146297D02*
X1848677Y145940D01*
X1847963Y145226D01*
X1847606Y144512D01*
X1847249Y143441D01*
Y141656D01*
X1847606Y140584D01*
X1847963Y139870D01*
X1848677Y139156D01*
X1849391Y138799D01*
X1850819D01*
X1851533Y139156D01*
X1852247Y139870D01*
X1852605Y140584D01*
X1852962Y141656D01*
Y143441D01*
X1852605Y144512D01*
X1852247Y145226D01*
X1851533Y145940D01*
X1850819Y146297D01*
X1849391D01*
X1661898Y95226D02*
X1661184Y95940D01*
X1660113Y96297D01*
X1658684D01*
X1657613Y95940D01*
X1656899Y95226D01*
Y94512D01*
X1657256Y93798D01*
X1657613Y93441D01*
X1658327Y93084D01*
X1660470Y92370D01*
X1661184Y92013D01*
X1661541Y91655D01*
X1661898Y90941D01*
Y89870D01*
X1661184Y89156D01*
X1660113Y88799D01*
X1658684D01*
X1657613Y89156D01*
X1656899Y89870D01*
X1668932Y94512D02*
X1668575Y95226D01*
X1667861Y95940D01*
X1667147Y96297D01*
X1665718D01*
X1665004Y95940D01*
X1664290Y95226D01*
X1663933Y94512D01*
X1663576Y93441D01*
Y91655D01*
X1663933Y90584D01*
X1664290Y89870D01*
X1665004Y89156D01*
X1665718Y88799D01*
X1667147D01*
X1667861Y89156D01*
X1668575Y89870D01*
X1668932Y90584D01*
X1676752Y88799D02*
X1673895Y96297D01*
X1671039Y88799D01*
X1672110Y91299D02*
X1675681D01*
X1678502Y96297D02*
Y88799D01*
X1682786D01*
X1688249Y96297D02*
X1683608D01*
Y88799D01*
X1688249D01*
X1683608Y92727D02*
X1686464D01*
X1986898Y95226D02*
X1986184Y95940D01*
X1985113Y96297D01*
X1983684D01*
X1982613Y95940D01*
X1981899Y95226D01*
Y94512D01*
X1982256Y93798D01*
X1982613Y93441D01*
X1983327Y93084D01*
X1985470Y92370D01*
X1986184Y92013D01*
X1986541Y91655D01*
X1986898Y90941D01*
Y89870D01*
X1986184Y89156D01*
X1985113Y88799D01*
X1983684D01*
X1982613Y89156D01*
X1981899Y89870D01*
X1988576Y96297D02*
Y88799D01*
X1993575Y96297D02*
Y88799D01*
X1988576Y92727D02*
X1993575D01*
X2000288Y96297D02*
X1995646D01*
Y88799D01*
X2000288D01*
X1995646Y92727D02*
X1998503D01*
X2006179Y96297D02*
X2001538D01*
Y88799D01*
X2006179D01*
X2001538Y92727D02*
X2004394D01*
X2009929Y96297D02*
Y88799D01*
X2007429Y96297D02*
X2012428D01*
M02*
