G04 Layer_Color=8421504*
%FSLAX25Y25*%
%MOIN*%
G70*
G01*
G75*
%ADD11R,0.00984X0.01280*%
%ADD12R,0.00984X0.00984*%
%ADD13R,0.01181X0.02559*%
%ADD14R,0.02559X0.01181*%
%ADD15R,0.16535X0.16535*%
%ADD16R,0.03937X0.03937*%
%ADD17R,0.08661X0.04134*%
%ADD18R,0.03150X0.05906*%
%ADD19R,0.03937X0.03543*%
%ADD20R,0.07087X0.03937*%
%ADD21R,0.02598X0.02598*%
%ADD22C,0.02000*%
%ADD23R,0.03200X0.02900*%
%ADD24R,0.02600X0.02400*%
%ADD25R,0.02400X0.02600*%
D11*
X322638Y389075D02*
D03*
Y391339D02*
D03*
X320669D02*
D03*
Y389075D02*
D03*
X324606Y390207D02*
D03*
D12*
X385044Y357571D02*
D03*
D13*
X350010Y367378D02*
D03*
X351979D02*
D03*
X359853D02*
D03*
X361821D02*
D03*
X365758D02*
D03*
X363790Y389622D02*
D03*
X348042D02*
D03*
X350010D02*
D03*
X353947D02*
D03*
X351979D02*
D03*
X355916D02*
D03*
X357884D02*
D03*
X359853D02*
D03*
X361821D02*
D03*
X365758D02*
D03*
X355916Y367378D02*
D03*
X363790D02*
D03*
X353947D02*
D03*
X357884D02*
D03*
X348042D02*
D03*
D14*
X368022Y369642D02*
D03*
Y371610D02*
D03*
Y373579D02*
D03*
Y375547D02*
D03*
X345778D02*
D03*
Y377516D02*
D03*
Y381453D02*
D03*
Y379484D02*
D03*
Y385390D02*
D03*
Y387358D02*
D03*
Y383421D02*
D03*
X368022Y387358D02*
D03*
Y385390D02*
D03*
Y383421D02*
D03*
Y381453D02*
D03*
Y379484D02*
D03*
X345778Y369642D02*
D03*
X368022Y377516D02*
D03*
X345778Y373579D02*
D03*
Y371610D02*
D03*
D15*
X356900Y378500D02*
D03*
D16*
X304555Y400744D02*
D03*
X292743D02*
D03*
D17*
X298649Y394937D02*
D03*
Y406551D02*
D03*
D18*
X344585Y402268D02*
D03*
X338679D02*
D03*
D19*
X349849Y403506D02*
D03*
Y398388D02*
D03*
X356541Y403506D02*
D03*
Y398388D02*
D03*
D20*
X293743Y376477D02*
D03*
Y357185D02*
D03*
D21*
X310505Y390190D02*
D03*
Y393734D02*
D03*
X306957Y390186D02*
D03*
X310501D02*
D03*
D22*
X372726Y384402D02*
D03*
D23*
X372300Y392200D02*
D03*
Y388200D02*
D03*
D24*
X303061Y390231D02*
D03*
Y386231D02*
D03*
X291361Y390273D02*
D03*
Y386273D02*
D03*
X342028Y388024D02*
D03*
Y384024D02*
D03*
X368955Y395769D02*
D03*
Y399769D02*
D03*
X327264Y390287D02*
D03*
Y386287D02*
D03*
X338189Y390386D02*
D03*
Y386386D02*
D03*
X364963Y395790D02*
D03*
Y399790D02*
D03*
D25*
X330776Y390256D02*
D03*
X334776D02*
D03*
X299179Y390149D02*
D03*
X295179D02*
D03*
X338627Y382676D02*
D03*
X334627D02*
D03*
X380365Y377961D02*
D03*
X376365D02*
D03*
X340673Y378798D02*
D03*
X336673D02*
D03*
X380509Y392079D02*
D03*
X376509D02*
D03*
X380323Y381870D02*
D03*
X376323D02*
D03*
X338856Y373060D02*
D03*
X334856D02*
D03*
X380489Y395967D02*
D03*
X376489D02*
D03*
X380510Y388171D02*
D03*
X376510D02*
D03*
X357900Y361400D02*
D03*
X353900D02*
D03*
M02*
