G04 Layer_Color=2752767*
%FSLAX25Y25*%
%MOIN*%
G70*
G01*
G75*
%ADD60C,0.00200*%
%ADD61C,0.00267*%
D60*
X321838Y386405D02*
Y388005D01*
X323438D01*
Y386405D01*
X321838D01*
X317315Y385592D02*
Y387192D01*
X318915D01*
Y385592D01*
X317315D01*
X312065Y382782D02*
Y384382D01*
X313665D01*
Y382782D01*
X312065D01*
X314445Y382762D02*
Y384362D01*
X316045D01*
Y382762D01*
X314445D01*
X321815Y382092D02*
Y383692D01*
X323415D01*
Y382092D01*
X321815D01*
X309855Y382822D02*
Y384422D01*
X311455D01*
Y382822D01*
X309855D01*
X307705Y382862D02*
Y384462D01*
X309305D01*
Y382862D01*
X307705D01*
X305455Y382742D02*
Y384342D01*
X307055D01*
Y382742D01*
X305455D01*
X319815Y382092D02*
Y383692D01*
X321415D01*
Y382092D01*
X319815D01*
X331815D02*
Y383692D01*
X333415D01*
Y382092D01*
X331815D01*
X329815D02*
Y383692D01*
X331415D01*
Y382092D01*
X329815D01*
X327815D02*
Y383692D01*
X329415D01*
Y382092D01*
X327815D01*
X325815D02*
Y383692D01*
X327415D01*
Y382092D01*
X325815D01*
X330204Y386011D02*
Y387611D01*
X331804D01*
Y386011D01*
X330204D01*
X323815Y382092D02*
Y383692D01*
X325415D01*
Y382092D01*
X323815D01*
X303205Y382782D02*
Y384382D01*
X304805D01*
Y382782D01*
X303205D01*
X304615Y385431D02*
Y387031D01*
X306215D01*
Y385431D01*
X304615D01*
X317315Y383592D02*
Y385192D01*
X318915D01*
Y383592D01*
X317315D01*
X331815Y393392D02*
Y394992D01*
X333415D01*
Y393392D01*
X331815D01*
X333815D02*
Y394992D01*
X335415D01*
Y393392D01*
X333815D01*
X321815D02*
Y394992D01*
X323415D01*
Y393392D01*
X321815D01*
X317315D02*
Y394992D01*
X318915D01*
Y393392D01*
X317315D01*
Y397392D02*
Y398992D01*
X318915D01*
Y397392D01*
X317315D01*
Y395392D02*
Y396992D01*
X318915D01*
Y395392D01*
X317315D01*
X319815Y393392D02*
Y394992D01*
X321415D01*
Y393392D01*
X319815D01*
X329815D02*
Y394992D01*
X331415D01*
Y393392D01*
X329815D01*
X325815D02*
Y394992D01*
X327415D01*
Y393392D01*
X325815D01*
X323815D02*
Y394992D01*
X325415D01*
Y393392D01*
X323815D01*
X327815D02*
Y394992D01*
X329415D01*
Y393392D01*
X327815D01*
X325215Y406892D02*
Y408492D01*
X326815D01*
Y406892D01*
X325215D01*
X317315Y405392D02*
Y406992D01*
X318915D01*
Y405392D01*
X317315D01*
X319215Y406892D02*
Y408492D01*
X320815D01*
Y406892D01*
X319215D01*
X335815Y393392D02*
Y394992D01*
X337415D01*
Y393392D01*
X335815D01*
X358812Y392188D02*
Y393788D01*
X360412D01*
Y392188D01*
X358812D01*
X340422Y393980D02*
Y395580D01*
X342022D01*
Y393980D01*
X340422D01*
X337642Y395648D02*
Y397248D01*
X339242D01*
Y395648D01*
X337642D01*
X334820Y385705D02*
Y387305D01*
X336420D01*
Y385705D01*
X334820D01*
X343800Y364200D02*
Y365800D01*
X345400D01*
Y364200D01*
X343800D01*
X347945Y362192D02*
Y363792D01*
X349545D01*
Y362192D01*
X347945D01*
X366645Y361363D02*
Y362963D01*
X368245D01*
Y361363D01*
X366645D01*
X369990Y361850D02*
Y363450D01*
X371590D01*
Y361850D01*
X369990D01*
X375742Y364629D02*
Y366229D01*
X377342D01*
Y364629D01*
X375742D01*
X380317Y365932D02*
Y367532D01*
X381917D01*
Y365932D01*
X380317D01*
X378945Y371292D02*
Y372892D01*
X380545D01*
Y371292D01*
X378945D01*
X381245Y372992D02*
Y374592D01*
X382845D01*
Y372992D01*
X381245D01*
X381912Y362849D02*
Y364449D01*
X383512D01*
Y362849D01*
X381912D01*
X342652Y374506D02*
Y376106D01*
X344252D01*
Y374506D01*
X342652D01*
X378176Y368396D02*
Y369996D01*
X379776D01*
Y368396D01*
X378176D01*
X334903Y360294D02*
Y361894D01*
X336503D01*
Y360294D01*
X334903D01*
X338619Y375735D02*
Y377335D01*
X340219D01*
Y375735D01*
X338619D01*
X370254Y395500D02*
Y397100D01*
X371854D01*
Y395500D01*
X370254D01*
X378691Y402681D02*
Y404281D01*
X380291D01*
Y402681D01*
X378691D01*
Y400373D02*
Y401973D01*
X380291D01*
Y400373D01*
X378691D01*
X342799Y378580D02*
Y380180D01*
X344399D01*
Y378580D01*
X342799D01*
X332052Y372260D02*
Y373860D01*
X333652D01*
Y372260D01*
X332052D01*
X381225Y377195D02*
Y378795D01*
X382825D01*
Y377195D01*
X381225D01*
X381712Y387375D02*
Y388975D01*
X383312D01*
Y387375D01*
X381712D01*
Y391238D02*
Y392838D01*
X383312D01*
Y391238D01*
X381712D01*
X381695Y395203D02*
Y396803D01*
X383295D01*
Y395203D01*
X381695D01*
X372020Y403687D02*
Y405287D01*
X373620D01*
Y403687D01*
X372020D01*
X359319Y360141D02*
Y361741D01*
X360919D01*
Y360141D01*
X359319D01*
X333779Y377998D02*
Y379598D01*
X335379D01*
Y377998D01*
X333779D01*
X381714Y381070D02*
Y382670D01*
X383314D01*
Y381070D01*
X381714D01*
X381497Y384074D02*
Y385674D01*
X383097D01*
Y384074D01*
X381497D01*
X364100Y400861D02*
Y402461D01*
X365700D01*
Y400861D01*
X364100D01*
X368155Y400840D02*
Y402440D01*
X369755D01*
Y400840D01*
X368155D01*
X317315Y403392D02*
Y404992D01*
X318915D01*
Y403392D01*
X317315D01*
Y401392D02*
Y402992D01*
X318915D01*
Y401392D01*
X317315D01*
Y399392D02*
Y400992D01*
X318915D01*
Y399392D01*
X317315D01*
Y381592D02*
Y383192D01*
X318915D01*
Y381592D01*
X317315D01*
Y379592D02*
Y381192D01*
X318915D01*
Y379592D01*
X317315D01*
Y377592D02*
Y379192D01*
X318915D01*
Y377592D01*
X317315D01*
Y375592D02*
Y377192D01*
X318915D01*
Y375592D01*
X317315D01*
Y373592D02*
Y375192D01*
X318915D01*
Y373592D01*
X317315D01*
Y371592D02*
Y373192D01*
X318915D01*
Y371592D01*
X317315D01*
Y369592D02*
Y371192D01*
X318915D01*
Y369592D01*
X317315D01*
Y367592D02*
Y369192D01*
X318915D01*
Y367592D01*
X317315D01*
Y365592D02*
Y367192D01*
X318915D01*
Y365592D01*
X317315D01*
Y363592D02*
Y365192D01*
X318915D01*
Y363592D01*
X317315D01*
Y361592D02*
Y363192D01*
X318915D01*
Y361592D01*
X317315D01*
Y359592D02*
Y361192D01*
X318915D01*
Y359592D01*
X317315D01*
X385356Y358923D02*
Y360523D01*
X386956D01*
Y358923D01*
X385356D01*
Y360923D02*
Y362523D01*
X386956D01*
Y360923D01*
X385356D01*
Y362923D02*
Y364523D01*
X386956D01*
Y362923D01*
X385356D01*
Y406923D02*
Y408523D01*
X386956D01*
Y406923D01*
X385356D01*
Y404923D02*
Y406523D01*
X386956D01*
Y404923D01*
X385356D01*
Y402923D02*
Y404523D01*
X386956D01*
Y402923D01*
X385356D01*
X313235Y408992D02*
Y410592D01*
X314835D01*
Y408992D01*
X313235D01*
X289298D02*
Y410592D01*
X290898D01*
Y408992D01*
X289298D01*
X291298D02*
Y410592D01*
X292898D01*
Y408992D01*
X291298D01*
X293298D02*
Y410592D01*
X294898D01*
Y408992D01*
X293298D01*
X295298D02*
Y410592D01*
X296898D01*
Y408992D01*
X295298D01*
X297298D02*
Y410592D01*
X298898D01*
Y408992D01*
X297298D01*
X299298D02*
Y410592D01*
X300898D01*
Y408992D01*
X299298D01*
X301298D02*
Y410592D01*
X302898D01*
Y408992D01*
X301298D01*
X303298D02*
Y410592D01*
X304898D01*
Y408992D01*
X303298D01*
X305298D02*
Y410592D01*
X306898D01*
Y408992D01*
X305298D01*
X307298D02*
Y410592D01*
X308898D01*
Y408992D01*
X307298D01*
X309298D02*
Y410592D01*
X310898D01*
Y408992D01*
X309298D01*
X315295D02*
Y410592D01*
X316895D01*
Y408992D01*
X315295D01*
X311295D02*
Y410592D01*
X312895D01*
Y408992D01*
X311295D01*
X295357Y405689D02*
Y407289D01*
X296957D01*
Y405689D01*
X295357D01*
X297957D02*
Y407289D01*
X299557D01*
Y405689D01*
X297957D01*
X300557D02*
Y407289D01*
X302157D01*
Y405689D01*
X300557D01*
X297957Y393989D02*
Y395589D01*
X299557D01*
Y393989D01*
X297957D01*
X295357D02*
Y395589D01*
X296957D01*
Y393989D01*
X295357D01*
X300557D02*
Y395589D01*
X302157D01*
Y393989D01*
X300557D01*
X291943Y397052D02*
Y398652D01*
X293543D01*
Y397052D01*
X291943D01*
Y402852D02*
Y404452D01*
X293543D01*
Y402852D01*
X291943D01*
X321215Y406892D02*
Y408492D01*
X322815D01*
Y406892D01*
X321215D01*
X323215D02*
Y408492D01*
X324815D01*
Y406892D01*
X323215D01*
X327215D02*
Y408492D01*
X328815D01*
Y406892D01*
X327215D01*
X299015Y382842D02*
Y384442D01*
X300615D01*
Y382842D01*
X299015D01*
X301135Y382782D02*
Y384382D01*
X302735D01*
Y382782D01*
X301135D01*
X287598D02*
Y384382D01*
X289198D01*
Y382782D01*
X287598D01*
Y384992D02*
Y386592D01*
X289198D01*
Y384992D01*
X287598D01*
Y386992D02*
Y388592D01*
X289198D01*
Y386992D01*
X287598D01*
Y388992D02*
Y390592D01*
X289198D01*
Y388992D01*
X287598D01*
Y390992D02*
Y392592D01*
X289198D01*
Y390992D01*
X287598D01*
Y392992D02*
Y394592D01*
X289198D01*
Y392992D01*
X287598D01*
Y400992D02*
Y402592D01*
X289198D01*
Y400992D01*
X287598D01*
Y398992D02*
Y400592D01*
X289198D01*
Y398992D01*
X287598D01*
Y396992D02*
Y398592D01*
X289198D01*
Y396992D01*
X287598D01*
Y394992D02*
Y396592D01*
X289198D01*
Y394992D01*
X287598D01*
Y406992D02*
Y408592D01*
X289198D01*
Y406992D01*
X287598D01*
Y404992D02*
Y406592D01*
X289198D01*
Y404992D01*
X287598D01*
Y402992D02*
Y404592D01*
X289198D01*
Y402992D01*
X287598D01*
X321815Y399392D02*
Y400992D01*
X323415D01*
Y399392D01*
X321815D01*
X317315Y357592D02*
Y359192D01*
X318915D01*
Y357592D01*
X317315D01*
X319315Y356892D02*
Y358492D01*
X320915D01*
Y356892D01*
X319315D01*
X321315D02*
Y358492D01*
X322915D01*
Y356892D01*
X321315D01*
X323315D02*
Y358492D01*
X324915D01*
Y356892D01*
X323315D01*
X325315D02*
Y358492D01*
X326915D01*
Y356892D01*
X325315D01*
X327315D02*
Y358492D01*
X328915D01*
Y356892D01*
X327315D01*
X289665Y382782D02*
Y384382D01*
X291265D01*
Y382782D01*
X289665D01*
X351750Y382819D02*
X350950Y384419D01*
X352550D01*
X351750Y382819D01*
Y377692D02*
X350950Y379292D01*
X352550D01*
X351750Y377692D01*
Y372592D02*
X350950Y374192D01*
X352550D01*
X351750Y372592D01*
X356931Y382819D02*
X356131Y384419D01*
X357731D01*
X356931Y382819D01*
Y377692D02*
X356131Y379292D01*
X357731D01*
X356931Y377692D01*
Y372592D02*
X356131Y374192D01*
X357731D01*
X356931Y372592D01*
X362045Y382819D02*
X361245Y384419D01*
X362845D01*
X362045Y382819D01*
Y377692D02*
X361245Y379292D01*
X362845D01*
X362045Y377692D01*
Y372592D02*
X361245Y374192D01*
X362845D01*
X362045Y372592D01*
X329815Y399392D02*
Y400992D01*
X331415D01*
Y399392D01*
X329815D01*
X322175Y375592D02*
Y377192D01*
X323775D01*
Y375592D01*
X322175D01*
X329102Y375616D02*
Y377216D01*
X330702D01*
Y375616D01*
X329102D01*
X325926Y369195D02*
Y370795D01*
X327526D01*
Y369195D01*
X325926D01*
X331356Y365779D02*
Y367379D01*
X332956D01*
Y365779D01*
X331356D01*
X322175Y361592D02*
Y363192D01*
X323775D01*
Y361592D01*
X322175D01*
X361435Y392680D02*
Y394280D01*
X363035D01*
Y392680D01*
X361435D01*
X361903Y403607D02*
Y405207D01*
X363503D01*
Y403607D01*
X361903D01*
X373256Y362289D02*
Y363889D01*
X374856D01*
Y362289D01*
X373256D01*
X339638Y361069D02*
Y362669D01*
X341238D01*
Y361069D01*
X339638D01*
X344545Y361536D02*
Y363136D01*
X346145D01*
Y361536D01*
X344545D01*
X362348Y359742D02*
Y361342D01*
X363948D01*
Y359742D01*
X362348D01*
X371500Y374499D02*
Y376099D01*
X373100D01*
Y374499D01*
X371500D01*
X339002Y368719D02*
Y370319D01*
X340602D01*
Y368719D01*
X339002D01*
X342115Y370599D02*
Y372199D01*
X343715D01*
Y370599D01*
X342115D01*
X340400Y363480D02*
Y365080D01*
X342000D01*
Y363480D01*
X340400D01*
D61*
X391589Y392719D02*
G03*
X391589Y392719I-800J0D01*
G01*
X363300Y353192D02*
G03*
X363300Y353192I-800J0D01*
G01*
X368300D02*
G03*
X368300Y353192I-800J0D01*
G01*
X373300D02*
G03*
X373300Y353192I-800J0D01*
G01*
X383300D02*
G03*
X383300Y353192I-800J0D01*
G01*
X391589Y367719D02*
G03*
X391589Y367719I-800J0D01*
G01*
Y372719D02*
G03*
X391589Y372719I-800J0D01*
G01*
Y377719D02*
G03*
X391589Y377719I-800J0D01*
G01*
Y382719D02*
G03*
X391589Y382719I-800J0D01*
G01*
X373300Y412278D02*
G03*
X373300Y412278I-800J0D01*
G01*
X391589Y387719D02*
G03*
X391589Y387719I-800J0D01*
G01*
Y397719D02*
G03*
X391589Y397719I-800J0D01*
G01*
X333300Y353192D02*
G03*
X333300Y353192I-800J0D01*
G01*
X358300D02*
G03*
X358300Y353192I-800J0D01*
G01*
Y412278D02*
G03*
X358300Y412278I-800J0D01*
G01*
X383300D02*
G03*
X383300Y412278I-800J0D01*
G01*
X333300D02*
G03*
X333300Y412278I-800J0D01*
G01*
X338300D02*
G03*
X338300Y412278I-800J0D01*
G01*
X353300D02*
G03*
X353300Y412278I-800J0D01*
G01*
X378300D02*
G03*
X378300Y412278I-800J0D01*
G01*
X353300Y353192D02*
G03*
X353300Y353192I-800J0D01*
G01*
X378300D02*
G03*
X378300Y353192I-800J0D01*
G01*
X338300D02*
G03*
X338300Y353192I-800J0D01*
G01*
X348300D02*
G03*
X348300Y353192I-800J0D01*
G01*
Y412278D02*
G03*
X348300Y412278I-800J0D01*
G01*
X343300D02*
G03*
X343300Y412278I-800J0D01*
G01*
X368300D02*
G03*
X368300Y412278I-800J0D01*
G01*
X363300D02*
G03*
X363300Y412278I-800J0D01*
G01*
X343300Y353192D02*
G03*
X343300Y353192I-800J0D01*
G01*
M02*
