G04 Layer_Color=16711935*
%FSLAX25Y25*%
%MOIN*%
G70*
G01*
G75*
%ADD45R,0.04137X0.04137*%
%ADD52C,0.01800*%
%ADD53C,0.04200*%
%ADD54C,0.02600*%
D45*
X388820Y397719D02*
D03*
Y387719D02*
D03*
Y382719D02*
D03*
Y377719D02*
D03*
Y372719D02*
D03*
Y367719D02*
D03*
Y392719D02*
D03*
X362500Y410310D02*
D03*
X367500D02*
D03*
X342500D02*
D03*
X347500D02*
D03*
X377500D02*
D03*
X352500D02*
D03*
X337500D02*
D03*
X332500D02*
D03*
X382500D02*
D03*
X357500D02*
D03*
X372500D02*
D03*
X342500Y355161D02*
D03*
X347500D02*
D03*
X337500D02*
D03*
X377500D02*
D03*
X352500D02*
D03*
X357500D02*
D03*
X332500D02*
D03*
X382500D02*
D03*
X372500D02*
D03*
X367500D02*
D03*
X362500D02*
D03*
D52*
X341200Y364280D02*
D03*
X342915Y371399D02*
D03*
X339802Y369519D02*
D03*
X372300Y375299D02*
D03*
X363148Y360542D02*
D03*
X345345Y362336D02*
D03*
X340438Y361869D02*
D03*
X374056Y363089D02*
D03*
X362703Y404407D02*
D03*
X362235Y393480D02*
D03*
X322975Y362392D02*
D03*
X332156Y366579D02*
D03*
X326726Y369995D02*
D03*
X329902Y376416D02*
D03*
X322975Y376392D02*
D03*
X330615Y400192D02*
D03*
X290465Y383582D02*
D03*
X328115Y357692D02*
D03*
X326115D02*
D03*
X324115D02*
D03*
X322115D02*
D03*
X320115D02*
D03*
X318115Y358392D02*
D03*
X322615Y400192D02*
D03*
X288398Y403792D02*
D03*
Y405792D02*
D03*
Y407792D02*
D03*
Y395792D02*
D03*
Y397792D02*
D03*
Y399792D02*
D03*
Y401792D02*
D03*
Y393792D02*
D03*
Y391792D02*
D03*
Y389792D02*
D03*
Y387792D02*
D03*
Y385792D02*
D03*
Y383582D02*
D03*
X301935D02*
D03*
X299815Y383642D02*
D03*
X328015Y407692D02*
D03*
X324015D02*
D03*
X322015D02*
D03*
X292743Y403652D02*
D03*
Y397852D02*
D03*
X301357Y394789D02*
D03*
X296157D02*
D03*
X298757D02*
D03*
X301357Y406489D02*
D03*
X298757D02*
D03*
X296157D02*
D03*
X312095Y409792D02*
D03*
X316095D02*
D03*
X310098D02*
D03*
X308098D02*
D03*
X306098D02*
D03*
X304098D02*
D03*
X302098D02*
D03*
X300098D02*
D03*
X298098D02*
D03*
X296098D02*
D03*
X294098D02*
D03*
X292098D02*
D03*
X290098D02*
D03*
X314035D02*
D03*
X386156Y403723D02*
D03*
Y405723D02*
D03*
Y407723D02*
D03*
Y363723D02*
D03*
Y361723D02*
D03*
Y359723D02*
D03*
X318115Y360392D02*
D03*
Y362392D02*
D03*
Y364392D02*
D03*
Y366392D02*
D03*
Y368392D02*
D03*
Y370392D02*
D03*
Y372392D02*
D03*
Y374392D02*
D03*
Y376392D02*
D03*
Y378392D02*
D03*
Y380392D02*
D03*
Y382392D02*
D03*
Y400192D02*
D03*
Y402192D02*
D03*
Y404192D02*
D03*
X368955Y401640D02*
D03*
X364900Y401661D02*
D03*
X382297Y384874D02*
D03*
X382514Y381870D02*
D03*
X334579Y378798D02*
D03*
X360119Y360941D02*
D03*
X372820Y404487D02*
D03*
X382495Y396003D02*
D03*
X382512Y392038D02*
D03*
Y388175D02*
D03*
X382025Y377995D02*
D03*
X332852Y373060D02*
D03*
X343599Y379380D02*
D03*
X379491Y401173D02*
D03*
Y403481D02*
D03*
X371054Y396300D02*
D03*
X339419Y376535D02*
D03*
X335703Y361094D02*
D03*
X378976Y369196D02*
D03*
X343452Y375306D02*
D03*
X382712Y363649D02*
D03*
X382045Y373792D02*
D03*
X379745Y372092D02*
D03*
X381117Y366732D02*
D03*
X376542Y365429D02*
D03*
X370790Y362650D02*
D03*
X367445Y362163D02*
D03*
X348745Y362992D02*
D03*
X344600Y365000D02*
D03*
X335620Y386505D02*
D03*
X338442Y396448D02*
D03*
X341222Y394780D02*
D03*
X359612Y392988D02*
D03*
X336615Y394192D02*
D03*
X320015Y407692D02*
D03*
X318115Y406192D02*
D03*
X326015Y407692D02*
D03*
X328615Y394192D02*
D03*
X324615D02*
D03*
X326615D02*
D03*
X330615D02*
D03*
X320615D02*
D03*
X318115Y396192D02*
D03*
Y398192D02*
D03*
Y394192D02*
D03*
X322615D02*
D03*
X334615D02*
D03*
X332615D02*
D03*
X318115Y384392D02*
D03*
X305415Y386231D02*
D03*
X304005Y383582D02*
D03*
X324615Y382892D02*
D03*
X331004Y386811D02*
D03*
X326615Y382892D02*
D03*
X328615D02*
D03*
X330615D02*
D03*
X332615D02*
D03*
X320615D02*
D03*
X306255Y383542D02*
D03*
X308505Y383662D02*
D03*
X310655Y383622D02*
D03*
X322615Y382892D02*
D03*
X315245Y383562D02*
D03*
X312865Y383582D02*
D03*
X318115Y386392D02*
D03*
X322638Y387205D02*
D03*
D53*
X342500Y353192D02*
D03*
X362500Y412278D02*
D03*
X367500D02*
D03*
X342500D02*
D03*
X347500D02*
D03*
Y353192D02*
D03*
X337500D02*
D03*
X377500D02*
D03*
X352500D02*
D03*
X377500Y412278D02*
D03*
X352500D02*
D03*
X337500D02*
D03*
X332500D02*
D03*
X382500D02*
D03*
X357500D02*
D03*
Y353192D02*
D03*
X332500D02*
D03*
X390789Y397719D02*
D03*
Y387719D02*
D03*
X372500Y412278D02*
D03*
X390789Y382719D02*
D03*
Y377719D02*
D03*
Y372719D02*
D03*
Y367719D02*
D03*
X382500Y353192D02*
D03*
X372500D02*
D03*
X367500D02*
D03*
X362500D02*
D03*
X390789Y392719D02*
D03*
D54*
X362045Y373392D02*
D03*
Y378492D02*
D03*
Y383619D02*
D03*
X356931Y373392D02*
D03*
Y378492D02*
D03*
Y383619D02*
D03*
X351750Y373392D02*
D03*
Y378492D02*
D03*
Y383619D02*
D03*
M02*
