M48
;Layer_Color=9474304
;FILE_FORMAT=2:5
INCH,LZ
;TYPE=PLATED
T1F00S00C0.00800
T2F00S00C0.01200
T3F00S00C0.02000
%
T01
X0288398Y0383582
X0290465
X0288398Y0385792
Y0387792
Y0389792
Y0391792
Y0393792
Y0395792
Y0397792
Y0399792
Y0401792
Y0403792
Y0405792
Y0407792
X0290098Y0409792
X0292098
X0294098
X0296098
X0298098
X0300098
X0302098
X0304098
X0306098
X0308098
X0310098
X0312095
X0301357Y0406489
X0298757
X0296157
X0292743Y0403652
Y0397852
X0296157Y0394789
X0298757
X0301357
X0301935Y0383582
X0304005
X0306255Y0383542
X0308505Y0383662
X0310655Y0383622
X0305415Y0386231
X0299815Y0383642
X0312865Y0383582
X0315245Y0383562
X0318115Y0384392
Y0386392
Y0382392
Y0380392
Y0378392
Y0376392
Y0374392
Y0372392
Y0370392
Y0368392
Y0366392
Y0364392
Y0362392
Y0360392
Y0358392
X0320115Y0357692
X0322115
X0324115
X0326115
X0328115
X0322975Y0362392
X0326726Y0369995
X0332156Y0366579
X0332852Y037306
X0329902Y0376416
X0322975Y0376392
X0322615Y0382892
X0320615
X0324615
X0326615
X0328615
X0330615
X0332615
X0331004Y0386811
X033562Y0386505
X0336615Y0394192
X0334615
X0332615
X0330615
X0328615
X0326615
X0324615
X0322615
X0320615
X0318115
Y0396192
Y0398192
Y0400192
Y0402192
Y0404192
Y0406192
X0320015Y0407692
X0322015
X0324015
X0326015
X0328015
X0330615Y0400192
X0322615
X0322638Y0387205
X0334579Y0378798
X0339419Y0376535
X0343452Y0375306
X0343599Y037938
X0342915Y0371399
X0339802Y0369519
X03412Y036428
X0340438Y0361869
X0345345Y0362336
X03446Y0365
X0348745Y0362992
X0360119Y0360941
X0363148Y0360542
X0367445Y0362163
X037079Y036265
X0374056Y0363089
X0376542Y0365429
X0381117Y0366732
X0378976Y0369196
X0379745Y0372092
X0382045Y0373792
X0382025Y0377995
X0382514Y038187
X0382297Y0384874
X0382512Y0388175
Y0392038
X0382495Y0396003
X0379491Y0401173
Y0403481
X0386156Y0403723
Y0405723
Y0407723
X037282Y0404487
X0368955Y040164
X03649Y0401661
X0362703Y0404407
X0362235Y039348
X0359612Y0392988
X0371054Y03963
X03723Y0375299
X0382712Y0363649
X0386156Y0363723
Y0361723
Y0359723
X0335703Y0361094
X0338442Y0396448
X0341222Y039478
X0316095Y0409792
X0314035
T02
X035175Y0373392
Y0378492
Y0383619
X0356931
X0362045
Y0378492
Y0373392
X0356931
Y0378492
T03
X03325Y0353192
X03375
X03425
X03475
X03525
X03575
X03625
X03675
X03725
X03775
X03825
X0390789Y0367719
Y0372719
Y0377719
Y0382719
Y0387719
Y0392719
Y0397719
X03825Y0412278
X03775
X03725
X03675
X03625
X03575
X03525
X03475
X03425
X03375
X03325
M30
